M48
; DRILL file {KiCad 8.0.5} date 2024-10-10T02:33:35+0300
; FORMAT={-:-/ absolute / inch / decimal}
; #@! TF.CreationDate,2024-10-10T02:33:35+03:00
; #@! TF.GenerationSoftware,Kicad,Pcbnew,8.0.5
; #@! TF.FileFunction,NonPlated,1,2,NPTH
FMAT,2
INCH
; #@! TA.AperFunction,NonPlated,NPTH,ComponentDrill
T1C0.0354
; #@! TA.AperFunction,NonPlated,NPTH,ComponentDrill
T2C0.1181
; #@! TA.AperFunction,NonPlated,NPTH,ComponentDrill
T3C0.1969
; #@! TA.AperFunction,NonPlated,NPTH,ComponentDrill
T4C0.2244
%
G90
G05
T1
X7.0472Y-2.2516
X7.1654Y-2.2516
T2
X3.9016Y-2.8225
X3.9016Y-3.5705
X3.9016Y-4.3185
X3.9724Y-2.8638
X3.9724Y-3.6118
X3.9724Y-4.3599
X4.1772Y-2.8638
X4.1772Y-3.6118
X4.1772Y-4.3599
X4.248Y-2.8225
X4.248Y-3.5705
X4.248Y-4.3185
X4.6496Y-2.6355
X4.6496Y-3.3835
X4.6496Y-4.1315
X4.7205Y-2.6768
X4.7205Y-3.4248
X4.7205Y-4.1729
X4.9252Y-2.6768
X4.9252Y-3.4248
X4.9252Y-4.1729
X4.9961Y-2.6355
X4.9961Y-3.3835
X4.9961Y-4.1315
X5.3976Y-2.542
X5.3976Y-3.29
X5.3976Y-4.038
X5.4685Y-2.5833
X5.4685Y-3.3313
X5.4685Y-4.0794
X5.6732Y-2.5833
X5.6732Y-3.3313
X5.6732Y-4.0794
X5.7441Y-2.542
X5.7441Y-3.29
X5.7441Y-4.038
X5.7913Y-4.8992
X5.8622Y-4.9406
X6.0669Y-4.9406
X6.1378Y-4.8992
X6.1457Y-2.6355
X6.1457Y-3.3835
X6.1457Y-4.1315
X6.2165Y-2.6768
X6.2165Y-3.4248
X6.2165Y-4.1729
X6.4213Y-2.6768
X6.4213Y-3.4248
X6.4213Y-4.1729
X6.4921Y-2.6355
X6.4921Y-3.3835
X6.4921Y-4.1315
X6.5618Y-4.9576
X6.6195Y-5.0159
X6.8173Y-5.0689
X6.8937Y-2.729
X6.8937Y-3.477
X6.8937Y-4.225
X6.8964Y-5.0473
X6.9646Y-2.7703
X6.9646Y-3.5183
X6.9646Y-4.2664
X7.1693Y-2.7703
X7.1693Y-3.5183
X7.1693Y-4.2664
X7.2402Y-2.729
X7.2402Y-3.477
X7.2402Y-4.225
X7.2959Y-5.2082
X7.3366Y-5.2795
X7.5139Y-5.3818
X7.596Y-5.3815
T3
X4.0748Y-2.6374
X4.0748Y-3.3855
X4.0748Y-4.1335
X4.8228Y-2.4504
X4.8228Y-3.1985
X4.8228Y-3.9465
X5.5709Y-2.3569
X5.5709Y-3.105
X5.5709Y-3.853
X5.9646Y-4.7142
X6.3189Y-2.4504
X6.3189Y-3.1985
X6.3189Y-3.9465
X6.777Y-4.8237
X7.0669Y-2.5439
X7.0669Y-3.292
X7.0669Y-4.04
X7.5385Y-5.1346
T4
X4.4225Y-3.0099
X4.425Y-3.76
X6.7189Y-2.9178
X7.33Y-4.5852
M30
