%TF.GenerationSoftware,KiCad,Pcbnew,8.0.5*%
%TF.CreationDate,2024-10-10T02:33:34+03:00*%
%TF.ProjectId,1_3S,315f3353-2e6b-4696-9361-645f70636258,rev?*%
%TF.SameCoordinates,Original*%
%TF.FileFunction,Drillmap*%
%TF.FilePolarity,Positive*%
%FSLAX45Y45*%
G04 Gerber Fmt 4.5, Leading zero omitted, Abs format (unit mm)*
G04 Created by KiCad (PCBNEW 8.0.5) date 2024-10-10 02:33:34*
%MOMM*%
%LPD*%
G01*
G04 APERTURE LIST*
%ADD10C,0.120000*%
%ADD11C,0.200000*%
%ADD12C,0.100000*%
%ADD13C,0.300000*%
%ADD14C,0.500000*%
%ADD15C,0.570000*%
G04 APERTURE END LIST*
D10*
X21196300Y-5561605D02*
X20780000Y-5561605D01*
X11350000Y-5424098D02*
G75*
G02*
X11450000Y-5324100I100000J-2D01*
G01*
X21196301Y-5561598D02*
G75*
G02*
X21300004Y-5661598I-1J-103772D01*
G01*
X11250000Y-11298385D02*
G75*
G02*
X11150000Y-11398380I-99990J-5D01*
G01*
X11150000Y-11398385D02*
X9548000Y-11399098D01*
X17050805Y-5561893D02*
G75*
G02*
X16949997Y-5490001I-10505J91893D01*
G01*
X17898000Y-13370097D02*
X16060000Y-12874097D01*
X14150000Y-10924099D02*
G75*
G02*
X14250001Y-11024099I0J-100001D01*
G01*
X13250000Y-5191125D02*
G75*
G02*
X13350000Y-5087885I100180J3015D01*
G01*
X21300000Y-5661598D02*
X21300000Y-10998200D01*
X15164850Y-5325889D02*
X16850000Y-5325889D01*
X19520000Y-14201651D02*
G75*
G02*
X19379998Y-14220004I-84530J101651D01*
G01*
X14250000Y-12770000D02*
X14250000Y-11024099D01*
X19380000Y-14220000D02*
X17898000Y-13370097D01*
X16850000Y-5325889D02*
G75*
G02*
X16950002Y-5389999I3620J-104401D01*
G01*
X11450000Y-5324098D02*
X13116350Y-5324748D01*
X17050805Y-5561893D02*
X19320000Y-5561605D01*
X9448000Y-5904481D02*
G75*
G02*
X9553634Y-5799814I103560J1122D01*
G01*
X21196300Y-11315700D02*
X19520000Y-14201651D01*
X11250000Y-11024090D02*
G75*
G02*
X11350000Y-10924090I100010J-10D01*
G01*
X15164850Y-5325889D02*
G75*
G02*
X15049995Y-5251189I-20070J94789D01*
G01*
X9448000Y-11299098D02*
X9448000Y-5904481D01*
X14350000Y-12874071D02*
G75*
G02*
X14249999Y-12770000I40130J138641D01*
G01*
X13350000Y-5087879D02*
X14950000Y-5088169D01*
X11350000Y-5699095D02*
G75*
G02*
X11250000Y-5799090I-100000J5D01*
G01*
X16950000Y-5490000D02*
X16950000Y-5390000D01*
X11250000Y-11298385D02*
X11250000Y-11024090D01*
X14950000Y-5088169D02*
G75*
G02*
X15050001Y-5188336I-80J-100081D01*
G01*
X9548000Y-11399098D02*
G75*
G02*
X9448000Y-11299098I-1J99999D01*
G01*
X9553634Y-5799814D02*
X11250000Y-5799098D01*
X16060000Y-12874097D02*
X14350000Y-12874071D01*
X13250000Y-5191125D02*
G75*
G02*
X13116350Y-5324748I-122930J-10695D01*
G01*
X15050000Y-5188336D02*
X15050000Y-5251188D01*
X14150000Y-10924099D02*
X11350000Y-10924099D01*
X11350000Y-5699095D02*
X11350000Y-5424098D01*
X21300000Y-10998200D02*
G75*
G02*
X21196299Y-11315699I-726000J61440D01*
G01*
X19014400Y-11380600D02*
X19014400Y-8380600D01*
X19114400Y-8280600D02*
X20814400Y-8280600D01*
X20814400Y-11480600D02*
X19114400Y-11480600D01*
X20914400Y-8380600D02*
X20914400Y-11380600D01*
X19014400Y-8380600D02*
G75*
G02*
X19114400Y-8280600I100005J-5D01*
G01*
X19114400Y-11480600D02*
G75*
G02*
X19014400Y-11380600I2J100002D01*
G01*
X20814400Y-8280600D02*
G75*
G02*
X20914400Y-8380600I0J-100000D01*
G01*
X20914400Y-11380600D02*
G75*
G02*
X20814400Y-11480600I-99995J-5D01*
G01*
X19370000Y-5611605D02*
X19370000Y-7591605D01*
X19470000Y-7691605D02*
X20630000Y-7691605D01*
X20730000Y-7591605D02*
X20730000Y-5611605D01*
X19320000Y-5561605D02*
G75*
G02*
X19370000Y-5611605I0J-50000D01*
G01*
X19470000Y-7691605D02*
G75*
G02*
X19370000Y-7591605I0J100000D01*
G01*
X20730000Y-5611605D02*
G75*
G02*
X20780000Y-5561605I50000J0D01*
G01*
X20730000Y-7591605D02*
G75*
G02*
X20630000Y-7691605I-100000J0D01*
G01*
D11*
D12*
X17855000Y-5674097D02*
X17945000Y-5764097D01*
X17945000Y-5674097D02*
X17855000Y-5764097D01*
X18155000Y-5674097D02*
X18245000Y-5764097D01*
X18245000Y-5674097D02*
X18155000Y-5764097D01*
D13*
X10060000Y-7169097D02*
G75*
G02*
X9760000Y-7169097I-150000J0D01*
G01*
X9760000Y-7169097D02*
G75*
G02*
X10060000Y-7169097I150000J0D01*
G01*
X10060000Y-9069097D02*
G75*
G02*
X9760000Y-9069097I-150000J0D01*
G01*
X9760000Y-9069097D02*
G75*
G02*
X10060000Y-9069097I150000J0D01*
G01*
X10060000Y-10969097D02*
G75*
G02*
X9760000Y-10969097I-150000J0D01*
G01*
X9760000Y-10969097D02*
G75*
G02*
X10060000Y-10969097I150000J0D01*
G01*
X10240000Y-7274097D02*
G75*
G02*
X9940000Y-7274097I-150000J0D01*
G01*
X9940000Y-7274097D02*
G75*
G02*
X10240000Y-7274097I150000J0D01*
G01*
X10240000Y-9174097D02*
G75*
G02*
X9940000Y-9174097I-150000J0D01*
G01*
X9940000Y-9174097D02*
G75*
G02*
X10240000Y-9174097I150000J0D01*
G01*
X10240000Y-11074097D02*
G75*
G02*
X9940000Y-11074097I-150000J0D01*
G01*
X9940000Y-11074097D02*
G75*
G02*
X10240000Y-11074097I150000J0D01*
G01*
X10760000Y-7274097D02*
G75*
G02*
X10460000Y-7274097I-150000J0D01*
G01*
X10460000Y-7274097D02*
G75*
G02*
X10760000Y-7274097I150000J0D01*
G01*
X10760000Y-9174097D02*
G75*
G02*
X10460000Y-9174097I-150000J0D01*
G01*
X10460000Y-9174097D02*
G75*
G02*
X10760000Y-9174097I150000J0D01*
G01*
X10760000Y-11074097D02*
G75*
G02*
X10460000Y-11074097I-150000J0D01*
G01*
X10460000Y-11074097D02*
G75*
G02*
X10760000Y-11074097I150000J0D01*
G01*
X10940000Y-7169097D02*
G75*
G02*
X10640000Y-7169097I-150000J0D01*
G01*
X10640000Y-7169097D02*
G75*
G02*
X10940000Y-7169097I150000J0D01*
G01*
X10940000Y-9069097D02*
G75*
G02*
X10640000Y-9069097I-150000J0D01*
G01*
X10640000Y-9069097D02*
G75*
G02*
X10940000Y-9069097I150000J0D01*
G01*
X10940000Y-10969097D02*
G75*
G02*
X10640000Y-10969097I-150000J0D01*
G01*
X10640000Y-10969097D02*
G75*
G02*
X10940000Y-10969097I150000J0D01*
G01*
X11960000Y-6694097D02*
G75*
G02*
X11660000Y-6694097I-150000J0D01*
G01*
X11660000Y-6694097D02*
G75*
G02*
X11960000Y-6694097I150000J0D01*
G01*
X11960000Y-8594097D02*
G75*
G02*
X11660000Y-8594097I-150000J0D01*
G01*
X11660000Y-8594097D02*
G75*
G02*
X11960000Y-8594097I150000J0D01*
G01*
X11960000Y-10494097D02*
G75*
G02*
X11660000Y-10494097I-150000J0D01*
G01*
X11660000Y-10494097D02*
G75*
G02*
X11960000Y-10494097I150000J0D01*
G01*
X12140000Y-6799097D02*
G75*
G02*
X11840000Y-6799097I-150000J0D01*
G01*
X11840000Y-6799097D02*
G75*
G02*
X12140000Y-6799097I150000J0D01*
G01*
X12140000Y-8699097D02*
G75*
G02*
X11840000Y-8699097I-150000J0D01*
G01*
X11840000Y-8699097D02*
G75*
G02*
X12140000Y-8699097I150000J0D01*
G01*
X12140000Y-10599097D02*
G75*
G02*
X11840000Y-10599097I-150000J0D01*
G01*
X11840000Y-10599097D02*
G75*
G02*
X12140000Y-10599097I150000J0D01*
G01*
X12660000Y-6799097D02*
G75*
G02*
X12360000Y-6799097I-150000J0D01*
G01*
X12360000Y-6799097D02*
G75*
G02*
X12660000Y-6799097I150000J0D01*
G01*
X12660000Y-8699097D02*
G75*
G02*
X12360000Y-8699097I-150000J0D01*
G01*
X12360000Y-8699097D02*
G75*
G02*
X12660000Y-8699097I150000J0D01*
G01*
X12660000Y-10599097D02*
G75*
G02*
X12360000Y-10599097I-150000J0D01*
G01*
X12360000Y-10599097D02*
G75*
G02*
X12660000Y-10599097I150000J0D01*
G01*
X12840000Y-6694097D02*
G75*
G02*
X12540000Y-6694097I-150000J0D01*
G01*
X12540000Y-6694097D02*
G75*
G02*
X12840000Y-6694097I150000J0D01*
G01*
X12840000Y-8594097D02*
G75*
G02*
X12540000Y-8594097I-150000J0D01*
G01*
X12540000Y-8594097D02*
G75*
G02*
X12840000Y-8594097I150000J0D01*
G01*
X12840000Y-10494097D02*
G75*
G02*
X12540000Y-10494097I-150000J0D01*
G01*
X12540000Y-10494097D02*
G75*
G02*
X12840000Y-10494097I150000J0D01*
G01*
X13860000Y-6456597D02*
G75*
G02*
X13560000Y-6456597I-150000J0D01*
G01*
X13560000Y-6456597D02*
G75*
G02*
X13860000Y-6456597I150000J0D01*
G01*
X13860000Y-8356597D02*
G75*
G02*
X13560000Y-8356597I-150000J0D01*
G01*
X13560000Y-8356597D02*
G75*
G02*
X13860000Y-8356597I150000J0D01*
G01*
X13860000Y-10256597D02*
G75*
G02*
X13560000Y-10256597I-150000J0D01*
G01*
X13560000Y-10256597D02*
G75*
G02*
X13860000Y-10256597I150000J0D01*
G01*
X14040000Y-6561597D02*
G75*
G02*
X13740000Y-6561597I-150000J0D01*
G01*
X13740000Y-6561597D02*
G75*
G02*
X14040000Y-6561597I150000J0D01*
G01*
X14040000Y-8461597D02*
G75*
G02*
X13740000Y-8461597I-150000J0D01*
G01*
X13740000Y-8461597D02*
G75*
G02*
X14040000Y-8461597I150000J0D01*
G01*
X14040000Y-10361597D02*
G75*
G02*
X13740000Y-10361597I-150000J0D01*
G01*
X13740000Y-10361597D02*
G75*
G02*
X14040000Y-10361597I150000J0D01*
G01*
X14560000Y-6561597D02*
G75*
G02*
X14260000Y-6561597I-150000J0D01*
G01*
X14260000Y-6561597D02*
G75*
G02*
X14560000Y-6561597I150000J0D01*
G01*
X14560000Y-8461597D02*
G75*
G02*
X14260000Y-8461597I-150000J0D01*
G01*
X14260000Y-8461597D02*
G75*
G02*
X14560000Y-8461597I150000J0D01*
G01*
X14560000Y-10361597D02*
G75*
G02*
X14260000Y-10361597I-150000J0D01*
G01*
X14260000Y-10361597D02*
G75*
G02*
X14560000Y-10361597I150000J0D01*
G01*
X14740000Y-6456597D02*
G75*
G02*
X14440000Y-6456597I-150000J0D01*
G01*
X14440000Y-6456597D02*
G75*
G02*
X14740000Y-6456597I150000J0D01*
G01*
X14740000Y-8356597D02*
G75*
G02*
X14440000Y-8356597I-150000J0D01*
G01*
X14440000Y-8356597D02*
G75*
G02*
X14740000Y-8356597I150000J0D01*
G01*
X14740000Y-10256597D02*
G75*
G02*
X14440000Y-10256597I-150000J0D01*
G01*
X14440000Y-10256597D02*
G75*
G02*
X14740000Y-10256597I150000J0D01*
G01*
X14860000Y-12444070D02*
G75*
G02*
X14560000Y-12444070I-150000J0D01*
G01*
X14560000Y-12444070D02*
G75*
G02*
X14860000Y-12444070I150000J0D01*
G01*
X15040000Y-12549070D02*
G75*
G02*
X14740000Y-12549070I-150000J0D01*
G01*
X14740000Y-12549070D02*
G75*
G02*
X15040000Y-12549070I150000J0D01*
G01*
X15560000Y-12549070D02*
G75*
G02*
X15260000Y-12549070I-150000J0D01*
G01*
X15260000Y-12549070D02*
G75*
G02*
X15560000Y-12549070I150000J0D01*
G01*
X15740000Y-12444070D02*
G75*
G02*
X15440000Y-12444070I-150000J0D01*
G01*
X15440000Y-12444070D02*
G75*
G02*
X15740000Y-12444070I150000J0D01*
G01*
X15760000Y-6694097D02*
G75*
G02*
X15460000Y-6694097I-150000J0D01*
G01*
X15460000Y-6694097D02*
G75*
G02*
X15760000Y-6694097I150000J0D01*
G01*
X15760000Y-8594097D02*
G75*
G02*
X15460000Y-8594097I-150000J0D01*
G01*
X15460000Y-8594097D02*
G75*
G02*
X15760000Y-8594097I150000J0D01*
G01*
X15760000Y-10494097D02*
G75*
G02*
X15460000Y-10494097I-150000J0D01*
G01*
X15460000Y-10494097D02*
G75*
G02*
X15760000Y-10494097I150000J0D01*
G01*
X15940000Y-6799097D02*
G75*
G02*
X15640000Y-6799097I-150000J0D01*
G01*
X15640000Y-6799097D02*
G75*
G02*
X15940000Y-6799097I150000J0D01*
G01*
X15940000Y-8699097D02*
G75*
G02*
X15640000Y-8699097I-150000J0D01*
G01*
X15640000Y-8699097D02*
G75*
G02*
X15940000Y-8699097I150000J0D01*
G01*
X15940000Y-10599097D02*
G75*
G02*
X15640000Y-10599097I-150000J0D01*
G01*
X15640000Y-10599097D02*
G75*
G02*
X15940000Y-10599097I150000J0D01*
G01*
X16460000Y-6799097D02*
G75*
G02*
X16160000Y-6799097I-150000J0D01*
G01*
X16160000Y-6799097D02*
G75*
G02*
X16460000Y-6799097I150000J0D01*
G01*
X16460000Y-8699097D02*
G75*
G02*
X16160000Y-8699097I-150000J0D01*
G01*
X16160000Y-8699097D02*
G75*
G02*
X16460000Y-8699097I150000J0D01*
G01*
X16460000Y-10599097D02*
G75*
G02*
X16160000Y-10599097I-150000J0D01*
G01*
X16160000Y-10599097D02*
G75*
G02*
X16460000Y-10599097I150000J0D01*
G01*
X16640000Y-6694097D02*
G75*
G02*
X16340000Y-6694097I-150000J0D01*
G01*
X16340000Y-6694097D02*
G75*
G02*
X16640000Y-6694097I150000J0D01*
G01*
X16640000Y-8594097D02*
G75*
G02*
X16340000Y-8594097I-150000J0D01*
G01*
X16340000Y-8594097D02*
G75*
G02*
X16640000Y-8594097I150000J0D01*
G01*
X16640000Y-10494097D02*
G75*
G02*
X16340000Y-10494097I-150000J0D01*
G01*
X16340000Y-10494097D02*
G75*
G02*
X16640000Y-10494097I150000J0D01*
G01*
X16816855Y-12592423D02*
G75*
G02*
X16516855Y-12592423I-150000J0D01*
G01*
X16516855Y-12592423D02*
G75*
G02*
X16816855Y-12592423I150000J0D01*
G01*
X16963546Y-12740433D02*
G75*
G02*
X16663546Y-12740433I-150000J0D01*
G01*
X16663546Y-12740433D02*
G75*
G02*
X16963546Y-12740433I150000J0D01*
G01*
X17465827Y-12875019D02*
G75*
G02*
X17165827Y-12875019I-150000J0D01*
G01*
X17165827Y-12875019D02*
G75*
G02*
X17465827Y-12875019I150000J0D01*
G01*
X17660000Y-6931597D02*
G75*
G02*
X17360000Y-6931597I-150000J0D01*
G01*
X17360000Y-6931597D02*
G75*
G02*
X17660000Y-6931597I150000J0D01*
G01*
X17660000Y-8831597D02*
G75*
G02*
X17360000Y-8831597I-150000J0D01*
G01*
X17360000Y-8831597D02*
G75*
G02*
X17660000Y-8831597I150000J0D01*
G01*
X17660000Y-10731597D02*
G75*
G02*
X17360000Y-10731597I-150000J0D01*
G01*
X17360000Y-10731597D02*
G75*
G02*
X17660000Y-10731597I150000J0D01*
G01*
X17666870Y-12820184D02*
G75*
G02*
X17366870Y-12820184I-150000J0D01*
G01*
X17366870Y-12820184D02*
G75*
G02*
X17666870Y-12820184I150000J0D01*
G01*
X17840000Y-7036597D02*
G75*
G02*
X17540000Y-7036597I-150000J0D01*
G01*
X17540000Y-7036597D02*
G75*
G02*
X17840000Y-7036597I150000J0D01*
G01*
X17840000Y-8936597D02*
G75*
G02*
X17540000Y-8936597I-150000J0D01*
G01*
X17540000Y-8936597D02*
G75*
G02*
X17840000Y-8936597I150000J0D01*
G01*
X17840000Y-10836597D02*
G75*
G02*
X17540000Y-10836597I-150000J0D01*
G01*
X17540000Y-10836597D02*
G75*
G02*
X17840000Y-10836597I150000J0D01*
G01*
X18360000Y-7036597D02*
G75*
G02*
X18060000Y-7036597I-150000J0D01*
G01*
X18060000Y-7036597D02*
G75*
G02*
X18360000Y-7036597I150000J0D01*
G01*
X18360000Y-8936597D02*
G75*
G02*
X18060000Y-8936597I-150000J0D01*
G01*
X18060000Y-8936597D02*
G75*
G02*
X18360000Y-8936597I150000J0D01*
G01*
X18360000Y-10836597D02*
G75*
G02*
X18060000Y-10836597I-150000J0D01*
G01*
X18060000Y-10836597D02*
G75*
G02*
X18360000Y-10836597I150000J0D01*
G01*
X18540000Y-6931597D02*
G75*
G02*
X18240000Y-6931597I-150000J0D01*
G01*
X18240000Y-6931597D02*
G75*
G02*
X18540000Y-6931597I150000J0D01*
G01*
X18540000Y-8831597D02*
G75*
G02*
X18240000Y-8831597I-150000J0D01*
G01*
X18240000Y-8831597D02*
G75*
G02*
X18540000Y-8831597I150000J0D01*
G01*
X18540000Y-10731597D02*
G75*
G02*
X18240000Y-10731597I-150000J0D01*
G01*
X18240000Y-10731597D02*
G75*
G02*
X18540000Y-10731597I150000J0D01*
G01*
X18681675Y-13228949D02*
G75*
G02*
X18381675Y-13228949I-150000J0D01*
G01*
X18381675Y-13228949D02*
G75*
G02*
X18681675Y-13228949I150000J0D01*
G01*
X18785060Y-13409882D02*
G75*
G02*
X18485060Y-13409882I-150000J0D01*
G01*
X18485060Y-13409882D02*
G75*
G02*
X18785060Y-13409882I150000J0D01*
G01*
X19235393Y-13669882D02*
G75*
G02*
X18935393Y-13669882I-150000J0D01*
G01*
X18935393Y-13669882D02*
G75*
G02*
X19235393Y-13669882I150000J0D01*
G01*
X19443778Y-13668949D02*
G75*
G02*
X19143778Y-13668949I-150000J0D01*
G01*
X19143778Y-13668949D02*
G75*
G02*
X19443778Y-13668949I150000J0D01*
G01*
D14*
X10350000Y-6449097D02*
X10350000Y-6949097D01*
X10100000Y-6699097D02*
X10600000Y-6699097D01*
X10350000Y-8349097D02*
X10350000Y-8849097D01*
X10100000Y-8599097D02*
X10600000Y-8599097D01*
X10350000Y-10249097D02*
X10350000Y-10749097D01*
X10100000Y-10499097D02*
X10600000Y-10499097D01*
X12250000Y-5974097D02*
X12250000Y-6474097D01*
X12000000Y-6224097D02*
X12500000Y-6224097D01*
X12250000Y-7874097D02*
X12250000Y-8374097D01*
X12000000Y-8124097D02*
X12500000Y-8124097D01*
X12250000Y-9774097D02*
X12250000Y-10274097D01*
X12000000Y-10024097D02*
X12500000Y-10024097D01*
X14150000Y-5736597D02*
X14150000Y-6236597D01*
X13900000Y-5986597D02*
X14400000Y-5986597D01*
X14150000Y-7636597D02*
X14150000Y-8136597D01*
X13900000Y-7886597D02*
X14400000Y-7886597D01*
X14150000Y-9536597D02*
X14150000Y-10036597D01*
X13900000Y-9786597D02*
X14400000Y-9786597D01*
X15150000Y-11724070D02*
X15150000Y-12224070D01*
X14900000Y-11974070D02*
X15400000Y-11974070D01*
X16050000Y-5974097D02*
X16050000Y-6474097D01*
X15800000Y-6224097D02*
X16300000Y-6224097D01*
X16050000Y-7874097D02*
X16050000Y-8374097D01*
X15800000Y-8124097D02*
X16300000Y-8124097D01*
X16050000Y-9774097D02*
X16050000Y-10274097D01*
X15800000Y-10024097D02*
X16300000Y-10024097D01*
X17213508Y-12002319D02*
X17213508Y-12502319D01*
X16963508Y-12252319D02*
X17463508Y-12252319D01*
X17950000Y-6211597D02*
X17950000Y-6711597D01*
X17700000Y-6461597D02*
X18200000Y-6461597D01*
X17950000Y-8111597D02*
X17950000Y-8611597D01*
X17700000Y-8361597D02*
X18200000Y-8361597D01*
X17950000Y-10011597D02*
X17950000Y-10511597D01*
X17700000Y-10261597D02*
X18200000Y-10261597D01*
X19147726Y-12791917D02*
X19147726Y-13291917D01*
X18897726Y-13041917D02*
X19397726Y-13041917D01*
D15*
X11434571Y-7846714D02*
X11434571Y-7443659D01*
X11031516Y-7443659D01*
X11031516Y-7846714D01*
X11434571Y-7846714D01*
X11441027Y-9751927D02*
X11441027Y-9348873D01*
X11037973Y-9348873D01*
X11037973Y-9751927D01*
X11441027Y-9751927D01*
X17267440Y-7612745D02*
X17267440Y-7209690D01*
X16864385Y-7209690D01*
X16864385Y-7612745D01*
X17267440Y-7612745D01*
X18819743Y-11847841D02*
X18819743Y-11444786D01*
X18416688Y-11444786D01*
X18416688Y-11847841D01*
X18819743Y-11847841D01*
D11*
X9702771Y-14549689D02*
X9702771Y-14349689D01*
X9702771Y-14349689D02*
X9750390Y-14349689D01*
X9750390Y-14349689D02*
X9778961Y-14359213D01*
X9778961Y-14359213D02*
X9798009Y-14378260D01*
X9798009Y-14378260D02*
X9807533Y-14397308D01*
X9807533Y-14397308D02*
X9817057Y-14435403D01*
X9817057Y-14435403D02*
X9817057Y-14463975D01*
X9817057Y-14463975D02*
X9807533Y-14502070D01*
X9807533Y-14502070D02*
X9798009Y-14521117D01*
X9798009Y-14521117D02*
X9778961Y-14540165D01*
X9778961Y-14540165D02*
X9750390Y-14549689D01*
X9750390Y-14549689D02*
X9702771Y-14549689D01*
X9902771Y-14549689D02*
X9902771Y-14416356D01*
X9902771Y-14454451D02*
X9912295Y-14435403D01*
X9912295Y-14435403D02*
X9921818Y-14425879D01*
X9921818Y-14425879D02*
X9940866Y-14416356D01*
X9940866Y-14416356D02*
X9959914Y-14416356D01*
X10026580Y-14549689D02*
X10026580Y-14416356D01*
X10026580Y-14349689D02*
X10017057Y-14359213D01*
X10017057Y-14359213D02*
X10026580Y-14368737D01*
X10026580Y-14368737D02*
X10036104Y-14359213D01*
X10036104Y-14359213D02*
X10026580Y-14349689D01*
X10026580Y-14349689D02*
X10026580Y-14368737D01*
X10150390Y-14549689D02*
X10131342Y-14540165D01*
X10131342Y-14540165D02*
X10121818Y-14521117D01*
X10121818Y-14521117D02*
X10121818Y-14349689D01*
X10255152Y-14549689D02*
X10236104Y-14540165D01*
X10236104Y-14540165D02*
X10226580Y-14521117D01*
X10226580Y-14521117D02*
X10226580Y-14349689D01*
X10483723Y-14549689D02*
X10483723Y-14349689D01*
X10483723Y-14349689D02*
X10550390Y-14492546D01*
X10550390Y-14492546D02*
X10617057Y-14349689D01*
X10617057Y-14349689D02*
X10617057Y-14549689D01*
X10798009Y-14549689D02*
X10798009Y-14444927D01*
X10798009Y-14444927D02*
X10788485Y-14425879D01*
X10788485Y-14425879D02*
X10769438Y-14416356D01*
X10769438Y-14416356D02*
X10731342Y-14416356D01*
X10731342Y-14416356D02*
X10712295Y-14425879D01*
X10798009Y-14540165D02*
X10778961Y-14549689D01*
X10778961Y-14549689D02*
X10731342Y-14549689D01*
X10731342Y-14549689D02*
X10712295Y-14540165D01*
X10712295Y-14540165D02*
X10702771Y-14521117D01*
X10702771Y-14521117D02*
X10702771Y-14502070D01*
X10702771Y-14502070D02*
X10712295Y-14483022D01*
X10712295Y-14483022D02*
X10731342Y-14473498D01*
X10731342Y-14473498D02*
X10778961Y-14473498D01*
X10778961Y-14473498D02*
X10798009Y-14463975D01*
X10893247Y-14416356D02*
X10893247Y-14616356D01*
X10893247Y-14425879D02*
X10912295Y-14416356D01*
X10912295Y-14416356D02*
X10950390Y-14416356D01*
X10950390Y-14416356D02*
X10969438Y-14425879D01*
X10969438Y-14425879D02*
X10978961Y-14435403D01*
X10978961Y-14435403D02*
X10988485Y-14454451D01*
X10988485Y-14454451D02*
X10988485Y-14511594D01*
X10988485Y-14511594D02*
X10978961Y-14530641D01*
X10978961Y-14530641D02*
X10969438Y-14540165D01*
X10969438Y-14540165D02*
X10950390Y-14549689D01*
X10950390Y-14549689D02*
X10912295Y-14549689D01*
X10912295Y-14549689D02*
X10893247Y-14540165D01*
X11074199Y-14530641D02*
X11083723Y-14540165D01*
X11083723Y-14540165D02*
X11074199Y-14549689D01*
X11074199Y-14549689D02*
X11064676Y-14540165D01*
X11064676Y-14540165D02*
X11074199Y-14530641D01*
X11074199Y-14530641D02*
X11074199Y-14549689D01*
X11074199Y-14425879D02*
X11083723Y-14435403D01*
X11083723Y-14435403D02*
X11074199Y-14444927D01*
X11074199Y-14444927D02*
X11064676Y-14435403D01*
X11064676Y-14435403D02*
X11074199Y-14425879D01*
X11074199Y-14425879D02*
X11074199Y-14444927D01*
D12*
X9351994Y-14833205D02*
X9441994Y-14923205D01*
X9441994Y-14833205D02*
X9351994Y-14923205D01*
D11*
X9740866Y-14769689D02*
X9759914Y-14769689D01*
X9759914Y-14769689D02*
X9778961Y-14779213D01*
X9778961Y-14779213D02*
X9788485Y-14788737D01*
X9788485Y-14788737D02*
X9798009Y-14807784D01*
X9798009Y-14807784D02*
X9807533Y-14845879D01*
X9807533Y-14845879D02*
X9807533Y-14893498D01*
X9807533Y-14893498D02*
X9798009Y-14931594D01*
X9798009Y-14931594D02*
X9788485Y-14950641D01*
X9788485Y-14950641D02*
X9778961Y-14960165D01*
X9778961Y-14960165D02*
X9759914Y-14969689D01*
X9759914Y-14969689D02*
X9740866Y-14969689D01*
X9740866Y-14969689D02*
X9721818Y-14960165D01*
X9721818Y-14960165D02*
X9712295Y-14950641D01*
X9712295Y-14950641D02*
X9702771Y-14931594D01*
X9702771Y-14931594D02*
X9693247Y-14893498D01*
X9693247Y-14893498D02*
X9693247Y-14845879D01*
X9693247Y-14845879D02*
X9702771Y-14807784D01*
X9702771Y-14807784D02*
X9712295Y-14788737D01*
X9712295Y-14788737D02*
X9721818Y-14779213D01*
X9721818Y-14779213D02*
X9740866Y-14769689D01*
X9893247Y-14950641D02*
X9902771Y-14960165D01*
X9902771Y-14960165D02*
X9893247Y-14969689D01*
X9893247Y-14969689D02*
X9883723Y-14960165D01*
X9883723Y-14960165D02*
X9893247Y-14950641D01*
X9893247Y-14950641D02*
X9893247Y-14969689D01*
X9998009Y-14969689D02*
X10036104Y-14969689D01*
X10036104Y-14969689D02*
X10055152Y-14960165D01*
X10055152Y-14960165D02*
X10064676Y-14950641D01*
X10064676Y-14950641D02*
X10083723Y-14922070D01*
X10083723Y-14922070D02*
X10093247Y-14883975D01*
X10093247Y-14883975D02*
X10093247Y-14807784D01*
X10093247Y-14807784D02*
X10083723Y-14788737D01*
X10083723Y-14788737D02*
X10074199Y-14779213D01*
X10074199Y-14779213D02*
X10055152Y-14769689D01*
X10055152Y-14769689D02*
X10017057Y-14769689D01*
X10017057Y-14769689D02*
X9998009Y-14779213D01*
X9998009Y-14779213D02*
X9988485Y-14788737D01*
X9988485Y-14788737D02*
X9978961Y-14807784D01*
X9978961Y-14807784D02*
X9978961Y-14855403D01*
X9978961Y-14855403D02*
X9988485Y-14874451D01*
X9988485Y-14874451D02*
X9998009Y-14883975D01*
X9998009Y-14883975D02*
X10017057Y-14893498D01*
X10017057Y-14893498D02*
X10055152Y-14893498D01*
X10055152Y-14893498D02*
X10074199Y-14883975D01*
X10074199Y-14883975D02*
X10083723Y-14874451D01*
X10083723Y-14874451D02*
X10093247Y-14855403D01*
X10217057Y-14769689D02*
X10236104Y-14769689D01*
X10236104Y-14769689D02*
X10255152Y-14779213D01*
X10255152Y-14779213D02*
X10264676Y-14788737D01*
X10264676Y-14788737D02*
X10274199Y-14807784D01*
X10274199Y-14807784D02*
X10283723Y-14845879D01*
X10283723Y-14845879D02*
X10283723Y-14893498D01*
X10283723Y-14893498D02*
X10274199Y-14931594D01*
X10274199Y-14931594D02*
X10264676Y-14950641D01*
X10264676Y-14950641D02*
X10255152Y-14960165D01*
X10255152Y-14960165D02*
X10236104Y-14969689D01*
X10236104Y-14969689D02*
X10217057Y-14969689D01*
X10217057Y-14969689D02*
X10198009Y-14960165D01*
X10198009Y-14960165D02*
X10188485Y-14950641D01*
X10188485Y-14950641D02*
X10178961Y-14931594D01*
X10178961Y-14931594D02*
X10169438Y-14893498D01*
X10169438Y-14893498D02*
X10169438Y-14845879D01*
X10169438Y-14845879D02*
X10178961Y-14807784D01*
X10178961Y-14807784D02*
X10188485Y-14788737D01*
X10188485Y-14788737D02*
X10198009Y-14779213D01*
X10198009Y-14779213D02*
X10217057Y-14769689D01*
X10407533Y-14769689D02*
X10426580Y-14769689D01*
X10426580Y-14769689D02*
X10445628Y-14779213D01*
X10445628Y-14779213D02*
X10455152Y-14788737D01*
X10455152Y-14788737D02*
X10464676Y-14807784D01*
X10464676Y-14807784D02*
X10474199Y-14845879D01*
X10474199Y-14845879D02*
X10474199Y-14893498D01*
X10474199Y-14893498D02*
X10464676Y-14931594D01*
X10464676Y-14931594D02*
X10455152Y-14950641D01*
X10455152Y-14950641D02*
X10445628Y-14960165D01*
X10445628Y-14960165D02*
X10426580Y-14969689D01*
X10426580Y-14969689D02*
X10407533Y-14969689D01*
X10407533Y-14969689D02*
X10388485Y-14960165D01*
X10388485Y-14960165D02*
X10378961Y-14950641D01*
X10378961Y-14950641D02*
X10369438Y-14931594D01*
X10369438Y-14931594D02*
X10359914Y-14893498D01*
X10359914Y-14893498D02*
X10359914Y-14845879D01*
X10359914Y-14845879D02*
X10369438Y-14807784D01*
X10369438Y-14807784D02*
X10378961Y-14788737D01*
X10378961Y-14788737D02*
X10388485Y-14779213D01*
X10388485Y-14779213D02*
X10407533Y-14769689D01*
X10559914Y-14969689D02*
X10559914Y-14836356D01*
X10559914Y-14855403D02*
X10569438Y-14845879D01*
X10569438Y-14845879D02*
X10588485Y-14836356D01*
X10588485Y-14836356D02*
X10617057Y-14836356D01*
X10617057Y-14836356D02*
X10636104Y-14845879D01*
X10636104Y-14845879D02*
X10645628Y-14864927D01*
X10645628Y-14864927D02*
X10645628Y-14969689D01*
X10645628Y-14864927D02*
X10655152Y-14845879D01*
X10655152Y-14845879D02*
X10674199Y-14836356D01*
X10674199Y-14836356D02*
X10702771Y-14836356D01*
X10702771Y-14836356D02*
X10721819Y-14845879D01*
X10721819Y-14845879D02*
X10731342Y-14864927D01*
X10731342Y-14864927D02*
X10731342Y-14969689D01*
X10826580Y-14969689D02*
X10826580Y-14836356D01*
X10826580Y-14855403D02*
X10836104Y-14845879D01*
X10836104Y-14845879D02*
X10855152Y-14836356D01*
X10855152Y-14836356D02*
X10883723Y-14836356D01*
X10883723Y-14836356D02*
X10902771Y-14845879D01*
X10902771Y-14845879D02*
X10912295Y-14864927D01*
X10912295Y-14864927D02*
X10912295Y-14969689D01*
X10912295Y-14864927D02*
X10921819Y-14845879D01*
X10921819Y-14845879D02*
X10940866Y-14836356D01*
X10940866Y-14836356D02*
X10969438Y-14836356D01*
X10969438Y-14836356D02*
X10988485Y-14845879D01*
X10988485Y-14845879D02*
X10998009Y-14864927D01*
X10998009Y-14864927D02*
X10998009Y-14969689D01*
X11388485Y-14760165D02*
X11217057Y-15017308D01*
X11645628Y-14769689D02*
X11664676Y-14769689D01*
X11664676Y-14769689D02*
X11683723Y-14779213D01*
X11683723Y-14779213D02*
X11693247Y-14788737D01*
X11693247Y-14788737D02*
X11702771Y-14807784D01*
X11702771Y-14807784D02*
X11712295Y-14845879D01*
X11712295Y-14845879D02*
X11712295Y-14893498D01*
X11712295Y-14893498D02*
X11702771Y-14931594D01*
X11702771Y-14931594D02*
X11693247Y-14950641D01*
X11693247Y-14950641D02*
X11683723Y-14960165D01*
X11683723Y-14960165D02*
X11664676Y-14969689D01*
X11664676Y-14969689D02*
X11645628Y-14969689D01*
X11645628Y-14969689D02*
X11626580Y-14960165D01*
X11626580Y-14960165D02*
X11617057Y-14950641D01*
X11617057Y-14950641D02*
X11607533Y-14931594D01*
X11607533Y-14931594D02*
X11598009Y-14893498D01*
X11598009Y-14893498D02*
X11598009Y-14845879D01*
X11598009Y-14845879D02*
X11607533Y-14807784D01*
X11607533Y-14807784D02*
X11617057Y-14788737D01*
X11617057Y-14788737D02*
X11626580Y-14779213D01*
X11626580Y-14779213D02*
X11645628Y-14769689D01*
X11798009Y-14950641D02*
X11807533Y-14960165D01*
X11807533Y-14960165D02*
X11798009Y-14969689D01*
X11798009Y-14969689D02*
X11788485Y-14960165D01*
X11788485Y-14960165D02*
X11798009Y-14950641D01*
X11798009Y-14950641D02*
X11798009Y-14969689D01*
X11931342Y-14769689D02*
X11950390Y-14769689D01*
X11950390Y-14769689D02*
X11969438Y-14779213D01*
X11969438Y-14779213D02*
X11978961Y-14788737D01*
X11978961Y-14788737D02*
X11988485Y-14807784D01*
X11988485Y-14807784D02*
X11998009Y-14845879D01*
X11998009Y-14845879D02*
X11998009Y-14893498D01*
X11998009Y-14893498D02*
X11988485Y-14931594D01*
X11988485Y-14931594D02*
X11978961Y-14950641D01*
X11978961Y-14950641D02*
X11969438Y-14960165D01*
X11969438Y-14960165D02*
X11950390Y-14969689D01*
X11950390Y-14969689D02*
X11931342Y-14969689D01*
X11931342Y-14969689D02*
X11912295Y-14960165D01*
X11912295Y-14960165D02*
X11902771Y-14950641D01*
X11902771Y-14950641D02*
X11893247Y-14931594D01*
X11893247Y-14931594D02*
X11883723Y-14893498D01*
X11883723Y-14893498D02*
X11883723Y-14845879D01*
X11883723Y-14845879D02*
X11893247Y-14807784D01*
X11893247Y-14807784D02*
X11902771Y-14788737D01*
X11902771Y-14788737D02*
X11912295Y-14779213D01*
X11912295Y-14779213D02*
X11931342Y-14769689D01*
X12064676Y-14769689D02*
X12188485Y-14769689D01*
X12188485Y-14769689D02*
X12121819Y-14845879D01*
X12121819Y-14845879D02*
X12150390Y-14845879D01*
X12150390Y-14845879D02*
X12169438Y-14855403D01*
X12169438Y-14855403D02*
X12178961Y-14864927D01*
X12178961Y-14864927D02*
X12188485Y-14883975D01*
X12188485Y-14883975D02*
X12188485Y-14931594D01*
X12188485Y-14931594D02*
X12178961Y-14950641D01*
X12178961Y-14950641D02*
X12169438Y-14960165D01*
X12169438Y-14960165D02*
X12150390Y-14969689D01*
X12150390Y-14969689D02*
X12093247Y-14969689D01*
X12093247Y-14969689D02*
X12074200Y-14960165D01*
X12074200Y-14960165D02*
X12064676Y-14950641D01*
X12369438Y-14769689D02*
X12274200Y-14769689D01*
X12274200Y-14769689D02*
X12264676Y-14864927D01*
X12264676Y-14864927D02*
X12274200Y-14855403D01*
X12274200Y-14855403D02*
X12293247Y-14845879D01*
X12293247Y-14845879D02*
X12340866Y-14845879D01*
X12340866Y-14845879D02*
X12359914Y-14855403D01*
X12359914Y-14855403D02*
X12369438Y-14864927D01*
X12369438Y-14864927D02*
X12378961Y-14883975D01*
X12378961Y-14883975D02*
X12378961Y-14931594D01*
X12378961Y-14931594D02*
X12369438Y-14950641D01*
X12369438Y-14950641D02*
X12359914Y-14960165D01*
X12359914Y-14960165D02*
X12340866Y-14969689D01*
X12340866Y-14969689D02*
X12293247Y-14969689D01*
X12293247Y-14969689D02*
X12274200Y-14960165D01*
X12274200Y-14960165D02*
X12264676Y-14950641D01*
X12550390Y-14836356D02*
X12550390Y-14969689D01*
X12502771Y-14760165D02*
X12455152Y-14903022D01*
X12455152Y-14903022D02*
X12578961Y-14903022D01*
X12645628Y-14769689D02*
X12645628Y-14807784D01*
X12721819Y-14769689D02*
X12721819Y-14807784D01*
X13017057Y-15045879D02*
X13007533Y-15036356D01*
X13007533Y-15036356D02*
X12988485Y-15007784D01*
X12988485Y-15007784D02*
X12978962Y-14988737D01*
X12978962Y-14988737D02*
X12969438Y-14960165D01*
X12969438Y-14960165D02*
X12959914Y-14912546D01*
X12959914Y-14912546D02*
X12959914Y-14874451D01*
X12959914Y-14874451D02*
X12969438Y-14826832D01*
X12969438Y-14826832D02*
X12978962Y-14798260D01*
X12978962Y-14798260D02*
X12988485Y-14779213D01*
X12988485Y-14779213D02*
X13007533Y-14750641D01*
X13007533Y-14750641D02*
X13017057Y-14741117D01*
X13083723Y-14788737D02*
X13093247Y-14779213D01*
X13093247Y-14779213D02*
X13112295Y-14769689D01*
X13112295Y-14769689D02*
X13159914Y-14769689D01*
X13159914Y-14769689D02*
X13178962Y-14779213D01*
X13178962Y-14779213D02*
X13188485Y-14788737D01*
X13188485Y-14788737D02*
X13198009Y-14807784D01*
X13198009Y-14807784D02*
X13198009Y-14826832D01*
X13198009Y-14826832D02*
X13188485Y-14855403D01*
X13188485Y-14855403D02*
X13074200Y-14969689D01*
X13074200Y-14969689D02*
X13198009Y-14969689D01*
X13436104Y-14969689D02*
X13436104Y-14769689D01*
X13521819Y-14969689D02*
X13521819Y-14864927D01*
X13521819Y-14864927D02*
X13512295Y-14845879D01*
X13512295Y-14845879D02*
X13493247Y-14836356D01*
X13493247Y-14836356D02*
X13464676Y-14836356D01*
X13464676Y-14836356D02*
X13445628Y-14845879D01*
X13445628Y-14845879D02*
X13436104Y-14855403D01*
X13645628Y-14969689D02*
X13626581Y-14960165D01*
X13626581Y-14960165D02*
X13617057Y-14950641D01*
X13617057Y-14950641D02*
X13607533Y-14931594D01*
X13607533Y-14931594D02*
X13607533Y-14874451D01*
X13607533Y-14874451D02*
X13617057Y-14855403D01*
X13617057Y-14855403D02*
X13626581Y-14845879D01*
X13626581Y-14845879D02*
X13645628Y-14836356D01*
X13645628Y-14836356D02*
X13674200Y-14836356D01*
X13674200Y-14836356D02*
X13693247Y-14845879D01*
X13693247Y-14845879D02*
X13702771Y-14855403D01*
X13702771Y-14855403D02*
X13712295Y-14874451D01*
X13712295Y-14874451D02*
X13712295Y-14931594D01*
X13712295Y-14931594D02*
X13702771Y-14950641D01*
X13702771Y-14950641D02*
X13693247Y-14960165D01*
X13693247Y-14960165D02*
X13674200Y-14969689D01*
X13674200Y-14969689D02*
X13645628Y-14969689D01*
X13826581Y-14969689D02*
X13807533Y-14960165D01*
X13807533Y-14960165D02*
X13798009Y-14941117D01*
X13798009Y-14941117D02*
X13798009Y-14769689D01*
X13978962Y-14960165D02*
X13959914Y-14969689D01*
X13959914Y-14969689D02*
X13921819Y-14969689D01*
X13921819Y-14969689D02*
X13902771Y-14960165D01*
X13902771Y-14960165D02*
X13893247Y-14941117D01*
X13893247Y-14941117D02*
X13893247Y-14864927D01*
X13893247Y-14864927D02*
X13902771Y-14845879D01*
X13902771Y-14845879D02*
X13921819Y-14836356D01*
X13921819Y-14836356D02*
X13959914Y-14836356D01*
X13959914Y-14836356D02*
X13978962Y-14845879D01*
X13978962Y-14845879D02*
X13988485Y-14864927D01*
X13988485Y-14864927D02*
X13988485Y-14883975D01*
X13988485Y-14883975D02*
X13893247Y-14903022D01*
X14064676Y-14960165D02*
X14083724Y-14969689D01*
X14083724Y-14969689D02*
X14121819Y-14969689D01*
X14121819Y-14969689D02*
X14140866Y-14960165D01*
X14140866Y-14960165D02*
X14150390Y-14941117D01*
X14150390Y-14941117D02*
X14150390Y-14931594D01*
X14150390Y-14931594D02*
X14140866Y-14912546D01*
X14140866Y-14912546D02*
X14121819Y-14903022D01*
X14121819Y-14903022D02*
X14093247Y-14903022D01*
X14093247Y-14903022D02*
X14074200Y-14893498D01*
X14074200Y-14893498D02*
X14064676Y-14874451D01*
X14064676Y-14874451D02*
X14064676Y-14864927D01*
X14064676Y-14864927D02*
X14074200Y-14845879D01*
X14074200Y-14845879D02*
X14093247Y-14836356D01*
X14093247Y-14836356D02*
X14121819Y-14836356D01*
X14121819Y-14836356D02*
X14140866Y-14845879D01*
X14217057Y-15045879D02*
X14226581Y-15036356D01*
X14226581Y-15036356D02*
X14245628Y-15007784D01*
X14245628Y-15007784D02*
X14255152Y-14988737D01*
X14255152Y-14988737D02*
X14264676Y-14960165D01*
X14264676Y-14960165D02*
X14274200Y-14912546D01*
X14274200Y-14912546D02*
X14274200Y-14874451D01*
X14274200Y-14874451D02*
X14264676Y-14826832D01*
X14264676Y-14826832D02*
X14255152Y-14798260D01*
X14255152Y-14798260D02*
X14245628Y-14779213D01*
X14245628Y-14779213D02*
X14226581Y-14750641D01*
X14226581Y-14750641D02*
X14217057Y-14741117D01*
X14578962Y-15045879D02*
X14569438Y-15036356D01*
X14569438Y-15036356D02*
X14550390Y-15007784D01*
X14550390Y-15007784D02*
X14540866Y-14988737D01*
X14540866Y-14988737D02*
X14531343Y-14960165D01*
X14531343Y-14960165D02*
X14521819Y-14912546D01*
X14521819Y-14912546D02*
X14521819Y-14874451D01*
X14521819Y-14874451D02*
X14531343Y-14826832D01*
X14531343Y-14826832D02*
X14540866Y-14798260D01*
X14540866Y-14798260D02*
X14550390Y-14779213D01*
X14550390Y-14779213D02*
X14569438Y-14750641D01*
X14569438Y-14750641D02*
X14578962Y-14741117D01*
X14655152Y-14836356D02*
X14655152Y-14969689D01*
X14655152Y-14855403D02*
X14664676Y-14845879D01*
X14664676Y-14845879D02*
X14683724Y-14836356D01*
X14683724Y-14836356D02*
X14712295Y-14836356D01*
X14712295Y-14836356D02*
X14731343Y-14845879D01*
X14731343Y-14845879D02*
X14740866Y-14864927D01*
X14740866Y-14864927D02*
X14740866Y-14969689D01*
X14864676Y-14969689D02*
X14845628Y-14960165D01*
X14845628Y-14960165D02*
X14836105Y-14950641D01*
X14836105Y-14950641D02*
X14826581Y-14931594D01*
X14826581Y-14931594D02*
X14826581Y-14874451D01*
X14826581Y-14874451D02*
X14836105Y-14855403D01*
X14836105Y-14855403D02*
X14845628Y-14845879D01*
X14845628Y-14845879D02*
X14864676Y-14836356D01*
X14864676Y-14836356D02*
X14893247Y-14836356D01*
X14893247Y-14836356D02*
X14912295Y-14845879D01*
X14912295Y-14845879D02*
X14921819Y-14855403D01*
X14921819Y-14855403D02*
X14931343Y-14874451D01*
X14931343Y-14874451D02*
X14931343Y-14931594D01*
X14931343Y-14931594D02*
X14921819Y-14950641D01*
X14921819Y-14950641D02*
X14912295Y-14960165D01*
X14912295Y-14960165D02*
X14893247Y-14969689D01*
X14893247Y-14969689D02*
X14864676Y-14969689D01*
X14988486Y-14836356D02*
X15064676Y-14836356D01*
X15017057Y-14769689D02*
X15017057Y-14941117D01*
X15017057Y-14941117D02*
X15026581Y-14960165D01*
X15026581Y-14960165D02*
X15045628Y-14969689D01*
X15045628Y-14969689D02*
X15064676Y-14969689D01*
X15283724Y-14836356D02*
X15283724Y-15036356D01*
X15283724Y-14845879D02*
X15302771Y-14836356D01*
X15302771Y-14836356D02*
X15340867Y-14836356D01*
X15340867Y-14836356D02*
X15359914Y-14845879D01*
X15359914Y-14845879D02*
X15369438Y-14855403D01*
X15369438Y-14855403D02*
X15378962Y-14874451D01*
X15378962Y-14874451D02*
X15378962Y-14931594D01*
X15378962Y-14931594D02*
X15369438Y-14950641D01*
X15369438Y-14950641D02*
X15359914Y-14960165D01*
X15359914Y-14960165D02*
X15340867Y-14969689D01*
X15340867Y-14969689D02*
X15302771Y-14969689D01*
X15302771Y-14969689D02*
X15283724Y-14960165D01*
X15493247Y-14969689D02*
X15474200Y-14960165D01*
X15474200Y-14960165D02*
X15464676Y-14941117D01*
X15464676Y-14941117D02*
X15464676Y-14769689D01*
X15655152Y-14969689D02*
X15655152Y-14864927D01*
X15655152Y-14864927D02*
X15645628Y-14845879D01*
X15645628Y-14845879D02*
X15626581Y-14836356D01*
X15626581Y-14836356D02*
X15588486Y-14836356D01*
X15588486Y-14836356D02*
X15569438Y-14845879D01*
X15655152Y-14960165D02*
X15636105Y-14969689D01*
X15636105Y-14969689D02*
X15588486Y-14969689D01*
X15588486Y-14969689D02*
X15569438Y-14960165D01*
X15569438Y-14960165D02*
X15559914Y-14941117D01*
X15559914Y-14941117D02*
X15559914Y-14922070D01*
X15559914Y-14922070D02*
X15569438Y-14903022D01*
X15569438Y-14903022D02*
X15588486Y-14893498D01*
X15588486Y-14893498D02*
X15636105Y-14893498D01*
X15636105Y-14893498D02*
X15655152Y-14883975D01*
X15721819Y-14836356D02*
X15798009Y-14836356D01*
X15750390Y-14769689D02*
X15750390Y-14941117D01*
X15750390Y-14941117D02*
X15759914Y-14960165D01*
X15759914Y-14960165D02*
X15778962Y-14969689D01*
X15778962Y-14969689D02*
X15798009Y-14969689D01*
X15940867Y-14960165D02*
X15921819Y-14969689D01*
X15921819Y-14969689D02*
X15883724Y-14969689D01*
X15883724Y-14969689D02*
X15864676Y-14960165D01*
X15864676Y-14960165D02*
X15855152Y-14941117D01*
X15855152Y-14941117D02*
X15855152Y-14864927D01*
X15855152Y-14864927D02*
X15864676Y-14845879D01*
X15864676Y-14845879D02*
X15883724Y-14836356D01*
X15883724Y-14836356D02*
X15921819Y-14836356D01*
X15921819Y-14836356D02*
X15940867Y-14845879D01*
X15940867Y-14845879D02*
X15950390Y-14864927D01*
X15950390Y-14864927D02*
X15950390Y-14883975D01*
X15950390Y-14883975D02*
X15855152Y-14903022D01*
X16121819Y-14969689D02*
X16121819Y-14769689D01*
X16121819Y-14960165D02*
X16102771Y-14969689D01*
X16102771Y-14969689D02*
X16064676Y-14969689D01*
X16064676Y-14969689D02*
X16045628Y-14960165D01*
X16045628Y-14960165D02*
X16036105Y-14950641D01*
X16036105Y-14950641D02*
X16026581Y-14931594D01*
X16026581Y-14931594D02*
X16026581Y-14874451D01*
X16026581Y-14874451D02*
X16036105Y-14855403D01*
X16036105Y-14855403D02*
X16045628Y-14845879D01*
X16045628Y-14845879D02*
X16064676Y-14836356D01*
X16064676Y-14836356D02*
X16102771Y-14836356D01*
X16102771Y-14836356D02*
X16121819Y-14845879D01*
X16198009Y-15045879D02*
X16207533Y-15036356D01*
X16207533Y-15036356D02*
X16226581Y-15007784D01*
X16226581Y-15007784D02*
X16236105Y-14988737D01*
X16236105Y-14988737D02*
X16245628Y-14960165D01*
X16245628Y-14960165D02*
X16255152Y-14912546D01*
X16255152Y-14912546D02*
X16255152Y-14874451D01*
X16255152Y-14874451D02*
X16245628Y-14826832D01*
X16245628Y-14826832D02*
X16236105Y-14798260D01*
X16236105Y-14798260D02*
X16226581Y-14779213D01*
X16226581Y-14779213D02*
X16207533Y-14750641D01*
X16207533Y-14750641D02*
X16198009Y-14741117D01*
X9441994Y-15142205D02*
G75*
G02*
X9241994Y-15142205I-100000J0D01*
G01*
X9241994Y-15142205D02*
G75*
G02*
X9441994Y-15142205I100000J0D01*
G01*
X9683723Y-15033689D02*
X9807533Y-15033689D01*
X9807533Y-15033689D02*
X9740866Y-15109879D01*
X9740866Y-15109879D02*
X9769438Y-15109879D01*
X9769438Y-15109879D02*
X9788485Y-15119403D01*
X9788485Y-15119403D02*
X9798009Y-15128927D01*
X9798009Y-15128927D02*
X9807533Y-15147975D01*
X9807533Y-15147975D02*
X9807533Y-15195594D01*
X9807533Y-15195594D02*
X9798009Y-15214641D01*
X9798009Y-15214641D02*
X9788485Y-15224165D01*
X9788485Y-15224165D02*
X9769438Y-15233689D01*
X9769438Y-15233689D02*
X9712295Y-15233689D01*
X9712295Y-15233689D02*
X9693247Y-15224165D01*
X9693247Y-15224165D02*
X9683723Y-15214641D01*
X9893247Y-15214641D02*
X9902771Y-15224165D01*
X9902771Y-15224165D02*
X9893247Y-15233689D01*
X9893247Y-15233689D02*
X9883723Y-15224165D01*
X9883723Y-15224165D02*
X9893247Y-15214641D01*
X9893247Y-15214641D02*
X9893247Y-15233689D01*
X10026580Y-15033689D02*
X10045628Y-15033689D01*
X10045628Y-15033689D02*
X10064676Y-15043213D01*
X10064676Y-15043213D02*
X10074199Y-15052737D01*
X10074199Y-15052737D02*
X10083723Y-15071784D01*
X10083723Y-15071784D02*
X10093247Y-15109879D01*
X10093247Y-15109879D02*
X10093247Y-15157498D01*
X10093247Y-15157498D02*
X10083723Y-15195594D01*
X10083723Y-15195594D02*
X10074199Y-15214641D01*
X10074199Y-15214641D02*
X10064676Y-15224165D01*
X10064676Y-15224165D02*
X10045628Y-15233689D01*
X10045628Y-15233689D02*
X10026580Y-15233689D01*
X10026580Y-15233689D02*
X10007533Y-15224165D01*
X10007533Y-15224165D02*
X9998009Y-15214641D01*
X9998009Y-15214641D02*
X9988485Y-15195594D01*
X9988485Y-15195594D02*
X9978961Y-15157498D01*
X9978961Y-15157498D02*
X9978961Y-15109879D01*
X9978961Y-15109879D02*
X9988485Y-15071784D01*
X9988485Y-15071784D02*
X9998009Y-15052737D01*
X9998009Y-15052737D02*
X10007533Y-15043213D01*
X10007533Y-15043213D02*
X10026580Y-15033689D01*
X10217057Y-15033689D02*
X10236104Y-15033689D01*
X10236104Y-15033689D02*
X10255152Y-15043213D01*
X10255152Y-15043213D02*
X10264676Y-15052737D01*
X10264676Y-15052737D02*
X10274199Y-15071784D01*
X10274199Y-15071784D02*
X10283723Y-15109879D01*
X10283723Y-15109879D02*
X10283723Y-15157498D01*
X10283723Y-15157498D02*
X10274199Y-15195594D01*
X10274199Y-15195594D02*
X10264676Y-15214641D01*
X10264676Y-15214641D02*
X10255152Y-15224165D01*
X10255152Y-15224165D02*
X10236104Y-15233689D01*
X10236104Y-15233689D02*
X10217057Y-15233689D01*
X10217057Y-15233689D02*
X10198009Y-15224165D01*
X10198009Y-15224165D02*
X10188485Y-15214641D01*
X10188485Y-15214641D02*
X10178961Y-15195594D01*
X10178961Y-15195594D02*
X10169438Y-15157498D01*
X10169438Y-15157498D02*
X10169438Y-15109879D01*
X10169438Y-15109879D02*
X10178961Y-15071784D01*
X10178961Y-15071784D02*
X10188485Y-15052737D01*
X10188485Y-15052737D02*
X10198009Y-15043213D01*
X10198009Y-15043213D02*
X10217057Y-15033689D01*
X10407533Y-15033689D02*
X10426580Y-15033689D01*
X10426580Y-15033689D02*
X10445628Y-15043213D01*
X10445628Y-15043213D02*
X10455152Y-15052737D01*
X10455152Y-15052737D02*
X10464676Y-15071784D01*
X10464676Y-15071784D02*
X10474199Y-15109879D01*
X10474199Y-15109879D02*
X10474199Y-15157498D01*
X10474199Y-15157498D02*
X10464676Y-15195594D01*
X10464676Y-15195594D02*
X10455152Y-15214641D01*
X10455152Y-15214641D02*
X10445628Y-15224165D01*
X10445628Y-15224165D02*
X10426580Y-15233689D01*
X10426580Y-15233689D02*
X10407533Y-15233689D01*
X10407533Y-15233689D02*
X10388485Y-15224165D01*
X10388485Y-15224165D02*
X10378961Y-15214641D01*
X10378961Y-15214641D02*
X10369438Y-15195594D01*
X10369438Y-15195594D02*
X10359914Y-15157498D01*
X10359914Y-15157498D02*
X10359914Y-15109879D01*
X10359914Y-15109879D02*
X10369438Y-15071784D01*
X10369438Y-15071784D02*
X10378961Y-15052737D01*
X10378961Y-15052737D02*
X10388485Y-15043213D01*
X10388485Y-15043213D02*
X10407533Y-15033689D01*
X10559914Y-15233689D02*
X10559914Y-15100356D01*
X10559914Y-15119403D02*
X10569438Y-15109879D01*
X10569438Y-15109879D02*
X10588485Y-15100356D01*
X10588485Y-15100356D02*
X10617057Y-15100356D01*
X10617057Y-15100356D02*
X10636104Y-15109879D01*
X10636104Y-15109879D02*
X10645628Y-15128927D01*
X10645628Y-15128927D02*
X10645628Y-15233689D01*
X10645628Y-15128927D02*
X10655152Y-15109879D01*
X10655152Y-15109879D02*
X10674199Y-15100356D01*
X10674199Y-15100356D02*
X10702771Y-15100356D01*
X10702771Y-15100356D02*
X10721819Y-15109879D01*
X10721819Y-15109879D02*
X10731342Y-15128927D01*
X10731342Y-15128927D02*
X10731342Y-15233689D01*
X10826580Y-15233689D02*
X10826580Y-15100356D01*
X10826580Y-15119403D02*
X10836104Y-15109879D01*
X10836104Y-15109879D02*
X10855152Y-15100356D01*
X10855152Y-15100356D02*
X10883723Y-15100356D01*
X10883723Y-15100356D02*
X10902771Y-15109879D01*
X10902771Y-15109879D02*
X10912295Y-15128927D01*
X10912295Y-15128927D02*
X10912295Y-15233689D01*
X10912295Y-15128927D02*
X10921819Y-15109879D01*
X10921819Y-15109879D02*
X10940866Y-15100356D01*
X10940866Y-15100356D02*
X10969438Y-15100356D01*
X10969438Y-15100356D02*
X10988485Y-15109879D01*
X10988485Y-15109879D02*
X10998009Y-15128927D01*
X10998009Y-15128927D02*
X10998009Y-15233689D01*
X11388485Y-15024165D02*
X11217057Y-15281308D01*
X11645628Y-15033689D02*
X11664676Y-15033689D01*
X11664676Y-15033689D02*
X11683723Y-15043213D01*
X11683723Y-15043213D02*
X11693247Y-15052737D01*
X11693247Y-15052737D02*
X11702771Y-15071784D01*
X11702771Y-15071784D02*
X11712295Y-15109879D01*
X11712295Y-15109879D02*
X11712295Y-15157498D01*
X11712295Y-15157498D02*
X11702771Y-15195594D01*
X11702771Y-15195594D02*
X11693247Y-15214641D01*
X11693247Y-15214641D02*
X11683723Y-15224165D01*
X11683723Y-15224165D02*
X11664676Y-15233689D01*
X11664676Y-15233689D02*
X11645628Y-15233689D01*
X11645628Y-15233689D02*
X11626580Y-15224165D01*
X11626580Y-15224165D02*
X11617057Y-15214641D01*
X11617057Y-15214641D02*
X11607533Y-15195594D01*
X11607533Y-15195594D02*
X11598009Y-15157498D01*
X11598009Y-15157498D02*
X11598009Y-15109879D01*
X11598009Y-15109879D02*
X11607533Y-15071784D01*
X11607533Y-15071784D02*
X11617057Y-15052737D01*
X11617057Y-15052737D02*
X11626580Y-15043213D01*
X11626580Y-15043213D02*
X11645628Y-15033689D01*
X11798009Y-15214641D02*
X11807533Y-15224165D01*
X11807533Y-15224165D02*
X11798009Y-15233689D01*
X11798009Y-15233689D02*
X11788485Y-15224165D01*
X11788485Y-15224165D02*
X11798009Y-15214641D01*
X11798009Y-15214641D02*
X11798009Y-15233689D01*
X11998009Y-15233689D02*
X11883723Y-15233689D01*
X11940866Y-15233689D02*
X11940866Y-15033689D01*
X11940866Y-15033689D02*
X11921819Y-15062260D01*
X11921819Y-15062260D02*
X11902771Y-15081308D01*
X11902771Y-15081308D02*
X11883723Y-15090832D01*
X12188485Y-15233689D02*
X12074200Y-15233689D01*
X12131342Y-15233689D02*
X12131342Y-15033689D01*
X12131342Y-15033689D02*
X12112295Y-15062260D01*
X12112295Y-15062260D02*
X12093247Y-15081308D01*
X12093247Y-15081308D02*
X12074200Y-15090832D01*
X12302771Y-15119403D02*
X12283723Y-15109879D01*
X12283723Y-15109879D02*
X12274200Y-15100356D01*
X12274200Y-15100356D02*
X12264676Y-15081308D01*
X12264676Y-15081308D02*
X12264676Y-15071784D01*
X12264676Y-15071784D02*
X12274200Y-15052737D01*
X12274200Y-15052737D02*
X12283723Y-15043213D01*
X12283723Y-15043213D02*
X12302771Y-15033689D01*
X12302771Y-15033689D02*
X12340866Y-15033689D01*
X12340866Y-15033689D02*
X12359914Y-15043213D01*
X12359914Y-15043213D02*
X12369438Y-15052737D01*
X12369438Y-15052737D02*
X12378961Y-15071784D01*
X12378961Y-15071784D02*
X12378961Y-15081308D01*
X12378961Y-15081308D02*
X12369438Y-15100356D01*
X12369438Y-15100356D02*
X12359914Y-15109879D01*
X12359914Y-15109879D02*
X12340866Y-15119403D01*
X12340866Y-15119403D02*
X12302771Y-15119403D01*
X12302771Y-15119403D02*
X12283723Y-15128927D01*
X12283723Y-15128927D02*
X12274200Y-15138451D01*
X12274200Y-15138451D02*
X12264676Y-15157498D01*
X12264676Y-15157498D02*
X12264676Y-15195594D01*
X12264676Y-15195594D02*
X12274200Y-15214641D01*
X12274200Y-15214641D02*
X12283723Y-15224165D01*
X12283723Y-15224165D02*
X12302771Y-15233689D01*
X12302771Y-15233689D02*
X12340866Y-15233689D01*
X12340866Y-15233689D02*
X12359914Y-15224165D01*
X12359914Y-15224165D02*
X12369438Y-15214641D01*
X12369438Y-15214641D02*
X12378961Y-15195594D01*
X12378961Y-15195594D02*
X12378961Y-15157498D01*
X12378961Y-15157498D02*
X12369438Y-15138451D01*
X12369438Y-15138451D02*
X12359914Y-15128927D01*
X12359914Y-15128927D02*
X12340866Y-15119403D01*
X12569438Y-15233689D02*
X12455152Y-15233689D01*
X12512295Y-15233689D02*
X12512295Y-15033689D01*
X12512295Y-15033689D02*
X12493247Y-15062260D01*
X12493247Y-15062260D02*
X12474200Y-15081308D01*
X12474200Y-15081308D02*
X12455152Y-15090832D01*
X12645628Y-15033689D02*
X12645628Y-15071784D01*
X12721819Y-15033689D02*
X12721819Y-15071784D01*
X13017057Y-15309879D02*
X13007533Y-15300356D01*
X13007533Y-15300356D02*
X12988485Y-15271784D01*
X12988485Y-15271784D02*
X12978962Y-15252737D01*
X12978962Y-15252737D02*
X12969438Y-15224165D01*
X12969438Y-15224165D02*
X12959914Y-15176546D01*
X12959914Y-15176546D02*
X12959914Y-15138451D01*
X12959914Y-15138451D02*
X12969438Y-15090832D01*
X12969438Y-15090832D02*
X12978962Y-15062260D01*
X12978962Y-15062260D02*
X12988485Y-15043213D01*
X12988485Y-15043213D02*
X13007533Y-15014641D01*
X13007533Y-15014641D02*
X13017057Y-15005117D01*
X13074200Y-15033689D02*
X13207533Y-15033689D01*
X13207533Y-15033689D02*
X13121819Y-15233689D01*
X13274200Y-15052737D02*
X13283723Y-15043213D01*
X13283723Y-15043213D02*
X13302771Y-15033689D01*
X13302771Y-15033689D02*
X13350390Y-15033689D01*
X13350390Y-15033689D02*
X13369438Y-15043213D01*
X13369438Y-15043213D02*
X13378962Y-15052737D01*
X13378962Y-15052737D02*
X13388485Y-15071784D01*
X13388485Y-15071784D02*
X13388485Y-15090832D01*
X13388485Y-15090832D02*
X13378962Y-15119403D01*
X13378962Y-15119403D02*
X13264676Y-15233689D01*
X13264676Y-15233689D02*
X13388485Y-15233689D01*
X13626581Y-15233689D02*
X13626581Y-15033689D01*
X13712295Y-15233689D02*
X13712295Y-15128927D01*
X13712295Y-15128927D02*
X13702771Y-15109879D01*
X13702771Y-15109879D02*
X13683724Y-15100356D01*
X13683724Y-15100356D02*
X13655152Y-15100356D01*
X13655152Y-15100356D02*
X13636104Y-15109879D01*
X13636104Y-15109879D02*
X13626581Y-15119403D01*
X13836104Y-15233689D02*
X13817057Y-15224165D01*
X13817057Y-15224165D02*
X13807533Y-15214641D01*
X13807533Y-15214641D02*
X13798009Y-15195594D01*
X13798009Y-15195594D02*
X13798009Y-15138451D01*
X13798009Y-15138451D02*
X13807533Y-15119403D01*
X13807533Y-15119403D02*
X13817057Y-15109879D01*
X13817057Y-15109879D02*
X13836104Y-15100356D01*
X13836104Y-15100356D02*
X13864676Y-15100356D01*
X13864676Y-15100356D02*
X13883724Y-15109879D01*
X13883724Y-15109879D02*
X13893247Y-15119403D01*
X13893247Y-15119403D02*
X13902771Y-15138451D01*
X13902771Y-15138451D02*
X13902771Y-15195594D01*
X13902771Y-15195594D02*
X13893247Y-15214641D01*
X13893247Y-15214641D02*
X13883724Y-15224165D01*
X13883724Y-15224165D02*
X13864676Y-15233689D01*
X13864676Y-15233689D02*
X13836104Y-15233689D01*
X14017057Y-15233689D02*
X13998009Y-15224165D01*
X13998009Y-15224165D02*
X13988485Y-15205117D01*
X13988485Y-15205117D02*
X13988485Y-15033689D01*
X14169438Y-15224165D02*
X14150390Y-15233689D01*
X14150390Y-15233689D02*
X14112295Y-15233689D01*
X14112295Y-15233689D02*
X14093247Y-15224165D01*
X14093247Y-15224165D02*
X14083724Y-15205117D01*
X14083724Y-15205117D02*
X14083724Y-15128927D01*
X14083724Y-15128927D02*
X14093247Y-15109879D01*
X14093247Y-15109879D02*
X14112295Y-15100356D01*
X14112295Y-15100356D02*
X14150390Y-15100356D01*
X14150390Y-15100356D02*
X14169438Y-15109879D01*
X14169438Y-15109879D02*
X14178962Y-15128927D01*
X14178962Y-15128927D02*
X14178962Y-15147975D01*
X14178962Y-15147975D02*
X14083724Y-15167022D01*
X14255152Y-15224165D02*
X14274200Y-15233689D01*
X14274200Y-15233689D02*
X14312295Y-15233689D01*
X14312295Y-15233689D02*
X14331343Y-15224165D01*
X14331343Y-15224165D02*
X14340866Y-15205117D01*
X14340866Y-15205117D02*
X14340866Y-15195594D01*
X14340866Y-15195594D02*
X14331343Y-15176546D01*
X14331343Y-15176546D02*
X14312295Y-15167022D01*
X14312295Y-15167022D02*
X14283724Y-15167022D01*
X14283724Y-15167022D02*
X14264676Y-15157498D01*
X14264676Y-15157498D02*
X14255152Y-15138451D01*
X14255152Y-15138451D02*
X14255152Y-15128927D01*
X14255152Y-15128927D02*
X14264676Y-15109879D01*
X14264676Y-15109879D02*
X14283724Y-15100356D01*
X14283724Y-15100356D02*
X14312295Y-15100356D01*
X14312295Y-15100356D02*
X14331343Y-15109879D01*
X14407533Y-15309879D02*
X14417057Y-15300356D01*
X14417057Y-15300356D02*
X14436105Y-15271784D01*
X14436105Y-15271784D02*
X14445628Y-15252737D01*
X14445628Y-15252737D02*
X14455152Y-15224165D01*
X14455152Y-15224165D02*
X14464676Y-15176546D01*
X14464676Y-15176546D02*
X14464676Y-15138451D01*
X14464676Y-15138451D02*
X14455152Y-15090832D01*
X14455152Y-15090832D02*
X14445628Y-15062260D01*
X14445628Y-15062260D02*
X14436105Y-15043213D01*
X14436105Y-15043213D02*
X14417057Y-15014641D01*
X14417057Y-15014641D02*
X14407533Y-15005117D01*
X14769438Y-15309879D02*
X14759914Y-15300356D01*
X14759914Y-15300356D02*
X14740866Y-15271784D01*
X14740866Y-15271784D02*
X14731343Y-15252737D01*
X14731343Y-15252737D02*
X14721819Y-15224165D01*
X14721819Y-15224165D02*
X14712295Y-15176546D01*
X14712295Y-15176546D02*
X14712295Y-15138451D01*
X14712295Y-15138451D02*
X14721819Y-15090832D01*
X14721819Y-15090832D02*
X14731343Y-15062260D01*
X14731343Y-15062260D02*
X14740866Y-15043213D01*
X14740866Y-15043213D02*
X14759914Y-15014641D01*
X14759914Y-15014641D02*
X14769438Y-15005117D01*
X14845628Y-15100356D02*
X14845628Y-15233689D01*
X14845628Y-15119403D02*
X14855152Y-15109879D01*
X14855152Y-15109879D02*
X14874200Y-15100356D01*
X14874200Y-15100356D02*
X14902771Y-15100356D01*
X14902771Y-15100356D02*
X14921819Y-15109879D01*
X14921819Y-15109879D02*
X14931343Y-15128927D01*
X14931343Y-15128927D02*
X14931343Y-15233689D01*
X15055152Y-15233689D02*
X15036105Y-15224165D01*
X15036105Y-15224165D02*
X15026581Y-15214641D01*
X15026581Y-15214641D02*
X15017057Y-15195594D01*
X15017057Y-15195594D02*
X15017057Y-15138451D01*
X15017057Y-15138451D02*
X15026581Y-15119403D01*
X15026581Y-15119403D02*
X15036105Y-15109879D01*
X15036105Y-15109879D02*
X15055152Y-15100356D01*
X15055152Y-15100356D02*
X15083724Y-15100356D01*
X15083724Y-15100356D02*
X15102771Y-15109879D01*
X15102771Y-15109879D02*
X15112295Y-15119403D01*
X15112295Y-15119403D02*
X15121819Y-15138451D01*
X15121819Y-15138451D02*
X15121819Y-15195594D01*
X15121819Y-15195594D02*
X15112295Y-15214641D01*
X15112295Y-15214641D02*
X15102771Y-15224165D01*
X15102771Y-15224165D02*
X15083724Y-15233689D01*
X15083724Y-15233689D02*
X15055152Y-15233689D01*
X15178962Y-15100356D02*
X15255152Y-15100356D01*
X15207533Y-15033689D02*
X15207533Y-15205117D01*
X15207533Y-15205117D02*
X15217057Y-15224165D01*
X15217057Y-15224165D02*
X15236105Y-15233689D01*
X15236105Y-15233689D02*
X15255152Y-15233689D01*
X15474200Y-15100356D02*
X15474200Y-15300356D01*
X15474200Y-15109879D02*
X15493247Y-15100356D01*
X15493247Y-15100356D02*
X15531343Y-15100356D01*
X15531343Y-15100356D02*
X15550390Y-15109879D01*
X15550390Y-15109879D02*
X15559914Y-15119403D01*
X15559914Y-15119403D02*
X15569438Y-15138451D01*
X15569438Y-15138451D02*
X15569438Y-15195594D01*
X15569438Y-15195594D02*
X15559914Y-15214641D01*
X15559914Y-15214641D02*
X15550390Y-15224165D01*
X15550390Y-15224165D02*
X15531343Y-15233689D01*
X15531343Y-15233689D02*
X15493247Y-15233689D01*
X15493247Y-15233689D02*
X15474200Y-15224165D01*
X15683724Y-15233689D02*
X15664676Y-15224165D01*
X15664676Y-15224165D02*
X15655152Y-15205117D01*
X15655152Y-15205117D02*
X15655152Y-15033689D01*
X15845628Y-15233689D02*
X15845628Y-15128927D01*
X15845628Y-15128927D02*
X15836105Y-15109879D01*
X15836105Y-15109879D02*
X15817057Y-15100356D01*
X15817057Y-15100356D02*
X15778962Y-15100356D01*
X15778962Y-15100356D02*
X15759914Y-15109879D01*
X15845628Y-15224165D02*
X15826581Y-15233689D01*
X15826581Y-15233689D02*
X15778962Y-15233689D01*
X15778962Y-15233689D02*
X15759914Y-15224165D01*
X15759914Y-15224165D02*
X15750390Y-15205117D01*
X15750390Y-15205117D02*
X15750390Y-15186070D01*
X15750390Y-15186070D02*
X15759914Y-15167022D01*
X15759914Y-15167022D02*
X15778962Y-15157498D01*
X15778962Y-15157498D02*
X15826581Y-15157498D01*
X15826581Y-15157498D02*
X15845628Y-15147975D01*
X15912295Y-15100356D02*
X15988486Y-15100356D01*
X15940867Y-15033689D02*
X15940867Y-15205117D01*
X15940867Y-15205117D02*
X15950390Y-15224165D01*
X15950390Y-15224165D02*
X15969438Y-15233689D01*
X15969438Y-15233689D02*
X15988486Y-15233689D01*
X16131343Y-15224165D02*
X16112295Y-15233689D01*
X16112295Y-15233689D02*
X16074200Y-15233689D01*
X16074200Y-15233689D02*
X16055152Y-15224165D01*
X16055152Y-15224165D02*
X16045628Y-15205117D01*
X16045628Y-15205117D02*
X16045628Y-15128927D01*
X16045628Y-15128927D02*
X16055152Y-15109879D01*
X16055152Y-15109879D02*
X16074200Y-15100356D01*
X16074200Y-15100356D02*
X16112295Y-15100356D01*
X16112295Y-15100356D02*
X16131343Y-15109879D01*
X16131343Y-15109879D02*
X16140867Y-15128927D01*
X16140867Y-15128927D02*
X16140867Y-15147975D01*
X16140867Y-15147975D02*
X16045628Y-15167022D01*
X16312295Y-15233689D02*
X16312295Y-15033689D01*
X16312295Y-15224165D02*
X16293248Y-15233689D01*
X16293248Y-15233689D02*
X16255152Y-15233689D01*
X16255152Y-15233689D02*
X16236105Y-15224165D01*
X16236105Y-15224165D02*
X16226581Y-15214641D01*
X16226581Y-15214641D02*
X16217057Y-15195594D01*
X16217057Y-15195594D02*
X16217057Y-15138451D01*
X16217057Y-15138451D02*
X16226581Y-15119403D01*
X16226581Y-15119403D02*
X16236105Y-15109879D01*
X16236105Y-15109879D02*
X16255152Y-15100356D01*
X16255152Y-15100356D02*
X16293248Y-15100356D01*
X16293248Y-15100356D02*
X16312295Y-15109879D01*
X16388486Y-15309879D02*
X16398009Y-15300356D01*
X16398009Y-15300356D02*
X16417057Y-15271784D01*
X16417057Y-15271784D02*
X16426581Y-15252737D01*
X16426581Y-15252737D02*
X16436105Y-15224165D01*
X16436105Y-15224165D02*
X16445628Y-15176546D01*
X16445628Y-15176546D02*
X16445628Y-15138451D01*
X16445628Y-15138451D02*
X16436105Y-15090832D01*
X16436105Y-15090832D02*
X16426581Y-15062260D01*
X16426581Y-15062260D02*
X16417057Y-15043213D01*
X16417057Y-15043213D02*
X16398009Y-15014641D01*
X16398009Y-15014641D02*
X16388486Y-15005117D01*
X9341994Y-15362205D02*
X9341994Y-15562205D01*
X9241994Y-15462205D02*
X9441994Y-15462205D01*
X9798009Y-15353689D02*
X9702771Y-15353689D01*
X9702771Y-15353689D02*
X9693247Y-15448927D01*
X9693247Y-15448927D02*
X9702771Y-15439403D01*
X9702771Y-15439403D02*
X9721818Y-15429879D01*
X9721818Y-15429879D02*
X9769438Y-15429879D01*
X9769438Y-15429879D02*
X9788485Y-15439403D01*
X9788485Y-15439403D02*
X9798009Y-15448927D01*
X9798009Y-15448927D02*
X9807533Y-15467975D01*
X9807533Y-15467975D02*
X9807533Y-15515594D01*
X9807533Y-15515594D02*
X9798009Y-15534641D01*
X9798009Y-15534641D02*
X9788485Y-15544165D01*
X9788485Y-15544165D02*
X9769438Y-15553689D01*
X9769438Y-15553689D02*
X9721818Y-15553689D01*
X9721818Y-15553689D02*
X9702771Y-15544165D01*
X9702771Y-15544165D02*
X9693247Y-15534641D01*
X9893247Y-15534641D02*
X9902771Y-15544165D01*
X9902771Y-15544165D02*
X9893247Y-15553689D01*
X9893247Y-15553689D02*
X9883723Y-15544165D01*
X9883723Y-15544165D02*
X9893247Y-15534641D01*
X9893247Y-15534641D02*
X9893247Y-15553689D01*
X10026580Y-15353689D02*
X10045628Y-15353689D01*
X10045628Y-15353689D02*
X10064676Y-15363213D01*
X10064676Y-15363213D02*
X10074199Y-15372737D01*
X10074199Y-15372737D02*
X10083723Y-15391784D01*
X10083723Y-15391784D02*
X10093247Y-15429879D01*
X10093247Y-15429879D02*
X10093247Y-15477498D01*
X10093247Y-15477498D02*
X10083723Y-15515594D01*
X10083723Y-15515594D02*
X10074199Y-15534641D01*
X10074199Y-15534641D02*
X10064676Y-15544165D01*
X10064676Y-15544165D02*
X10045628Y-15553689D01*
X10045628Y-15553689D02*
X10026580Y-15553689D01*
X10026580Y-15553689D02*
X10007533Y-15544165D01*
X10007533Y-15544165D02*
X9998009Y-15534641D01*
X9998009Y-15534641D02*
X9988485Y-15515594D01*
X9988485Y-15515594D02*
X9978961Y-15477498D01*
X9978961Y-15477498D02*
X9978961Y-15429879D01*
X9978961Y-15429879D02*
X9988485Y-15391784D01*
X9988485Y-15391784D02*
X9998009Y-15372737D01*
X9998009Y-15372737D02*
X10007533Y-15363213D01*
X10007533Y-15363213D02*
X10026580Y-15353689D01*
X10217057Y-15353689D02*
X10236104Y-15353689D01*
X10236104Y-15353689D02*
X10255152Y-15363213D01*
X10255152Y-15363213D02*
X10264676Y-15372737D01*
X10264676Y-15372737D02*
X10274199Y-15391784D01*
X10274199Y-15391784D02*
X10283723Y-15429879D01*
X10283723Y-15429879D02*
X10283723Y-15477498D01*
X10283723Y-15477498D02*
X10274199Y-15515594D01*
X10274199Y-15515594D02*
X10264676Y-15534641D01*
X10264676Y-15534641D02*
X10255152Y-15544165D01*
X10255152Y-15544165D02*
X10236104Y-15553689D01*
X10236104Y-15553689D02*
X10217057Y-15553689D01*
X10217057Y-15553689D02*
X10198009Y-15544165D01*
X10198009Y-15544165D02*
X10188485Y-15534641D01*
X10188485Y-15534641D02*
X10178961Y-15515594D01*
X10178961Y-15515594D02*
X10169438Y-15477498D01*
X10169438Y-15477498D02*
X10169438Y-15429879D01*
X10169438Y-15429879D02*
X10178961Y-15391784D01*
X10178961Y-15391784D02*
X10188485Y-15372737D01*
X10188485Y-15372737D02*
X10198009Y-15363213D01*
X10198009Y-15363213D02*
X10217057Y-15353689D01*
X10407533Y-15353689D02*
X10426580Y-15353689D01*
X10426580Y-15353689D02*
X10445628Y-15363213D01*
X10445628Y-15363213D02*
X10455152Y-15372737D01*
X10455152Y-15372737D02*
X10464676Y-15391784D01*
X10464676Y-15391784D02*
X10474199Y-15429879D01*
X10474199Y-15429879D02*
X10474199Y-15477498D01*
X10474199Y-15477498D02*
X10464676Y-15515594D01*
X10464676Y-15515594D02*
X10455152Y-15534641D01*
X10455152Y-15534641D02*
X10445628Y-15544165D01*
X10445628Y-15544165D02*
X10426580Y-15553689D01*
X10426580Y-15553689D02*
X10407533Y-15553689D01*
X10407533Y-15553689D02*
X10388485Y-15544165D01*
X10388485Y-15544165D02*
X10378961Y-15534641D01*
X10378961Y-15534641D02*
X10369438Y-15515594D01*
X10369438Y-15515594D02*
X10359914Y-15477498D01*
X10359914Y-15477498D02*
X10359914Y-15429879D01*
X10359914Y-15429879D02*
X10369438Y-15391784D01*
X10369438Y-15391784D02*
X10378961Y-15372737D01*
X10378961Y-15372737D02*
X10388485Y-15363213D01*
X10388485Y-15363213D02*
X10407533Y-15353689D01*
X10559914Y-15553689D02*
X10559914Y-15420356D01*
X10559914Y-15439403D02*
X10569438Y-15429879D01*
X10569438Y-15429879D02*
X10588485Y-15420356D01*
X10588485Y-15420356D02*
X10617057Y-15420356D01*
X10617057Y-15420356D02*
X10636104Y-15429879D01*
X10636104Y-15429879D02*
X10645628Y-15448927D01*
X10645628Y-15448927D02*
X10645628Y-15553689D01*
X10645628Y-15448927D02*
X10655152Y-15429879D01*
X10655152Y-15429879D02*
X10674199Y-15420356D01*
X10674199Y-15420356D02*
X10702771Y-15420356D01*
X10702771Y-15420356D02*
X10721819Y-15429879D01*
X10721819Y-15429879D02*
X10731342Y-15448927D01*
X10731342Y-15448927D02*
X10731342Y-15553689D01*
X10826580Y-15553689D02*
X10826580Y-15420356D01*
X10826580Y-15439403D02*
X10836104Y-15429879D01*
X10836104Y-15429879D02*
X10855152Y-15420356D01*
X10855152Y-15420356D02*
X10883723Y-15420356D01*
X10883723Y-15420356D02*
X10902771Y-15429879D01*
X10902771Y-15429879D02*
X10912295Y-15448927D01*
X10912295Y-15448927D02*
X10912295Y-15553689D01*
X10912295Y-15448927D02*
X10921819Y-15429879D01*
X10921819Y-15429879D02*
X10940866Y-15420356D01*
X10940866Y-15420356D02*
X10969438Y-15420356D01*
X10969438Y-15420356D02*
X10988485Y-15429879D01*
X10988485Y-15429879D02*
X10998009Y-15448927D01*
X10998009Y-15448927D02*
X10998009Y-15553689D01*
X11388485Y-15344165D02*
X11217057Y-15601308D01*
X11645628Y-15353689D02*
X11664676Y-15353689D01*
X11664676Y-15353689D02*
X11683723Y-15363213D01*
X11683723Y-15363213D02*
X11693247Y-15372737D01*
X11693247Y-15372737D02*
X11702771Y-15391784D01*
X11702771Y-15391784D02*
X11712295Y-15429879D01*
X11712295Y-15429879D02*
X11712295Y-15477498D01*
X11712295Y-15477498D02*
X11702771Y-15515594D01*
X11702771Y-15515594D02*
X11693247Y-15534641D01*
X11693247Y-15534641D02*
X11683723Y-15544165D01*
X11683723Y-15544165D02*
X11664676Y-15553689D01*
X11664676Y-15553689D02*
X11645628Y-15553689D01*
X11645628Y-15553689D02*
X11626580Y-15544165D01*
X11626580Y-15544165D02*
X11617057Y-15534641D01*
X11617057Y-15534641D02*
X11607533Y-15515594D01*
X11607533Y-15515594D02*
X11598009Y-15477498D01*
X11598009Y-15477498D02*
X11598009Y-15429879D01*
X11598009Y-15429879D02*
X11607533Y-15391784D01*
X11607533Y-15391784D02*
X11617057Y-15372737D01*
X11617057Y-15372737D02*
X11626580Y-15363213D01*
X11626580Y-15363213D02*
X11645628Y-15353689D01*
X11798009Y-15534641D02*
X11807533Y-15544165D01*
X11807533Y-15544165D02*
X11798009Y-15553689D01*
X11798009Y-15553689D02*
X11788485Y-15544165D01*
X11788485Y-15544165D02*
X11798009Y-15534641D01*
X11798009Y-15534641D02*
X11798009Y-15553689D01*
X11998009Y-15553689D02*
X11883723Y-15553689D01*
X11940866Y-15553689D02*
X11940866Y-15353689D01*
X11940866Y-15353689D02*
X11921819Y-15382260D01*
X11921819Y-15382260D02*
X11902771Y-15401308D01*
X11902771Y-15401308D02*
X11883723Y-15410832D01*
X12093247Y-15553689D02*
X12131342Y-15553689D01*
X12131342Y-15553689D02*
X12150390Y-15544165D01*
X12150390Y-15544165D02*
X12159914Y-15534641D01*
X12159914Y-15534641D02*
X12178961Y-15506070D01*
X12178961Y-15506070D02*
X12188485Y-15467975D01*
X12188485Y-15467975D02*
X12188485Y-15391784D01*
X12188485Y-15391784D02*
X12178961Y-15372737D01*
X12178961Y-15372737D02*
X12169438Y-15363213D01*
X12169438Y-15363213D02*
X12150390Y-15353689D01*
X12150390Y-15353689D02*
X12112295Y-15353689D01*
X12112295Y-15353689D02*
X12093247Y-15363213D01*
X12093247Y-15363213D02*
X12083723Y-15372737D01*
X12083723Y-15372737D02*
X12074200Y-15391784D01*
X12074200Y-15391784D02*
X12074200Y-15439403D01*
X12074200Y-15439403D02*
X12083723Y-15458451D01*
X12083723Y-15458451D02*
X12093247Y-15467975D01*
X12093247Y-15467975D02*
X12112295Y-15477498D01*
X12112295Y-15477498D02*
X12150390Y-15477498D01*
X12150390Y-15477498D02*
X12169438Y-15467975D01*
X12169438Y-15467975D02*
X12178961Y-15458451D01*
X12178961Y-15458451D02*
X12188485Y-15439403D01*
X12359914Y-15353689D02*
X12321819Y-15353689D01*
X12321819Y-15353689D02*
X12302771Y-15363213D01*
X12302771Y-15363213D02*
X12293247Y-15372737D01*
X12293247Y-15372737D02*
X12274200Y-15401308D01*
X12274200Y-15401308D02*
X12264676Y-15439403D01*
X12264676Y-15439403D02*
X12264676Y-15515594D01*
X12264676Y-15515594D02*
X12274200Y-15534641D01*
X12274200Y-15534641D02*
X12283723Y-15544165D01*
X12283723Y-15544165D02*
X12302771Y-15553689D01*
X12302771Y-15553689D02*
X12340866Y-15553689D01*
X12340866Y-15553689D02*
X12359914Y-15544165D01*
X12359914Y-15544165D02*
X12369438Y-15534641D01*
X12369438Y-15534641D02*
X12378961Y-15515594D01*
X12378961Y-15515594D02*
X12378961Y-15467975D01*
X12378961Y-15467975D02*
X12369438Y-15448927D01*
X12369438Y-15448927D02*
X12359914Y-15439403D01*
X12359914Y-15439403D02*
X12340866Y-15429879D01*
X12340866Y-15429879D02*
X12302771Y-15429879D01*
X12302771Y-15429879D02*
X12283723Y-15439403D01*
X12283723Y-15439403D02*
X12274200Y-15448927D01*
X12274200Y-15448927D02*
X12264676Y-15467975D01*
X12474200Y-15553689D02*
X12512295Y-15553689D01*
X12512295Y-15553689D02*
X12531342Y-15544165D01*
X12531342Y-15544165D02*
X12540866Y-15534641D01*
X12540866Y-15534641D02*
X12559914Y-15506070D01*
X12559914Y-15506070D02*
X12569438Y-15467975D01*
X12569438Y-15467975D02*
X12569438Y-15391784D01*
X12569438Y-15391784D02*
X12559914Y-15372737D01*
X12559914Y-15372737D02*
X12550390Y-15363213D01*
X12550390Y-15363213D02*
X12531342Y-15353689D01*
X12531342Y-15353689D02*
X12493247Y-15353689D01*
X12493247Y-15353689D02*
X12474200Y-15363213D01*
X12474200Y-15363213D02*
X12464676Y-15372737D01*
X12464676Y-15372737D02*
X12455152Y-15391784D01*
X12455152Y-15391784D02*
X12455152Y-15439403D01*
X12455152Y-15439403D02*
X12464676Y-15458451D01*
X12464676Y-15458451D02*
X12474200Y-15467975D01*
X12474200Y-15467975D02*
X12493247Y-15477498D01*
X12493247Y-15477498D02*
X12531342Y-15477498D01*
X12531342Y-15477498D02*
X12550390Y-15467975D01*
X12550390Y-15467975D02*
X12559914Y-15458451D01*
X12559914Y-15458451D02*
X12569438Y-15439403D01*
X12645628Y-15353689D02*
X12645628Y-15391784D01*
X12721819Y-15353689D02*
X12721819Y-15391784D01*
X13017057Y-15629879D02*
X13007533Y-15620356D01*
X13007533Y-15620356D02*
X12988485Y-15591784D01*
X12988485Y-15591784D02*
X12978962Y-15572737D01*
X12978962Y-15572737D02*
X12969438Y-15544165D01*
X12969438Y-15544165D02*
X12959914Y-15496546D01*
X12959914Y-15496546D02*
X12959914Y-15458451D01*
X12959914Y-15458451D02*
X12969438Y-15410832D01*
X12969438Y-15410832D02*
X12978962Y-15382260D01*
X12978962Y-15382260D02*
X12988485Y-15363213D01*
X12988485Y-15363213D02*
X13007533Y-15334641D01*
X13007533Y-15334641D02*
X13017057Y-15325117D01*
X13198009Y-15553689D02*
X13083723Y-15553689D01*
X13140866Y-15553689D02*
X13140866Y-15353689D01*
X13140866Y-15353689D02*
X13121819Y-15382260D01*
X13121819Y-15382260D02*
X13102771Y-15401308D01*
X13102771Y-15401308D02*
X13083723Y-15410832D01*
X13312295Y-15439403D02*
X13293247Y-15429879D01*
X13293247Y-15429879D02*
X13283723Y-15420356D01*
X13283723Y-15420356D02*
X13274200Y-15401308D01*
X13274200Y-15401308D02*
X13274200Y-15391784D01*
X13274200Y-15391784D02*
X13283723Y-15372737D01*
X13283723Y-15372737D02*
X13293247Y-15363213D01*
X13293247Y-15363213D02*
X13312295Y-15353689D01*
X13312295Y-15353689D02*
X13350390Y-15353689D01*
X13350390Y-15353689D02*
X13369438Y-15363213D01*
X13369438Y-15363213D02*
X13378962Y-15372737D01*
X13378962Y-15372737D02*
X13388485Y-15391784D01*
X13388485Y-15391784D02*
X13388485Y-15401308D01*
X13388485Y-15401308D02*
X13378962Y-15420356D01*
X13378962Y-15420356D02*
X13369438Y-15429879D01*
X13369438Y-15429879D02*
X13350390Y-15439403D01*
X13350390Y-15439403D02*
X13312295Y-15439403D01*
X13312295Y-15439403D02*
X13293247Y-15448927D01*
X13293247Y-15448927D02*
X13283723Y-15458451D01*
X13283723Y-15458451D02*
X13274200Y-15477498D01*
X13274200Y-15477498D02*
X13274200Y-15515594D01*
X13274200Y-15515594D02*
X13283723Y-15534641D01*
X13283723Y-15534641D02*
X13293247Y-15544165D01*
X13293247Y-15544165D02*
X13312295Y-15553689D01*
X13312295Y-15553689D02*
X13350390Y-15553689D01*
X13350390Y-15553689D02*
X13369438Y-15544165D01*
X13369438Y-15544165D02*
X13378962Y-15534641D01*
X13378962Y-15534641D02*
X13388485Y-15515594D01*
X13388485Y-15515594D02*
X13388485Y-15477498D01*
X13388485Y-15477498D02*
X13378962Y-15458451D01*
X13378962Y-15458451D02*
X13369438Y-15448927D01*
X13369438Y-15448927D02*
X13350390Y-15439403D01*
X13626581Y-15553689D02*
X13626581Y-15353689D01*
X13712295Y-15553689D02*
X13712295Y-15448927D01*
X13712295Y-15448927D02*
X13702771Y-15429879D01*
X13702771Y-15429879D02*
X13683724Y-15420356D01*
X13683724Y-15420356D02*
X13655152Y-15420356D01*
X13655152Y-15420356D02*
X13636104Y-15429879D01*
X13636104Y-15429879D02*
X13626581Y-15439403D01*
X13836104Y-15553689D02*
X13817057Y-15544165D01*
X13817057Y-15544165D02*
X13807533Y-15534641D01*
X13807533Y-15534641D02*
X13798009Y-15515594D01*
X13798009Y-15515594D02*
X13798009Y-15458451D01*
X13798009Y-15458451D02*
X13807533Y-15439403D01*
X13807533Y-15439403D02*
X13817057Y-15429879D01*
X13817057Y-15429879D02*
X13836104Y-15420356D01*
X13836104Y-15420356D02*
X13864676Y-15420356D01*
X13864676Y-15420356D02*
X13883724Y-15429879D01*
X13883724Y-15429879D02*
X13893247Y-15439403D01*
X13893247Y-15439403D02*
X13902771Y-15458451D01*
X13902771Y-15458451D02*
X13902771Y-15515594D01*
X13902771Y-15515594D02*
X13893247Y-15534641D01*
X13893247Y-15534641D02*
X13883724Y-15544165D01*
X13883724Y-15544165D02*
X13864676Y-15553689D01*
X13864676Y-15553689D02*
X13836104Y-15553689D01*
X14017057Y-15553689D02*
X13998009Y-15544165D01*
X13998009Y-15544165D02*
X13988485Y-15525117D01*
X13988485Y-15525117D02*
X13988485Y-15353689D01*
X14169438Y-15544165D02*
X14150390Y-15553689D01*
X14150390Y-15553689D02*
X14112295Y-15553689D01*
X14112295Y-15553689D02*
X14093247Y-15544165D01*
X14093247Y-15544165D02*
X14083724Y-15525117D01*
X14083724Y-15525117D02*
X14083724Y-15448927D01*
X14083724Y-15448927D02*
X14093247Y-15429879D01*
X14093247Y-15429879D02*
X14112295Y-15420356D01*
X14112295Y-15420356D02*
X14150390Y-15420356D01*
X14150390Y-15420356D02*
X14169438Y-15429879D01*
X14169438Y-15429879D02*
X14178962Y-15448927D01*
X14178962Y-15448927D02*
X14178962Y-15467975D01*
X14178962Y-15467975D02*
X14083724Y-15487022D01*
X14255152Y-15544165D02*
X14274200Y-15553689D01*
X14274200Y-15553689D02*
X14312295Y-15553689D01*
X14312295Y-15553689D02*
X14331343Y-15544165D01*
X14331343Y-15544165D02*
X14340866Y-15525117D01*
X14340866Y-15525117D02*
X14340866Y-15515594D01*
X14340866Y-15515594D02*
X14331343Y-15496546D01*
X14331343Y-15496546D02*
X14312295Y-15487022D01*
X14312295Y-15487022D02*
X14283724Y-15487022D01*
X14283724Y-15487022D02*
X14264676Y-15477498D01*
X14264676Y-15477498D02*
X14255152Y-15458451D01*
X14255152Y-15458451D02*
X14255152Y-15448927D01*
X14255152Y-15448927D02*
X14264676Y-15429879D01*
X14264676Y-15429879D02*
X14283724Y-15420356D01*
X14283724Y-15420356D02*
X14312295Y-15420356D01*
X14312295Y-15420356D02*
X14331343Y-15429879D01*
X14407533Y-15629879D02*
X14417057Y-15620356D01*
X14417057Y-15620356D02*
X14436105Y-15591784D01*
X14436105Y-15591784D02*
X14445628Y-15572737D01*
X14445628Y-15572737D02*
X14455152Y-15544165D01*
X14455152Y-15544165D02*
X14464676Y-15496546D01*
X14464676Y-15496546D02*
X14464676Y-15458451D01*
X14464676Y-15458451D02*
X14455152Y-15410832D01*
X14455152Y-15410832D02*
X14445628Y-15382260D01*
X14445628Y-15382260D02*
X14436105Y-15363213D01*
X14436105Y-15363213D02*
X14417057Y-15334641D01*
X14417057Y-15334641D02*
X14407533Y-15325117D01*
X14769438Y-15629879D02*
X14759914Y-15620356D01*
X14759914Y-15620356D02*
X14740866Y-15591784D01*
X14740866Y-15591784D02*
X14731343Y-15572737D01*
X14731343Y-15572737D02*
X14721819Y-15544165D01*
X14721819Y-15544165D02*
X14712295Y-15496546D01*
X14712295Y-15496546D02*
X14712295Y-15458451D01*
X14712295Y-15458451D02*
X14721819Y-15410832D01*
X14721819Y-15410832D02*
X14731343Y-15382260D01*
X14731343Y-15382260D02*
X14740866Y-15363213D01*
X14740866Y-15363213D02*
X14759914Y-15334641D01*
X14759914Y-15334641D02*
X14769438Y-15325117D01*
X14845628Y-15420356D02*
X14845628Y-15553689D01*
X14845628Y-15439403D02*
X14855152Y-15429879D01*
X14855152Y-15429879D02*
X14874200Y-15420356D01*
X14874200Y-15420356D02*
X14902771Y-15420356D01*
X14902771Y-15420356D02*
X14921819Y-15429879D01*
X14921819Y-15429879D02*
X14931343Y-15448927D01*
X14931343Y-15448927D02*
X14931343Y-15553689D01*
X15055152Y-15553689D02*
X15036105Y-15544165D01*
X15036105Y-15544165D02*
X15026581Y-15534641D01*
X15026581Y-15534641D02*
X15017057Y-15515594D01*
X15017057Y-15515594D02*
X15017057Y-15458451D01*
X15017057Y-15458451D02*
X15026581Y-15439403D01*
X15026581Y-15439403D02*
X15036105Y-15429879D01*
X15036105Y-15429879D02*
X15055152Y-15420356D01*
X15055152Y-15420356D02*
X15083724Y-15420356D01*
X15083724Y-15420356D02*
X15102771Y-15429879D01*
X15102771Y-15429879D02*
X15112295Y-15439403D01*
X15112295Y-15439403D02*
X15121819Y-15458451D01*
X15121819Y-15458451D02*
X15121819Y-15515594D01*
X15121819Y-15515594D02*
X15112295Y-15534641D01*
X15112295Y-15534641D02*
X15102771Y-15544165D01*
X15102771Y-15544165D02*
X15083724Y-15553689D01*
X15083724Y-15553689D02*
X15055152Y-15553689D01*
X15178962Y-15420356D02*
X15255152Y-15420356D01*
X15207533Y-15353689D02*
X15207533Y-15525117D01*
X15207533Y-15525117D02*
X15217057Y-15544165D01*
X15217057Y-15544165D02*
X15236105Y-15553689D01*
X15236105Y-15553689D02*
X15255152Y-15553689D01*
X15474200Y-15420356D02*
X15474200Y-15620356D01*
X15474200Y-15429879D02*
X15493247Y-15420356D01*
X15493247Y-15420356D02*
X15531343Y-15420356D01*
X15531343Y-15420356D02*
X15550390Y-15429879D01*
X15550390Y-15429879D02*
X15559914Y-15439403D01*
X15559914Y-15439403D02*
X15569438Y-15458451D01*
X15569438Y-15458451D02*
X15569438Y-15515594D01*
X15569438Y-15515594D02*
X15559914Y-15534641D01*
X15559914Y-15534641D02*
X15550390Y-15544165D01*
X15550390Y-15544165D02*
X15531343Y-15553689D01*
X15531343Y-15553689D02*
X15493247Y-15553689D01*
X15493247Y-15553689D02*
X15474200Y-15544165D01*
X15683724Y-15553689D02*
X15664676Y-15544165D01*
X15664676Y-15544165D02*
X15655152Y-15525117D01*
X15655152Y-15525117D02*
X15655152Y-15353689D01*
X15845628Y-15553689D02*
X15845628Y-15448927D01*
X15845628Y-15448927D02*
X15836105Y-15429879D01*
X15836105Y-15429879D02*
X15817057Y-15420356D01*
X15817057Y-15420356D02*
X15778962Y-15420356D01*
X15778962Y-15420356D02*
X15759914Y-15429879D01*
X15845628Y-15544165D02*
X15826581Y-15553689D01*
X15826581Y-15553689D02*
X15778962Y-15553689D01*
X15778962Y-15553689D02*
X15759914Y-15544165D01*
X15759914Y-15544165D02*
X15750390Y-15525117D01*
X15750390Y-15525117D02*
X15750390Y-15506070D01*
X15750390Y-15506070D02*
X15759914Y-15487022D01*
X15759914Y-15487022D02*
X15778962Y-15477498D01*
X15778962Y-15477498D02*
X15826581Y-15477498D01*
X15826581Y-15477498D02*
X15845628Y-15467975D01*
X15912295Y-15420356D02*
X15988486Y-15420356D01*
X15940867Y-15353689D02*
X15940867Y-15525117D01*
X15940867Y-15525117D02*
X15950390Y-15544165D01*
X15950390Y-15544165D02*
X15969438Y-15553689D01*
X15969438Y-15553689D02*
X15988486Y-15553689D01*
X16131343Y-15544165D02*
X16112295Y-15553689D01*
X16112295Y-15553689D02*
X16074200Y-15553689D01*
X16074200Y-15553689D02*
X16055152Y-15544165D01*
X16055152Y-15544165D02*
X16045628Y-15525117D01*
X16045628Y-15525117D02*
X16045628Y-15448927D01*
X16045628Y-15448927D02*
X16055152Y-15429879D01*
X16055152Y-15429879D02*
X16074200Y-15420356D01*
X16074200Y-15420356D02*
X16112295Y-15420356D01*
X16112295Y-15420356D02*
X16131343Y-15429879D01*
X16131343Y-15429879D02*
X16140867Y-15448927D01*
X16140867Y-15448927D02*
X16140867Y-15467975D01*
X16140867Y-15467975D02*
X16045628Y-15487022D01*
X16312295Y-15553689D02*
X16312295Y-15353689D01*
X16312295Y-15544165D02*
X16293248Y-15553689D01*
X16293248Y-15553689D02*
X16255152Y-15553689D01*
X16255152Y-15553689D02*
X16236105Y-15544165D01*
X16236105Y-15544165D02*
X16226581Y-15534641D01*
X16226581Y-15534641D02*
X16217057Y-15515594D01*
X16217057Y-15515594D02*
X16217057Y-15458451D01*
X16217057Y-15458451D02*
X16226581Y-15439403D01*
X16226581Y-15439403D02*
X16236105Y-15429879D01*
X16236105Y-15429879D02*
X16255152Y-15420356D01*
X16255152Y-15420356D02*
X16293248Y-15420356D01*
X16293248Y-15420356D02*
X16312295Y-15429879D01*
X16388486Y-15629879D02*
X16398009Y-15620356D01*
X16398009Y-15620356D02*
X16417057Y-15591784D01*
X16417057Y-15591784D02*
X16426581Y-15572737D01*
X16426581Y-15572737D02*
X16436105Y-15544165D01*
X16436105Y-15544165D02*
X16445628Y-15496546D01*
X16445628Y-15496546D02*
X16445628Y-15458451D01*
X16445628Y-15458451D02*
X16436105Y-15410832D01*
X16436105Y-15410832D02*
X16426581Y-15382260D01*
X16426581Y-15382260D02*
X16417057Y-15363213D01*
X16417057Y-15363213D02*
X16398009Y-15334641D01*
X16398009Y-15334641D02*
X16388486Y-15325117D01*
X9412705Y-15852917D02*
X9412705Y-15711494D01*
X9271283Y-15711494D01*
X9271283Y-15852917D01*
X9412705Y-15852917D01*
X9798009Y-15673689D02*
X9702771Y-15673689D01*
X9702771Y-15673689D02*
X9693247Y-15768927D01*
X9693247Y-15768927D02*
X9702771Y-15759403D01*
X9702771Y-15759403D02*
X9721818Y-15749879D01*
X9721818Y-15749879D02*
X9769438Y-15749879D01*
X9769438Y-15749879D02*
X9788485Y-15759403D01*
X9788485Y-15759403D02*
X9798009Y-15768927D01*
X9798009Y-15768927D02*
X9807533Y-15787975D01*
X9807533Y-15787975D02*
X9807533Y-15835594D01*
X9807533Y-15835594D02*
X9798009Y-15854641D01*
X9798009Y-15854641D02*
X9788485Y-15864165D01*
X9788485Y-15864165D02*
X9769438Y-15873689D01*
X9769438Y-15873689D02*
X9721818Y-15873689D01*
X9721818Y-15873689D02*
X9702771Y-15864165D01*
X9702771Y-15864165D02*
X9693247Y-15854641D01*
X9893247Y-15854641D02*
X9902771Y-15864165D01*
X9902771Y-15864165D02*
X9893247Y-15873689D01*
X9893247Y-15873689D02*
X9883723Y-15864165D01*
X9883723Y-15864165D02*
X9893247Y-15854641D01*
X9893247Y-15854641D02*
X9893247Y-15873689D01*
X9969438Y-15673689D02*
X10102771Y-15673689D01*
X10102771Y-15673689D02*
X10017057Y-15873689D01*
X10217057Y-15673689D02*
X10236104Y-15673689D01*
X10236104Y-15673689D02*
X10255152Y-15683213D01*
X10255152Y-15683213D02*
X10264676Y-15692737D01*
X10264676Y-15692737D02*
X10274199Y-15711784D01*
X10274199Y-15711784D02*
X10283723Y-15749879D01*
X10283723Y-15749879D02*
X10283723Y-15797498D01*
X10283723Y-15797498D02*
X10274199Y-15835594D01*
X10274199Y-15835594D02*
X10264676Y-15854641D01*
X10264676Y-15854641D02*
X10255152Y-15864165D01*
X10255152Y-15864165D02*
X10236104Y-15873689D01*
X10236104Y-15873689D02*
X10217057Y-15873689D01*
X10217057Y-15873689D02*
X10198009Y-15864165D01*
X10198009Y-15864165D02*
X10188485Y-15854641D01*
X10188485Y-15854641D02*
X10178961Y-15835594D01*
X10178961Y-15835594D02*
X10169438Y-15797498D01*
X10169438Y-15797498D02*
X10169438Y-15749879D01*
X10169438Y-15749879D02*
X10178961Y-15711784D01*
X10178961Y-15711784D02*
X10188485Y-15692737D01*
X10188485Y-15692737D02*
X10198009Y-15683213D01*
X10198009Y-15683213D02*
X10217057Y-15673689D01*
X10407533Y-15673689D02*
X10426580Y-15673689D01*
X10426580Y-15673689D02*
X10445628Y-15683213D01*
X10445628Y-15683213D02*
X10455152Y-15692737D01*
X10455152Y-15692737D02*
X10464676Y-15711784D01*
X10464676Y-15711784D02*
X10474199Y-15749879D01*
X10474199Y-15749879D02*
X10474199Y-15797498D01*
X10474199Y-15797498D02*
X10464676Y-15835594D01*
X10464676Y-15835594D02*
X10455152Y-15854641D01*
X10455152Y-15854641D02*
X10445628Y-15864165D01*
X10445628Y-15864165D02*
X10426580Y-15873689D01*
X10426580Y-15873689D02*
X10407533Y-15873689D01*
X10407533Y-15873689D02*
X10388485Y-15864165D01*
X10388485Y-15864165D02*
X10378961Y-15854641D01*
X10378961Y-15854641D02*
X10369438Y-15835594D01*
X10369438Y-15835594D02*
X10359914Y-15797498D01*
X10359914Y-15797498D02*
X10359914Y-15749879D01*
X10359914Y-15749879D02*
X10369438Y-15711784D01*
X10369438Y-15711784D02*
X10378961Y-15692737D01*
X10378961Y-15692737D02*
X10388485Y-15683213D01*
X10388485Y-15683213D02*
X10407533Y-15673689D01*
X10559914Y-15873689D02*
X10559914Y-15740356D01*
X10559914Y-15759403D02*
X10569438Y-15749879D01*
X10569438Y-15749879D02*
X10588485Y-15740356D01*
X10588485Y-15740356D02*
X10617057Y-15740356D01*
X10617057Y-15740356D02*
X10636104Y-15749879D01*
X10636104Y-15749879D02*
X10645628Y-15768927D01*
X10645628Y-15768927D02*
X10645628Y-15873689D01*
X10645628Y-15768927D02*
X10655152Y-15749879D01*
X10655152Y-15749879D02*
X10674199Y-15740356D01*
X10674199Y-15740356D02*
X10702771Y-15740356D01*
X10702771Y-15740356D02*
X10721819Y-15749879D01*
X10721819Y-15749879D02*
X10731342Y-15768927D01*
X10731342Y-15768927D02*
X10731342Y-15873689D01*
X10826580Y-15873689D02*
X10826580Y-15740356D01*
X10826580Y-15759403D02*
X10836104Y-15749879D01*
X10836104Y-15749879D02*
X10855152Y-15740356D01*
X10855152Y-15740356D02*
X10883723Y-15740356D01*
X10883723Y-15740356D02*
X10902771Y-15749879D01*
X10902771Y-15749879D02*
X10912295Y-15768927D01*
X10912295Y-15768927D02*
X10912295Y-15873689D01*
X10912295Y-15768927D02*
X10921819Y-15749879D01*
X10921819Y-15749879D02*
X10940866Y-15740356D01*
X10940866Y-15740356D02*
X10969438Y-15740356D01*
X10969438Y-15740356D02*
X10988485Y-15749879D01*
X10988485Y-15749879D02*
X10998009Y-15768927D01*
X10998009Y-15768927D02*
X10998009Y-15873689D01*
X11388485Y-15664165D02*
X11217057Y-15921308D01*
X11645628Y-15673689D02*
X11664676Y-15673689D01*
X11664676Y-15673689D02*
X11683723Y-15683213D01*
X11683723Y-15683213D02*
X11693247Y-15692737D01*
X11693247Y-15692737D02*
X11702771Y-15711784D01*
X11702771Y-15711784D02*
X11712295Y-15749879D01*
X11712295Y-15749879D02*
X11712295Y-15797498D01*
X11712295Y-15797498D02*
X11702771Y-15835594D01*
X11702771Y-15835594D02*
X11693247Y-15854641D01*
X11693247Y-15854641D02*
X11683723Y-15864165D01*
X11683723Y-15864165D02*
X11664676Y-15873689D01*
X11664676Y-15873689D02*
X11645628Y-15873689D01*
X11645628Y-15873689D02*
X11626580Y-15864165D01*
X11626580Y-15864165D02*
X11617057Y-15854641D01*
X11617057Y-15854641D02*
X11607533Y-15835594D01*
X11607533Y-15835594D02*
X11598009Y-15797498D01*
X11598009Y-15797498D02*
X11598009Y-15749879D01*
X11598009Y-15749879D02*
X11607533Y-15711784D01*
X11607533Y-15711784D02*
X11617057Y-15692737D01*
X11617057Y-15692737D02*
X11626580Y-15683213D01*
X11626580Y-15683213D02*
X11645628Y-15673689D01*
X11798009Y-15854641D02*
X11807533Y-15864165D01*
X11807533Y-15864165D02*
X11798009Y-15873689D01*
X11798009Y-15873689D02*
X11788485Y-15864165D01*
X11788485Y-15864165D02*
X11798009Y-15854641D01*
X11798009Y-15854641D02*
X11798009Y-15873689D01*
X11883723Y-15692737D02*
X11893247Y-15683213D01*
X11893247Y-15683213D02*
X11912295Y-15673689D01*
X11912295Y-15673689D02*
X11959914Y-15673689D01*
X11959914Y-15673689D02*
X11978961Y-15683213D01*
X11978961Y-15683213D02*
X11988485Y-15692737D01*
X11988485Y-15692737D02*
X11998009Y-15711784D01*
X11998009Y-15711784D02*
X11998009Y-15730832D01*
X11998009Y-15730832D02*
X11988485Y-15759403D01*
X11988485Y-15759403D02*
X11874200Y-15873689D01*
X11874200Y-15873689D02*
X11998009Y-15873689D01*
X12074200Y-15692737D02*
X12083723Y-15683213D01*
X12083723Y-15683213D02*
X12102771Y-15673689D01*
X12102771Y-15673689D02*
X12150390Y-15673689D01*
X12150390Y-15673689D02*
X12169438Y-15683213D01*
X12169438Y-15683213D02*
X12178961Y-15692737D01*
X12178961Y-15692737D02*
X12188485Y-15711784D01*
X12188485Y-15711784D02*
X12188485Y-15730832D01*
X12188485Y-15730832D02*
X12178961Y-15759403D01*
X12178961Y-15759403D02*
X12064676Y-15873689D01*
X12064676Y-15873689D02*
X12188485Y-15873689D01*
X12359914Y-15740356D02*
X12359914Y-15873689D01*
X12312295Y-15664165D02*
X12264676Y-15807022D01*
X12264676Y-15807022D02*
X12388485Y-15807022D01*
X12550390Y-15740356D02*
X12550390Y-15873689D01*
X12502771Y-15664165D02*
X12455152Y-15807022D01*
X12455152Y-15807022D02*
X12578961Y-15807022D01*
X12645628Y-15673689D02*
X12645628Y-15711784D01*
X12721819Y-15673689D02*
X12721819Y-15711784D01*
X13017057Y-15949879D02*
X13007533Y-15940356D01*
X13007533Y-15940356D02*
X12988485Y-15911784D01*
X12988485Y-15911784D02*
X12978962Y-15892737D01*
X12978962Y-15892737D02*
X12969438Y-15864165D01*
X12969438Y-15864165D02*
X12959914Y-15816546D01*
X12959914Y-15816546D02*
X12959914Y-15778451D01*
X12959914Y-15778451D02*
X12969438Y-15730832D01*
X12969438Y-15730832D02*
X12978962Y-15702260D01*
X12978962Y-15702260D02*
X12988485Y-15683213D01*
X12988485Y-15683213D02*
X13007533Y-15654641D01*
X13007533Y-15654641D02*
X13017057Y-15645117D01*
X13178962Y-15740356D02*
X13178962Y-15873689D01*
X13131342Y-15664165D02*
X13083723Y-15807022D01*
X13083723Y-15807022D02*
X13207533Y-15807022D01*
X13436104Y-15873689D02*
X13436104Y-15673689D01*
X13521819Y-15873689D02*
X13521819Y-15768927D01*
X13521819Y-15768927D02*
X13512295Y-15749879D01*
X13512295Y-15749879D02*
X13493247Y-15740356D01*
X13493247Y-15740356D02*
X13464676Y-15740356D01*
X13464676Y-15740356D02*
X13445628Y-15749879D01*
X13445628Y-15749879D02*
X13436104Y-15759403D01*
X13645628Y-15873689D02*
X13626581Y-15864165D01*
X13626581Y-15864165D02*
X13617057Y-15854641D01*
X13617057Y-15854641D02*
X13607533Y-15835594D01*
X13607533Y-15835594D02*
X13607533Y-15778451D01*
X13607533Y-15778451D02*
X13617057Y-15759403D01*
X13617057Y-15759403D02*
X13626581Y-15749879D01*
X13626581Y-15749879D02*
X13645628Y-15740356D01*
X13645628Y-15740356D02*
X13674200Y-15740356D01*
X13674200Y-15740356D02*
X13693247Y-15749879D01*
X13693247Y-15749879D02*
X13702771Y-15759403D01*
X13702771Y-15759403D02*
X13712295Y-15778451D01*
X13712295Y-15778451D02*
X13712295Y-15835594D01*
X13712295Y-15835594D02*
X13702771Y-15854641D01*
X13702771Y-15854641D02*
X13693247Y-15864165D01*
X13693247Y-15864165D02*
X13674200Y-15873689D01*
X13674200Y-15873689D02*
X13645628Y-15873689D01*
X13826581Y-15873689D02*
X13807533Y-15864165D01*
X13807533Y-15864165D02*
X13798009Y-15845117D01*
X13798009Y-15845117D02*
X13798009Y-15673689D01*
X13978962Y-15864165D02*
X13959914Y-15873689D01*
X13959914Y-15873689D02*
X13921819Y-15873689D01*
X13921819Y-15873689D02*
X13902771Y-15864165D01*
X13902771Y-15864165D02*
X13893247Y-15845117D01*
X13893247Y-15845117D02*
X13893247Y-15768927D01*
X13893247Y-15768927D02*
X13902771Y-15749879D01*
X13902771Y-15749879D02*
X13921819Y-15740356D01*
X13921819Y-15740356D02*
X13959914Y-15740356D01*
X13959914Y-15740356D02*
X13978962Y-15749879D01*
X13978962Y-15749879D02*
X13988485Y-15768927D01*
X13988485Y-15768927D02*
X13988485Y-15787975D01*
X13988485Y-15787975D02*
X13893247Y-15807022D01*
X14064676Y-15864165D02*
X14083724Y-15873689D01*
X14083724Y-15873689D02*
X14121819Y-15873689D01*
X14121819Y-15873689D02*
X14140866Y-15864165D01*
X14140866Y-15864165D02*
X14150390Y-15845117D01*
X14150390Y-15845117D02*
X14150390Y-15835594D01*
X14150390Y-15835594D02*
X14140866Y-15816546D01*
X14140866Y-15816546D02*
X14121819Y-15807022D01*
X14121819Y-15807022D02*
X14093247Y-15807022D01*
X14093247Y-15807022D02*
X14074200Y-15797498D01*
X14074200Y-15797498D02*
X14064676Y-15778451D01*
X14064676Y-15778451D02*
X14064676Y-15768927D01*
X14064676Y-15768927D02*
X14074200Y-15749879D01*
X14074200Y-15749879D02*
X14093247Y-15740356D01*
X14093247Y-15740356D02*
X14121819Y-15740356D01*
X14121819Y-15740356D02*
X14140866Y-15749879D01*
X14217057Y-15949879D02*
X14226581Y-15940356D01*
X14226581Y-15940356D02*
X14245628Y-15911784D01*
X14245628Y-15911784D02*
X14255152Y-15892737D01*
X14255152Y-15892737D02*
X14264676Y-15864165D01*
X14264676Y-15864165D02*
X14274200Y-15816546D01*
X14274200Y-15816546D02*
X14274200Y-15778451D01*
X14274200Y-15778451D02*
X14264676Y-15730832D01*
X14264676Y-15730832D02*
X14255152Y-15702260D01*
X14255152Y-15702260D02*
X14245628Y-15683213D01*
X14245628Y-15683213D02*
X14226581Y-15654641D01*
X14226581Y-15654641D02*
X14217057Y-15645117D01*
X14578962Y-15949879D02*
X14569438Y-15940356D01*
X14569438Y-15940356D02*
X14550390Y-15911784D01*
X14550390Y-15911784D02*
X14540866Y-15892737D01*
X14540866Y-15892737D02*
X14531343Y-15864165D01*
X14531343Y-15864165D02*
X14521819Y-15816546D01*
X14521819Y-15816546D02*
X14521819Y-15778451D01*
X14521819Y-15778451D02*
X14531343Y-15730832D01*
X14531343Y-15730832D02*
X14540866Y-15702260D01*
X14540866Y-15702260D02*
X14550390Y-15683213D01*
X14550390Y-15683213D02*
X14569438Y-15654641D01*
X14569438Y-15654641D02*
X14578962Y-15645117D01*
X14655152Y-15740356D02*
X14655152Y-15873689D01*
X14655152Y-15759403D02*
X14664676Y-15749879D01*
X14664676Y-15749879D02*
X14683724Y-15740356D01*
X14683724Y-15740356D02*
X14712295Y-15740356D01*
X14712295Y-15740356D02*
X14731343Y-15749879D01*
X14731343Y-15749879D02*
X14740866Y-15768927D01*
X14740866Y-15768927D02*
X14740866Y-15873689D01*
X14864676Y-15873689D02*
X14845628Y-15864165D01*
X14845628Y-15864165D02*
X14836105Y-15854641D01*
X14836105Y-15854641D02*
X14826581Y-15835594D01*
X14826581Y-15835594D02*
X14826581Y-15778451D01*
X14826581Y-15778451D02*
X14836105Y-15759403D01*
X14836105Y-15759403D02*
X14845628Y-15749879D01*
X14845628Y-15749879D02*
X14864676Y-15740356D01*
X14864676Y-15740356D02*
X14893247Y-15740356D01*
X14893247Y-15740356D02*
X14912295Y-15749879D01*
X14912295Y-15749879D02*
X14921819Y-15759403D01*
X14921819Y-15759403D02*
X14931343Y-15778451D01*
X14931343Y-15778451D02*
X14931343Y-15835594D01*
X14931343Y-15835594D02*
X14921819Y-15854641D01*
X14921819Y-15854641D02*
X14912295Y-15864165D01*
X14912295Y-15864165D02*
X14893247Y-15873689D01*
X14893247Y-15873689D02*
X14864676Y-15873689D01*
X14988486Y-15740356D02*
X15064676Y-15740356D01*
X15017057Y-15673689D02*
X15017057Y-15845117D01*
X15017057Y-15845117D02*
X15026581Y-15864165D01*
X15026581Y-15864165D02*
X15045628Y-15873689D01*
X15045628Y-15873689D02*
X15064676Y-15873689D01*
X15283724Y-15740356D02*
X15283724Y-15940356D01*
X15283724Y-15749879D02*
X15302771Y-15740356D01*
X15302771Y-15740356D02*
X15340867Y-15740356D01*
X15340867Y-15740356D02*
X15359914Y-15749879D01*
X15359914Y-15749879D02*
X15369438Y-15759403D01*
X15369438Y-15759403D02*
X15378962Y-15778451D01*
X15378962Y-15778451D02*
X15378962Y-15835594D01*
X15378962Y-15835594D02*
X15369438Y-15854641D01*
X15369438Y-15854641D02*
X15359914Y-15864165D01*
X15359914Y-15864165D02*
X15340867Y-15873689D01*
X15340867Y-15873689D02*
X15302771Y-15873689D01*
X15302771Y-15873689D02*
X15283724Y-15864165D01*
X15493247Y-15873689D02*
X15474200Y-15864165D01*
X15474200Y-15864165D02*
X15464676Y-15845117D01*
X15464676Y-15845117D02*
X15464676Y-15673689D01*
X15655152Y-15873689D02*
X15655152Y-15768927D01*
X15655152Y-15768927D02*
X15645628Y-15749879D01*
X15645628Y-15749879D02*
X15626581Y-15740356D01*
X15626581Y-15740356D02*
X15588486Y-15740356D01*
X15588486Y-15740356D02*
X15569438Y-15749879D01*
X15655152Y-15864165D02*
X15636105Y-15873689D01*
X15636105Y-15873689D02*
X15588486Y-15873689D01*
X15588486Y-15873689D02*
X15569438Y-15864165D01*
X15569438Y-15864165D02*
X15559914Y-15845117D01*
X15559914Y-15845117D02*
X15559914Y-15826070D01*
X15559914Y-15826070D02*
X15569438Y-15807022D01*
X15569438Y-15807022D02*
X15588486Y-15797498D01*
X15588486Y-15797498D02*
X15636105Y-15797498D01*
X15636105Y-15797498D02*
X15655152Y-15787975D01*
X15721819Y-15740356D02*
X15798009Y-15740356D01*
X15750390Y-15673689D02*
X15750390Y-15845117D01*
X15750390Y-15845117D02*
X15759914Y-15864165D01*
X15759914Y-15864165D02*
X15778962Y-15873689D01*
X15778962Y-15873689D02*
X15798009Y-15873689D01*
X15940867Y-15864165D02*
X15921819Y-15873689D01*
X15921819Y-15873689D02*
X15883724Y-15873689D01*
X15883724Y-15873689D02*
X15864676Y-15864165D01*
X15864676Y-15864165D02*
X15855152Y-15845117D01*
X15855152Y-15845117D02*
X15855152Y-15768927D01*
X15855152Y-15768927D02*
X15864676Y-15749879D01*
X15864676Y-15749879D02*
X15883724Y-15740356D01*
X15883724Y-15740356D02*
X15921819Y-15740356D01*
X15921819Y-15740356D02*
X15940867Y-15749879D01*
X15940867Y-15749879D02*
X15950390Y-15768927D01*
X15950390Y-15768927D02*
X15950390Y-15787975D01*
X15950390Y-15787975D02*
X15855152Y-15807022D01*
X16121819Y-15873689D02*
X16121819Y-15673689D01*
X16121819Y-15864165D02*
X16102771Y-15873689D01*
X16102771Y-15873689D02*
X16064676Y-15873689D01*
X16064676Y-15873689D02*
X16045628Y-15864165D01*
X16045628Y-15864165D02*
X16036105Y-15854641D01*
X16036105Y-15854641D02*
X16026581Y-15835594D01*
X16026581Y-15835594D02*
X16026581Y-15778451D01*
X16026581Y-15778451D02*
X16036105Y-15759403D01*
X16036105Y-15759403D02*
X16045628Y-15749879D01*
X16045628Y-15749879D02*
X16064676Y-15740356D01*
X16064676Y-15740356D02*
X16102771Y-15740356D01*
X16102771Y-15740356D02*
X16121819Y-15749879D01*
X16198009Y-15949879D02*
X16207533Y-15940356D01*
X16207533Y-15940356D02*
X16226581Y-15911784D01*
X16226581Y-15911784D02*
X16236105Y-15892737D01*
X16236105Y-15892737D02*
X16245628Y-15864165D01*
X16245628Y-15864165D02*
X16255152Y-15816546D01*
X16255152Y-15816546D02*
X16255152Y-15778451D01*
X16255152Y-15778451D02*
X16245628Y-15730832D01*
X16245628Y-15730832D02*
X16236105Y-15702260D01*
X16236105Y-15702260D02*
X16226581Y-15683213D01*
X16226581Y-15683213D02*
X16207533Y-15654641D01*
X16207533Y-15654641D02*
X16198009Y-15645117D01*
M02*
