%TF.GenerationSoftware,KiCad,Pcbnew,8.0.5*%
%TF.CreationDate,2024-10-10T02:33:34+03:00*%
%TF.ProjectId,1_3S,315f3353-2e6b-4696-9361-645f70636258,rev?*%
%TF.SameCoordinates,Original*%
%TF.FileFunction,Drillmap*%
%TF.FilePolarity,Positive*%
%FSLAX45Y45*%
G04 Gerber Fmt 4.5, Leading zero omitted, Abs format (unit mm)*
G04 Created by KiCad (PCBNEW 8.0.5) date 2024-10-10 02:33:34*
%MOMM*%
%LPD*%
G01*
G04 APERTURE LIST*
%ADD10C,0.120000*%
%ADD11C,0.200000*%
%ADD12C,0.100000*%
G04 APERTURE END LIST*
D10*
X21196300Y-5561605D02*
X20780000Y-5561605D01*
X11350000Y-5424098D02*
G75*
G02*
X11450000Y-5324100I100000J-2D01*
G01*
X21196301Y-5561598D02*
G75*
G02*
X21300004Y-5661598I-1J-103772D01*
G01*
X11250000Y-11298385D02*
G75*
G02*
X11150000Y-11398380I-99990J-5D01*
G01*
X11150000Y-11398385D02*
X9548000Y-11399098D01*
X17050805Y-5561893D02*
G75*
G02*
X16949997Y-5490001I-10505J91893D01*
G01*
X17898000Y-13370097D02*
X16060000Y-12874097D01*
X14150000Y-10924099D02*
G75*
G02*
X14250001Y-11024099I0J-100001D01*
G01*
X13250000Y-5191125D02*
G75*
G02*
X13350000Y-5087885I100180J3015D01*
G01*
X21300000Y-5661598D02*
X21300000Y-10998200D01*
X15164850Y-5325889D02*
X16850000Y-5325889D01*
X19520000Y-14201651D02*
G75*
G02*
X19379998Y-14220004I-84530J101651D01*
G01*
X14250000Y-12770000D02*
X14250000Y-11024099D01*
X19380000Y-14220000D02*
X17898000Y-13370097D01*
X16850000Y-5325889D02*
G75*
G02*
X16950002Y-5389999I3620J-104401D01*
G01*
X11450000Y-5324098D02*
X13116350Y-5324748D01*
X17050805Y-5561893D02*
X19320000Y-5561605D01*
X9448000Y-5904481D02*
G75*
G02*
X9553634Y-5799814I103560J1122D01*
G01*
X21196300Y-11315700D02*
X19520000Y-14201651D01*
X11250000Y-11024090D02*
G75*
G02*
X11350000Y-10924090I100010J-10D01*
G01*
X15164850Y-5325889D02*
G75*
G02*
X15049995Y-5251189I-20070J94789D01*
G01*
X9448000Y-11299098D02*
X9448000Y-5904481D01*
X14350000Y-12874071D02*
G75*
G02*
X14249999Y-12770000I40130J138641D01*
G01*
X13350000Y-5087879D02*
X14950000Y-5088169D01*
X11350000Y-5699095D02*
G75*
G02*
X11250000Y-5799090I-100000J5D01*
G01*
X16950000Y-5490000D02*
X16950000Y-5390000D01*
X11250000Y-11298385D02*
X11250000Y-11024090D01*
X14950000Y-5088169D02*
G75*
G02*
X15050001Y-5188336I-80J-100081D01*
G01*
X9548000Y-11399098D02*
G75*
G02*
X9448000Y-11299098I-1J99999D01*
G01*
X9553634Y-5799814D02*
X11250000Y-5799098D01*
X16060000Y-12874097D02*
X14350000Y-12874071D01*
X13250000Y-5191125D02*
G75*
G02*
X13116350Y-5324748I-122930J-10695D01*
G01*
X15050000Y-5188336D02*
X15050000Y-5251188D01*
X14150000Y-10924099D02*
X11350000Y-10924099D01*
X11350000Y-5699095D02*
X11350000Y-5424098D01*
X21300000Y-10998200D02*
G75*
G02*
X21196299Y-11315699I-726000J61440D01*
G01*
X19014400Y-11380600D02*
X19014400Y-8380600D01*
X19114400Y-8280600D02*
X20814400Y-8280600D01*
X20814400Y-11480600D02*
X19114400Y-11480600D01*
X20914400Y-8380600D02*
X20914400Y-11380600D01*
X19014400Y-8380600D02*
G75*
G02*
X19114400Y-8280600I100005J-5D01*
G01*
X19114400Y-11480600D02*
G75*
G02*
X19014400Y-11380600I2J100002D01*
G01*
X20814400Y-8280600D02*
G75*
G02*
X20914400Y-8380600I0J-100000D01*
G01*
X20914400Y-11380600D02*
G75*
G02*
X20814400Y-11480600I-99995J-5D01*
G01*
X19370000Y-5611605D02*
X19370000Y-7591605D01*
X19470000Y-7691605D02*
X20630000Y-7691605D01*
X20730000Y-7591605D02*
X20730000Y-5611605D01*
X19320000Y-5561605D02*
G75*
G02*
X19370000Y-5611605I0J-50000D01*
G01*
X19470000Y-7691605D02*
G75*
G02*
X19370000Y-7591605I0J100000D01*
G01*
X20730000Y-5611605D02*
G75*
G02*
X20780000Y-5561605I50000J0D01*
G01*
X20730000Y-7591605D02*
G75*
G02*
X20630000Y-7691605I-100000J0D01*
G01*
D11*
D12*
X9530000Y-8780000D02*
X9570000Y-8820000D01*
X9570000Y-8780000D02*
X9530000Y-8820000D01*
X9700000Y-10690000D02*
X9740000Y-10730000D01*
X9740000Y-10690000D02*
X9700000Y-10730000D01*
X9847900Y-7528200D02*
X9887900Y-7568200D01*
X9887900Y-7528200D02*
X9847900Y-7568200D01*
X9936800Y-9877700D02*
X9976800Y-9917700D01*
X9976800Y-9877700D02*
X9936800Y-9917700D01*
X9950000Y-7680000D02*
X9990000Y-7720000D01*
X9990000Y-7680000D02*
X9950000Y-7720000D01*
X9980000Y-8110000D02*
X10020000Y-8150000D01*
X10020000Y-8110000D02*
X9980000Y-8150000D01*
X10660700Y-7883800D02*
X10700700Y-7923800D01*
X10700700Y-7883800D02*
X10660700Y-7923800D01*
X10675600Y-8211800D02*
X10715600Y-8251800D01*
X10715600Y-8211800D02*
X10675600Y-8251800D01*
X10724200Y-9928500D02*
X10764200Y-9968500D01*
X10764200Y-9928500D02*
X10724200Y-9968500D01*
X10952800Y-10729097D02*
X10992800Y-10769097D01*
X10992800Y-10729097D02*
X10952800Y-10769097D01*
X10980000Y-8829097D02*
X11020000Y-8869097D01*
X11020000Y-8829097D02*
X10980000Y-8869097D01*
X11054400Y-6914200D02*
X11094400Y-6954200D01*
X11094400Y-6914200D02*
X11054400Y-6954200D01*
X11430000Y-8300000D02*
X11470000Y-8340000D01*
X11470000Y-8300000D02*
X11430000Y-8340000D01*
X11430000Y-10250000D02*
X11470000Y-10290000D01*
X11470000Y-10250000D02*
X11430000Y-10290000D01*
X11600000Y-7020000D02*
X11640000Y-7060000D01*
X11640000Y-7020000D02*
X11600000Y-7060000D01*
X11830000Y-7200000D02*
X11870000Y-7240000D01*
X11870000Y-7200000D02*
X11830000Y-7240000D01*
X11830000Y-9420000D02*
X11870000Y-9460000D01*
X11870000Y-9420000D02*
X11830000Y-9460000D01*
X11892600Y-7645900D02*
X11932600Y-7685900D01*
X11932600Y-7645900D02*
X11892600Y-7685900D01*
X12580000Y-7630000D02*
X12620000Y-7670000D01*
X12620000Y-7630000D02*
X12580000Y-7670000D01*
X12630000Y-9380000D02*
X12670000Y-9420000D01*
X12670000Y-9380000D02*
X12630000Y-9420000D01*
X12640000Y-7250000D02*
X12680000Y-7290000D01*
X12680000Y-7250000D02*
X12640000Y-7290000D01*
X12880000Y-6954097D02*
X12920000Y-6994097D01*
X12920000Y-6954097D02*
X12880000Y-6994097D01*
X12880000Y-8354097D02*
X12920000Y-8394097D01*
X12920000Y-8354097D02*
X12880000Y-8394097D01*
X12880000Y-10254097D02*
X12920000Y-10294097D01*
X12920000Y-10254097D02*
X12880000Y-10294097D01*
X13330000Y-6816597D02*
X13370000Y-6856597D01*
X13370000Y-6816597D02*
X13330000Y-6856597D01*
X13330000Y-9895500D02*
X13370000Y-9935500D01*
X13370000Y-9895500D02*
X13330000Y-9935500D01*
X13353100Y-8104800D02*
X13393100Y-8144800D01*
X13393100Y-8104800D02*
X13353100Y-8144800D01*
X13700000Y-6990000D02*
X13740000Y-7030000D01*
X13740000Y-6990000D02*
X13700000Y-7030000D01*
X13740000Y-9250000D02*
X13780000Y-9290000D01*
X13780000Y-9250000D02*
X13740000Y-9290000D01*
X13820294Y-7546494D02*
X13860294Y-7586494D01*
X13860294Y-7546494D02*
X13820294Y-7586494D01*
X14381800Y-6825300D02*
X14421800Y-6865300D01*
X14421800Y-6825300D02*
X14381800Y-6865300D01*
X14470000Y-12160000D02*
X14510000Y-12200000D01*
X14510000Y-12160000D02*
X14470000Y-12200000D01*
X14483400Y-9378000D02*
X14523400Y-9418000D01*
X14523400Y-9378000D02*
X14483400Y-9418000D01*
X14534200Y-7231700D02*
X14574200Y-7271700D01*
X14574200Y-7231700D02*
X14534200Y-7271700D01*
X14750000Y-11410000D02*
X14790000Y-11450000D01*
X14790000Y-11410000D02*
X14750000Y-11450000D01*
X14780000Y-6830000D02*
X14820000Y-6870000D01*
X14820000Y-6830000D02*
X14780000Y-6870000D01*
X14780000Y-8666800D02*
X14820000Y-8706800D01*
X14820000Y-8666800D02*
X14780000Y-8706800D01*
X14780000Y-10000000D02*
X14820000Y-10040000D01*
X14820000Y-10000000D02*
X14780000Y-10040000D01*
X15090000Y-6990000D02*
X15130000Y-7030000D01*
X15130000Y-6990000D02*
X15090000Y-7030000D01*
X15232545Y-8122300D02*
X15272545Y-8162300D01*
X15272545Y-8122300D02*
X15232545Y-8162300D01*
X15330000Y-10180000D02*
X15370000Y-10220000D01*
X15370000Y-10180000D02*
X15330000Y-10220000D01*
X15397800Y-11156000D02*
X15437800Y-11196000D01*
X15437800Y-11156000D02*
X15397800Y-11196000D01*
X15600000Y-9470000D02*
X15640000Y-9510000D01*
X15640000Y-9470000D02*
X15600000Y-9510000D01*
X15601000Y-7752400D02*
X15641000Y-7792400D01*
X15641000Y-7752400D02*
X15601000Y-7792400D01*
X15626400Y-7244400D02*
X15666400Y-7284400D01*
X15666400Y-7244400D02*
X15626400Y-7284400D01*
X15780000Y-12204070D02*
X15820000Y-12244070D01*
X15820000Y-12204070D02*
X15780000Y-12244070D01*
X16380000Y-12190000D02*
X16420000Y-12230000D01*
X16420000Y-12190000D02*
X16380000Y-12230000D01*
X16401100Y-7536500D02*
X16441100Y-7576500D01*
X16441100Y-7536500D02*
X16401100Y-7576500D01*
X16422750Y-7222750D02*
X16462750Y-7262750D01*
X16462750Y-7222750D02*
X16422750Y-7262750D01*
X16506394Y-9470000D02*
X16546394Y-9510000D01*
X16546394Y-9470000D02*
X16506394Y-9510000D01*
X16595132Y-7079300D02*
X16635132Y-7119300D01*
X16635132Y-7079300D02*
X16595132Y-7119300D01*
X16680000Y-8254097D02*
X16720000Y-8294097D01*
X16720000Y-8254097D02*
X16680000Y-8294097D01*
X16680000Y-10154097D02*
X16720000Y-10194097D01*
X16720000Y-10154097D02*
X16680000Y-10194097D01*
X16980000Y-11600000D02*
X17020000Y-11640000D01*
X17020000Y-11600000D02*
X16980000Y-11640000D01*
X17061500Y-6291900D02*
X17101500Y-6331900D01*
X17101500Y-6291900D02*
X17061500Y-6331900D01*
X17130000Y-8550000D02*
X17170000Y-8590000D01*
X17170000Y-8550000D02*
X17130000Y-8590000D01*
X17130000Y-10450000D02*
X17170000Y-10490000D01*
X17170000Y-10450000D02*
X17130000Y-10490000D01*
X17366300Y-5987100D02*
X17406300Y-6027100D01*
X17406300Y-5987100D02*
X17366300Y-6027100D01*
X17455200Y-7219000D02*
X17495200Y-7259000D01*
X17495200Y-7219000D02*
X17455200Y-7259000D01*
X17500000Y-9640000D02*
X17540000Y-9680000D01*
X17540000Y-9640000D02*
X17500000Y-9680000D01*
X17540000Y-7840000D02*
X17580000Y-7880000D01*
X17580000Y-7840000D02*
X17540000Y-7880000D01*
X17544100Y-7434900D02*
X17584100Y-7474900D01*
X17584100Y-7434900D02*
X17544100Y-7474900D01*
X17660550Y-11399450D02*
X17700550Y-11439450D01*
X17700550Y-11399450D02*
X17660550Y-11439450D01*
X17797216Y-12691597D02*
X17837216Y-12731597D01*
X17837216Y-12691597D02*
X17797216Y-12731597D01*
X18329186Y-7866700D02*
X18369186Y-7906700D01*
X18369186Y-7866700D02*
X18329186Y-7906700D01*
X18350000Y-7490000D02*
X18390000Y-7530000D01*
X18390000Y-7490000D02*
X18350000Y-7530000D01*
X18350000Y-9620000D02*
X18390000Y-9660000D01*
X18390000Y-9620000D02*
X18350000Y-9660000D01*
X18458500Y-6152200D02*
X18498500Y-6192200D01*
X18498500Y-6152200D02*
X18458500Y-6192200D01*
X18458500Y-7269800D02*
X18498500Y-7309800D01*
X18498500Y-7269800D02*
X18458500Y-7309800D01*
X18458500Y-8463600D02*
X18498500Y-8503600D01*
X18498500Y-8463600D02*
X18458500Y-8503600D01*
X18460000Y-12870000D02*
X18500000Y-12910000D01*
X18500000Y-12870000D02*
X18460000Y-12910000D01*
X18534700Y-8235000D02*
X18574700Y-8275000D01*
X18574700Y-8235000D02*
X18534700Y-8275000D01*
X18580000Y-10491597D02*
X18620000Y-10531597D01*
X18620000Y-10491597D02*
X18580000Y-10531597D01*
X18623600Y-7358700D02*
X18663600Y-7398700D01*
X18663600Y-7358700D02*
X18623600Y-7398700D01*
X18636300Y-8146100D02*
X18676300Y-8186100D01*
X18676300Y-8146100D02*
X18636300Y-8186100D01*
X18725200Y-8082600D02*
X18765200Y-8122600D01*
X18765200Y-8082600D02*
X18725200Y-8122600D01*
X18801400Y-6253800D02*
X18841400Y-6293800D01*
X18841400Y-6253800D02*
X18801400Y-6293800D01*
X18801400Y-6380800D02*
X18841400Y-6420800D01*
X18841400Y-6380800D02*
X18801400Y-6420800D01*
X18801400Y-6510405D02*
X18841400Y-6550405D01*
X18841400Y-6510405D02*
X18801400Y-6550405D01*
X18801400Y-6647500D02*
X18841400Y-6687500D01*
X18841400Y-6647500D02*
X18801400Y-6687500D01*
X18814100Y-7993700D02*
X18854100Y-8033700D01*
X18854100Y-7993700D02*
X18814100Y-8033700D01*
X19131600Y-7536500D02*
X19171600Y-7576500D01*
X19171600Y-7536500D02*
X19131600Y-7576500D01*
X19144300Y-12311700D02*
X19184300Y-12351700D01*
X19184300Y-12311700D02*
X19144300Y-12351700D01*
X19525300Y-12743500D02*
X19565300Y-12783500D01*
X19565300Y-12743500D02*
X19525300Y-12783500D01*
X19710000Y-13570000D02*
X19750000Y-13610000D01*
X19750000Y-13570000D02*
X19710000Y-13610000D01*
X19728500Y-7993700D02*
X19768500Y-8033700D01*
X19768500Y-7993700D02*
X19728500Y-8033700D01*
X20439700Y-7917500D02*
X20479700Y-7957500D01*
X20479700Y-7917500D02*
X20439700Y-7957500D01*
X20909600Y-7847000D02*
X20949600Y-7887000D01*
X20949600Y-7847000D02*
X20909600Y-7887000D01*
X20922300Y-7587300D02*
X20962300Y-7627300D01*
X20962300Y-7587300D02*
X20922300Y-7627300D01*
X20922300Y-7727000D02*
X20962300Y-7767000D01*
X20962300Y-7727000D02*
X20922300Y-7767000D01*
X19025000Y-5721605D02*
G75*
G02*
X18975000Y-5721605I-25000J0D01*
G01*
X18975000Y-5721605D02*
G75*
G02*
X19025000Y-5721605I25000J0D01*
G01*
X21125000Y-5721605D02*
G75*
G02*
X21075000Y-5721605I-25000J0D01*
G01*
X21075000Y-5721605D02*
G75*
G02*
X21125000Y-5721605I25000J0D01*
G01*
X19604400Y-11842500D02*
X19604400Y-11918700D01*
X19566300Y-11880600D02*
X19642500Y-11880600D01*
X20324400Y-11842500D02*
X20324400Y-11918700D01*
X20286300Y-11880600D02*
X20362500Y-11880600D01*
D11*
X9702771Y-14549689D02*
X9702771Y-14349689D01*
X9702771Y-14349689D02*
X9750390Y-14349689D01*
X9750390Y-14349689D02*
X9778961Y-14359213D01*
X9778961Y-14359213D02*
X9798009Y-14378260D01*
X9798009Y-14378260D02*
X9807533Y-14397308D01*
X9807533Y-14397308D02*
X9817057Y-14435403D01*
X9817057Y-14435403D02*
X9817057Y-14463975D01*
X9817057Y-14463975D02*
X9807533Y-14502070D01*
X9807533Y-14502070D02*
X9798009Y-14521117D01*
X9798009Y-14521117D02*
X9778961Y-14540165D01*
X9778961Y-14540165D02*
X9750390Y-14549689D01*
X9750390Y-14549689D02*
X9702771Y-14549689D01*
X9902771Y-14549689D02*
X9902771Y-14416356D01*
X9902771Y-14454451D02*
X9912295Y-14435403D01*
X9912295Y-14435403D02*
X9921818Y-14425879D01*
X9921818Y-14425879D02*
X9940866Y-14416356D01*
X9940866Y-14416356D02*
X9959914Y-14416356D01*
X10026580Y-14549689D02*
X10026580Y-14416356D01*
X10026580Y-14349689D02*
X10017057Y-14359213D01*
X10017057Y-14359213D02*
X10026580Y-14368737D01*
X10026580Y-14368737D02*
X10036104Y-14359213D01*
X10036104Y-14359213D02*
X10026580Y-14349689D01*
X10026580Y-14349689D02*
X10026580Y-14368737D01*
X10150390Y-14549689D02*
X10131342Y-14540165D01*
X10131342Y-14540165D02*
X10121818Y-14521117D01*
X10121818Y-14521117D02*
X10121818Y-14349689D01*
X10255152Y-14549689D02*
X10236104Y-14540165D01*
X10236104Y-14540165D02*
X10226580Y-14521117D01*
X10226580Y-14521117D02*
X10226580Y-14349689D01*
X10483723Y-14549689D02*
X10483723Y-14349689D01*
X10483723Y-14349689D02*
X10550390Y-14492546D01*
X10550390Y-14492546D02*
X10617057Y-14349689D01*
X10617057Y-14349689D02*
X10617057Y-14549689D01*
X10798009Y-14549689D02*
X10798009Y-14444927D01*
X10798009Y-14444927D02*
X10788485Y-14425879D01*
X10788485Y-14425879D02*
X10769438Y-14416356D01*
X10769438Y-14416356D02*
X10731342Y-14416356D01*
X10731342Y-14416356D02*
X10712295Y-14425879D01*
X10798009Y-14540165D02*
X10778961Y-14549689D01*
X10778961Y-14549689D02*
X10731342Y-14549689D01*
X10731342Y-14549689D02*
X10712295Y-14540165D01*
X10712295Y-14540165D02*
X10702771Y-14521117D01*
X10702771Y-14521117D02*
X10702771Y-14502070D01*
X10702771Y-14502070D02*
X10712295Y-14483022D01*
X10712295Y-14483022D02*
X10731342Y-14473498D01*
X10731342Y-14473498D02*
X10778961Y-14473498D01*
X10778961Y-14473498D02*
X10798009Y-14463975D01*
X10893247Y-14416356D02*
X10893247Y-14616356D01*
X10893247Y-14425879D02*
X10912295Y-14416356D01*
X10912295Y-14416356D02*
X10950390Y-14416356D01*
X10950390Y-14416356D02*
X10969438Y-14425879D01*
X10969438Y-14425879D02*
X10978961Y-14435403D01*
X10978961Y-14435403D02*
X10988485Y-14454451D01*
X10988485Y-14454451D02*
X10988485Y-14511594D01*
X10988485Y-14511594D02*
X10978961Y-14530641D01*
X10978961Y-14530641D02*
X10969438Y-14540165D01*
X10969438Y-14540165D02*
X10950390Y-14549689D01*
X10950390Y-14549689D02*
X10912295Y-14549689D01*
X10912295Y-14549689D02*
X10893247Y-14540165D01*
X11074199Y-14530641D02*
X11083723Y-14540165D01*
X11083723Y-14540165D02*
X11074199Y-14549689D01*
X11074199Y-14549689D02*
X11064676Y-14540165D01*
X11064676Y-14540165D02*
X11074199Y-14530641D01*
X11074199Y-14530641D02*
X11074199Y-14549689D01*
X11074199Y-14425879D02*
X11083723Y-14435403D01*
X11083723Y-14435403D02*
X11074199Y-14444927D01*
X11074199Y-14444927D02*
X11064676Y-14435403D01*
X11064676Y-14435403D02*
X11074199Y-14425879D01*
X11074199Y-14425879D02*
X11074199Y-14444927D01*
D12*
X9401994Y-14858205D02*
X9441994Y-14898205D01*
X9441994Y-14858205D02*
X9401994Y-14898205D01*
D11*
X9740866Y-14769689D02*
X9759914Y-14769689D01*
X9759914Y-14769689D02*
X9778961Y-14779213D01*
X9778961Y-14779213D02*
X9788485Y-14788737D01*
X9788485Y-14788737D02*
X9798009Y-14807784D01*
X9798009Y-14807784D02*
X9807533Y-14845879D01*
X9807533Y-14845879D02*
X9807533Y-14893498D01*
X9807533Y-14893498D02*
X9798009Y-14931594D01*
X9798009Y-14931594D02*
X9788485Y-14950641D01*
X9788485Y-14950641D02*
X9778961Y-14960165D01*
X9778961Y-14960165D02*
X9759914Y-14969689D01*
X9759914Y-14969689D02*
X9740866Y-14969689D01*
X9740866Y-14969689D02*
X9721818Y-14960165D01*
X9721818Y-14960165D02*
X9712295Y-14950641D01*
X9712295Y-14950641D02*
X9702771Y-14931594D01*
X9702771Y-14931594D02*
X9693247Y-14893498D01*
X9693247Y-14893498D02*
X9693247Y-14845879D01*
X9693247Y-14845879D02*
X9702771Y-14807784D01*
X9702771Y-14807784D02*
X9712295Y-14788737D01*
X9712295Y-14788737D02*
X9721818Y-14779213D01*
X9721818Y-14779213D02*
X9740866Y-14769689D01*
X9893247Y-14950641D02*
X9902771Y-14960165D01*
X9902771Y-14960165D02*
X9893247Y-14969689D01*
X9893247Y-14969689D02*
X9883723Y-14960165D01*
X9883723Y-14960165D02*
X9893247Y-14950641D01*
X9893247Y-14950641D02*
X9893247Y-14969689D01*
X10074199Y-14836356D02*
X10074199Y-14969689D01*
X10026580Y-14760165D02*
X9978961Y-14903022D01*
X9978961Y-14903022D02*
X10102771Y-14903022D01*
X10217057Y-14769689D02*
X10236104Y-14769689D01*
X10236104Y-14769689D02*
X10255152Y-14779213D01*
X10255152Y-14779213D02*
X10264676Y-14788737D01*
X10264676Y-14788737D02*
X10274199Y-14807784D01*
X10274199Y-14807784D02*
X10283723Y-14845879D01*
X10283723Y-14845879D02*
X10283723Y-14893498D01*
X10283723Y-14893498D02*
X10274199Y-14931594D01*
X10274199Y-14931594D02*
X10264676Y-14950641D01*
X10264676Y-14950641D02*
X10255152Y-14960165D01*
X10255152Y-14960165D02*
X10236104Y-14969689D01*
X10236104Y-14969689D02*
X10217057Y-14969689D01*
X10217057Y-14969689D02*
X10198009Y-14960165D01*
X10198009Y-14960165D02*
X10188485Y-14950641D01*
X10188485Y-14950641D02*
X10178961Y-14931594D01*
X10178961Y-14931594D02*
X10169438Y-14893498D01*
X10169438Y-14893498D02*
X10169438Y-14845879D01*
X10169438Y-14845879D02*
X10178961Y-14807784D01*
X10178961Y-14807784D02*
X10188485Y-14788737D01*
X10188485Y-14788737D02*
X10198009Y-14779213D01*
X10198009Y-14779213D02*
X10217057Y-14769689D01*
X10407533Y-14769689D02*
X10426580Y-14769689D01*
X10426580Y-14769689D02*
X10445628Y-14779213D01*
X10445628Y-14779213D02*
X10455152Y-14788737D01*
X10455152Y-14788737D02*
X10464676Y-14807784D01*
X10464676Y-14807784D02*
X10474199Y-14845879D01*
X10474199Y-14845879D02*
X10474199Y-14893498D01*
X10474199Y-14893498D02*
X10464676Y-14931594D01*
X10464676Y-14931594D02*
X10455152Y-14950641D01*
X10455152Y-14950641D02*
X10445628Y-14960165D01*
X10445628Y-14960165D02*
X10426580Y-14969689D01*
X10426580Y-14969689D02*
X10407533Y-14969689D01*
X10407533Y-14969689D02*
X10388485Y-14960165D01*
X10388485Y-14960165D02*
X10378961Y-14950641D01*
X10378961Y-14950641D02*
X10369438Y-14931594D01*
X10369438Y-14931594D02*
X10359914Y-14893498D01*
X10359914Y-14893498D02*
X10359914Y-14845879D01*
X10359914Y-14845879D02*
X10369438Y-14807784D01*
X10369438Y-14807784D02*
X10378961Y-14788737D01*
X10378961Y-14788737D02*
X10388485Y-14779213D01*
X10388485Y-14779213D02*
X10407533Y-14769689D01*
X10559914Y-14969689D02*
X10559914Y-14836356D01*
X10559914Y-14855403D02*
X10569438Y-14845879D01*
X10569438Y-14845879D02*
X10588485Y-14836356D01*
X10588485Y-14836356D02*
X10617057Y-14836356D01*
X10617057Y-14836356D02*
X10636104Y-14845879D01*
X10636104Y-14845879D02*
X10645628Y-14864927D01*
X10645628Y-14864927D02*
X10645628Y-14969689D01*
X10645628Y-14864927D02*
X10655152Y-14845879D01*
X10655152Y-14845879D02*
X10674199Y-14836356D01*
X10674199Y-14836356D02*
X10702771Y-14836356D01*
X10702771Y-14836356D02*
X10721819Y-14845879D01*
X10721819Y-14845879D02*
X10731342Y-14864927D01*
X10731342Y-14864927D02*
X10731342Y-14969689D01*
X10826580Y-14969689D02*
X10826580Y-14836356D01*
X10826580Y-14855403D02*
X10836104Y-14845879D01*
X10836104Y-14845879D02*
X10855152Y-14836356D01*
X10855152Y-14836356D02*
X10883723Y-14836356D01*
X10883723Y-14836356D02*
X10902771Y-14845879D01*
X10902771Y-14845879D02*
X10912295Y-14864927D01*
X10912295Y-14864927D02*
X10912295Y-14969689D01*
X10912295Y-14864927D02*
X10921819Y-14845879D01*
X10921819Y-14845879D02*
X10940866Y-14836356D01*
X10940866Y-14836356D02*
X10969438Y-14836356D01*
X10969438Y-14836356D02*
X10988485Y-14845879D01*
X10988485Y-14845879D02*
X10998009Y-14864927D01*
X10998009Y-14864927D02*
X10998009Y-14969689D01*
X11388485Y-14760165D02*
X11217057Y-15017308D01*
X11645628Y-14769689D02*
X11664676Y-14769689D01*
X11664676Y-14769689D02*
X11683723Y-14779213D01*
X11683723Y-14779213D02*
X11693247Y-14788737D01*
X11693247Y-14788737D02*
X11702771Y-14807784D01*
X11702771Y-14807784D02*
X11712295Y-14845879D01*
X11712295Y-14845879D02*
X11712295Y-14893498D01*
X11712295Y-14893498D02*
X11702771Y-14931594D01*
X11702771Y-14931594D02*
X11693247Y-14950641D01*
X11693247Y-14950641D02*
X11683723Y-14960165D01*
X11683723Y-14960165D02*
X11664676Y-14969689D01*
X11664676Y-14969689D02*
X11645628Y-14969689D01*
X11645628Y-14969689D02*
X11626580Y-14960165D01*
X11626580Y-14960165D02*
X11617057Y-14950641D01*
X11617057Y-14950641D02*
X11607533Y-14931594D01*
X11607533Y-14931594D02*
X11598009Y-14893498D01*
X11598009Y-14893498D02*
X11598009Y-14845879D01*
X11598009Y-14845879D02*
X11607533Y-14807784D01*
X11607533Y-14807784D02*
X11617057Y-14788737D01*
X11617057Y-14788737D02*
X11626580Y-14779213D01*
X11626580Y-14779213D02*
X11645628Y-14769689D01*
X11798009Y-14950641D02*
X11807533Y-14960165D01*
X11807533Y-14960165D02*
X11798009Y-14969689D01*
X11798009Y-14969689D02*
X11788485Y-14960165D01*
X11788485Y-14960165D02*
X11798009Y-14950641D01*
X11798009Y-14950641D02*
X11798009Y-14969689D01*
X11931342Y-14769689D02*
X11950390Y-14769689D01*
X11950390Y-14769689D02*
X11969438Y-14779213D01*
X11969438Y-14779213D02*
X11978961Y-14788737D01*
X11978961Y-14788737D02*
X11988485Y-14807784D01*
X11988485Y-14807784D02*
X11998009Y-14845879D01*
X11998009Y-14845879D02*
X11998009Y-14893498D01*
X11998009Y-14893498D02*
X11988485Y-14931594D01*
X11988485Y-14931594D02*
X11978961Y-14950641D01*
X11978961Y-14950641D02*
X11969438Y-14960165D01*
X11969438Y-14960165D02*
X11950390Y-14969689D01*
X11950390Y-14969689D02*
X11931342Y-14969689D01*
X11931342Y-14969689D02*
X11912295Y-14960165D01*
X11912295Y-14960165D02*
X11902771Y-14950641D01*
X11902771Y-14950641D02*
X11893247Y-14931594D01*
X11893247Y-14931594D02*
X11883723Y-14893498D01*
X11883723Y-14893498D02*
X11883723Y-14845879D01*
X11883723Y-14845879D02*
X11893247Y-14807784D01*
X11893247Y-14807784D02*
X11902771Y-14788737D01*
X11902771Y-14788737D02*
X11912295Y-14779213D01*
X11912295Y-14779213D02*
X11931342Y-14769689D01*
X12188485Y-14969689D02*
X12074200Y-14969689D01*
X12131342Y-14969689D02*
X12131342Y-14769689D01*
X12131342Y-14769689D02*
X12112295Y-14798260D01*
X12112295Y-14798260D02*
X12093247Y-14817308D01*
X12093247Y-14817308D02*
X12074200Y-14826832D01*
X12369438Y-14769689D02*
X12274200Y-14769689D01*
X12274200Y-14769689D02*
X12264676Y-14864927D01*
X12264676Y-14864927D02*
X12274200Y-14855403D01*
X12274200Y-14855403D02*
X12293247Y-14845879D01*
X12293247Y-14845879D02*
X12340866Y-14845879D01*
X12340866Y-14845879D02*
X12359914Y-14855403D01*
X12359914Y-14855403D02*
X12369438Y-14864927D01*
X12369438Y-14864927D02*
X12378961Y-14883975D01*
X12378961Y-14883975D02*
X12378961Y-14931594D01*
X12378961Y-14931594D02*
X12369438Y-14950641D01*
X12369438Y-14950641D02*
X12359914Y-14960165D01*
X12359914Y-14960165D02*
X12340866Y-14969689D01*
X12340866Y-14969689D02*
X12293247Y-14969689D01*
X12293247Y-14969689D02*
X12274200Y-14960165D01*
X12274200Y-14960165D02*
X12264676Y-14950641D01*
X12445628Y-14769689D02*
X12578961Y-14769689D01*
X12578961Y-14769689D02*
X12493247Y-14969689D01*
X12645628Y-14769689D02*
X12645628Y-14807784D01*
X12721819Y-14769689D02*
X12721819Y-14807784D01*
X13017057Y-15045879D02*
X13007533Y-15036356D01*
X13007533Y-15036356D02*
X12988485Y-15007784D01*
X12988485Y-15007784D02*
X12978962Y-14988737D01*
X12978962Y-14988737D02*
X12969438Y-14960165D01*
X12969438Y-14960165D02*
X12959914Y-14912546D01*
X12959914Y-14912546D02*
X12959914Y-14874451D01*
X12959914Y-14874451D02*
X12969438Y-14826832D01*
X12969438Y-14826832D02*
X12978962Y-14798260D01*
X12978962Y-14798260D02*
X12988485Y-14779213D01*
X12988485Y-14779213D02*
X13007533Y-14750641D01*
X13007533Y-14750641D02*
X13017057Y-14741117D01*
X13102771Y-14969689D02*
X13140866Y-14969689D01*
X13140866Y-14969689D02*
X13159914Y-14960165D01*
X13159914Y-14960165D02*
X13169438Y-14950641D01*
X13169438Y-14950641D02*
X13188485Y-14922070D01*
X13188485Y-14922070D02*
X13198009Y-14883975D01*
X13198009Y-14883975D02*
X13198009Y-14807784D01*
X13198009Y-14807784D02*
X13188485Y-14788737D01*
X13188485Y-14788737D02*
X13178962Y-14779213D01*
X13178962Y-14779213D02*
X13159914Y-14769689D01*
X13159914Y-14769689D02*
X13121819Y-14769689D01*
X13121819Y-14769689D02*
X13102771Y-14779213D01*
X13102771Y-14779213D02*
X13093247Y-14788737D01*
X13093247Y-14788737D02*
X13083723Y-14807784D01*
X13083723Y-14807784D02*
X13083723Y-14855403D01*
X13083723Y-14855403D02*
X13093247Y-14874451D01*
X13093247Y-14874451D02*
X13102771Y-14883975D01*
X13102771Y-14883975D02*
X13121819Y-14893498D01*
X13121819Y-14893498D02*
X13159914Y-14893498D01*
X13159914Y-14893498D02*
X13178962Y-14883975D01*
X13178962Y-14883975D02*
X13188485Y-14874451D01*
X13188485Y-14874451D02*
X13198009Y-14855403D01*
X13321819Y-14769689D02*
X13340866Y-14769689D01*
X13340866Y-14769689D02*
X13359914Y-14779213D01*
X13359914Y-14779213D02*
X13369438Y-14788737D01*
X13369438Y-14788737D02*
X13378962Y-14807784D01*
X13378962Y-14807784D02*
X13388485Y-14845879D01*
X13388485Y-14845879D02*
X13388485Y-14893498D01*
X13388485Y-14893498D02*
X13378962Y-14931594D01*
X13378962Y-14931594D02*
X13369438Y-14950641D01*
X13369438Y-14950641D02*
X13359914Y-14960165D01*
X13359914Y-14960165D02*
X13340866Y-14969689D01*
X13340866Y-14969689D02*
X13321819Y-14969689D01*
X13321819Y-14969689D02*
X13302771Y-14960165D01*
X13302771Y-14960165D02*
X13293247Y-14950641D01*
X13293247Y-14950641D02*
X13283723Y-14931594D01*
X13283723Y-14931594D02*
X13274200Y-14893498D01*
X13274200Y-14893498D02*
X13274200Y-14845879D01*
X13274200Y-14845879D02*
X13283723Y-14807784D01*
X13283723Y-14807784D02*
X13293247Y-14788737D01*
X13293247Y-14788737D02*
X13302771Y-14779213D01*
X13302771Y-14779213D02*
X13321819Y-14769689D01*
X13626581Y-14969689D02*
X13626581Y-14769689D01*
X13712295Y-14969689D02*
X13712295Y-14864927D01*
X13712295Y-14864927D02*
X13702771Y-14845879D01*
X13702771Y-14845879D02*
X13683724Y-14836356D01*
X13683724Y-14836356D02*
X13655152Y-14836356D01*
X13655152Y-14836356D02*
X13636104Y-14845879D01*
X13636104Y-14845879D02*
X13626581Y-14855403D01*
X13836104Y-14969689D02*
X13817057Y-14960165D01*
X13817057Y-14960165D02*
X13807533Y-14950641D01*
X13807533Y-14950641D02*
X13798009Y-14931594D01*
X13798009Y-14931594D02*
X13798009Y-14874451D01*
X13798009Y-14874451D02*
X13807533Y-14855403D01*
X13807533Y-14855403D02*
X13817057Y-14845879D01*
X13817057Y-14845879D02*
X13836104Y-14836356D01*
X13836104Y-14836356D02*
X13864676Y-14836356D01*
X13864676Y-14836356D02*
X13883724Y-14845879D01*
X13883724Y-14845879D02*
X13893247Y-14855403D01*
X13893247Y-14855403D02*
X13902771Y-14874451D01*
X13902771Y-14874451D02*
X13902771Y-14931594D01*
X13902771Y-14931594D02*
X13893247Y-14950641D01*
X13893247Y-14950641D02*
X13883724Y-14960165D01*
X13883724Y-14960165D02*
X13864676Y-14969689D01*
X13864676Y-14969689D02*
X13836104Y-14969689D01*
X14017057Y-14969689D02*
X13998009Y-14960165D01*
X13998009Y-14960165D02*
X13988485Y-14941117D01*
X13988485Y-14941117D02*
X13988485Y-14769689D01*
X14169438Y-14960165D02*
X14150390Y-14969689D01*
X14150390Y-14969689D02*
X14112295Y-14969689D01*
X14112295Y-14969689D02*
X14093247Y-14960165D01*
X14093247Y-14960165D02*
X14083724Y-14941117D01*
X14083724Y-14941117D02*
X14083724Y-14864927D01*
X14083724Y-14864927D02*
X14093247Y-14845879D01*
X14093247Y-14845879D02*
X14112295Y-14836356D01*
X14112295Y-14836356D02*
X14150390Y-14836356D01*
X14150390Y-14836356D02*
X14169438Y-14845879D01*
X14169438Y-14845879D02*
X14178962Y-14864927D01*
X14178962Y-14864927D02*
X14178962Y-14883975D01*
X14178962Y-14883975D02*
X14083724Y-14903022D01*
X14255152Y-14960165D02*
X14274200Y-14969689D01*
X14274200Y-14969689D02*
X14312295Y-14969689D01*
X14312295Y-14969689D02*
X14331343Y-14960165D01*
X14331343Y-14960165D02*
X14340866Y-14941117D01*
X14340866Y-14941117D02*
X14340866Y-14931594D01*
X14340866Y-14931594D02*
X14331343Y-14912546D01*
X14331343Y-14912546D02*
X14312295Y-14903022D01*
X14312295Y-14903022D02*
X14283724Y-14903022D01*
X14283724Y-14903022D02*
X14264676Y-14893498D01*
X14264676Y-14893498D02*
X14255152Y-14874451D01*
X14255152Y-14874451D02*
X14255152Y-14864927D01*
X14255152Y-14864927D02*
X14264676Y-14845879D01*
X14264676Y-14845879D02*
X14283724Y-14836356D01*
X14283724Y-14836356D02*
X14312295Y-14836356D01*
X14312295Y-14836356D02*
X14331343Y-14845879D01*
X14407533Y-15045879D02*
X14417057Y-15036356D01*
X14417057Y-15036356D02*
X14436105Y-15007784D01*
X14436105Y-15007784D02*
X14445628Y-14988737D01*
X14445628Y-14988737D02*
X14455152Y-14960165D01*
X14455152Y-14960165D02*
X14464676Y-14912546D01*
X14464676Y-14912546D02*
X14464676Y-14874451D01*
X14464676Y-14874451D02*
X14455152Y-14826832D01*
X14455152Y-14826832D02*
X14445628Y-14798260D01*
X14445628Y-14798260D02*
X14436105Y-14779213D01*
X14436105Y-14779213D02*
X14417057Y-14750641D01*
X14417057Y-14750641D02*
X14407533Y-14741117D01*
D12*
X9441994Y-15142205D02*
G75*
G02*
X9391994Y-15142205I-25000J0D01*
G01*
X9391994Y-15142205D02*
G75*
G02*
X9441994Y-15142205I25000J0D01*
G01*
D11*
X9740866Y-15033689D02*
X9759914Y-15033689D01*
X9759914Y-15033689D02*
X9778961Y-15043213D01*
X9778961Y-15043213D02*
X9788485Y-15052737D01*
X9788485Y-15052737D02*
X9798009Y-15071784D01*
X9798009Y-15071784D02*
X9807533Y-15109879D01*
X9807533Y-15109879D02*
X9807533Y-15157498D01*
X9807533Y-15157498D02*
X9798009Y-15195594D01*
X9798009Y-15195594D02*
X9788485Y-15214641D01*
X9788485Y-15214641D02*
X9778961Y-15224165D01*
X9778961Y-15224165D02*
X9759914Y-15233689D01*
X9759914Y-15233689D02*
X9740866Y-15233689D01*
X9740866Y-15233689D02*
X9721818Y-15224165D01*
X9721818Y-15224165D02*
X9712295Y-15214641D01*
X9712295Y-15214641D02*
X9702771Y-15195594D01*
X9702771Y-15195594D02*
X9693247Y-15157498D01*
X9693247Y-15157498D02*
X9693247Y-15109879D01*
X9693247Y-15109879D02*
X9702771Y-15071784D01*
X9702771Y-15071784D02*
X9712295Y-15052737D01*
X9712295Y-15052737D02*
X9721818Y-15043213D01*
X9721818Y-15043213D02*
X9740866Y-15033689D01*
X9893247Y-15214641D02*
X9902771Y-15224165D01*
X9902771Y-15224165D02*
X9893247Y-15233689D01*
X9893247Y-15233689D02*
X9883723Y-15224165D01*
X9883723Y-15224165D02*
X9893247Y-15214641D01*
X9893247Y-15214641D02*
X9893247Y-15233689D01*
X10083723Y-15033689D02*
X9988485Y-15033689D01*
X9988485Y-15033689D02*
X9978961Y-15128927D01*
X9978961Y-15128927D02*
X9988485Y-15119403D01*
X9988485Y-15119403D02*
X10007533Y-15109879D01*
X10007533Y-15109879D02*
X10055152Y-15109879D01*
X10055152Y-15109879D02*
X10074199Y-15119403D01*
X10074199Y-15119403D02*
X10083723Y-15128927D01*
X10083723Y-15128927D02*
X10093247Y-15147975D01*
X10093247Y-15147975D02*
X10093247Y-15195594D01*
X10093247Y-15195594D02*
X10083723Y-15214641D01*
X10083723Y-15214641D02*
X10074199Y-15224165D01*
X10074199Y-15224165D02*
X10055152Y-15233689D01*
X10055152Y-15233689D02*
X10007533Y-15233689D01*
X10007533Y-15233689D02*
X9988485Y-15224165D01*
X9988485Y-15224165D02*
X9978961Y-15214641D01*
X10217057Y-15033689D02*
X10236104Y-15033689D01*
X10236104Y-15033689D02*
X10255152Y-15043213D01*
X10255152Y-15043213D02*
X10264676Y-15052737D01*
X10264676Y-15052737D02*
X10274199Y-15071784D01*
X10274199Y-15071784D02*
X10283723Y-15109879D01*
X10283723Y-15109879D02*
X10283723Y-15157498D01*
X10283723Y-15157498D02*
X10274199Y-15195594D01*
X10274199Y-15195594D02*
X10264676Y-15214641D01*
X10264676Y-15214641D02*
X10255152Y-15224165D01*
X10255152Y-15224165D02*
X10236104Y-15233689D01*
X10236104Y-15233689D02*
X10217057Y-15233689D01*
X10217057Y-15233689D02*
X10198009Y-15224165D01*
X10198009Y-15224165D02*
X10188485Y-15214641D01*
X10188485Y-15214641D02*
X10178961Y-15195594D01*
X10178961Y-15195594D02*
X10169438Y-15157498D01*
X10169438Y-15157498D02*
X10169438Y-15109879D01*
X10169438Y-15109879D02*
X10178961Y-15071784D01*
X10178961Y-15071784D02*
X10188485Y-15052737D01*
X10188485Y-15052737D02*
X10198009Y-15043213D01*
X10198009Y-15043213D02*
X10217057Y-15033689D01*
X10407533Y-15033689D02*
X10426580Y-15033689D01*
X10426580Y-15033689D02*
X10445628Y-15043213D01*
X10445628Y-15043213D02*
X10455152Y-15052737D01*
X10455152Y-15052737D02*
X10464676Y-15071784D01*
X10464676Y-15071784D02*
X10474199Y-15109879D01*
X10474199Y-15109879D02*
X10474199Y-15157498D01*
X10474199Y-15157498D02*
X10464676Y-15195594D01*
X10464676Y-15195594D02*
X10455152Y-15214641D01*
X10455152Y-15214641D02*
X10445628Y-15224165D01*
X10445628Y-15224165D02*
X10426580Y-15233689D01*
X10426580Y-15233689D02*
X10407533Y-15233689D01*
X10407533Y-15233689D02*
X10388485Y-15224165D01*
X10388485Y-15224165D02*
X10378961Y-15214641D01*
X10378961Y-15214641D02*
X10369438Y-15195594D01*
X10369438Y-15195594D02*
X10359914Y-15157498D01*
X10359914Y-15157498D02*
X10359914Y-15109879D01*
X10359914Y-15109879D02*
X10369438Y-15071784D01*
X10369438Y-15071784D02*
X10378961Y-15052737D01*
X10378961Y-15052737D02*
X10388485Y-15043213D01*
X10388485Y-15043213D02*
X10407533Y-15033689D01*
X10559914Y-15233689D02*
X10559914Y-15100356D01*
X10559914Y-15119403D02*
X10569438Y-15109879D01*
X10569438Y-15109879D02*
X10588485Y-15100356D01*
X10588485Y-15100356D02*
X10617057Y-15100356D01*
X10617057Y-15100356D02*
X10636104Y-15109879D01*
X10636104Y-15109879D02*
X10645628Y-15128927D01*
X10645628Y-15128927D02*
X10645628Y-15233689D01*
X10645628Y-15128927D02*
X10655152Y-15109879D01*
X10655152Y-15109879D02*
X10674199Y-15100356D01*
X10674199Y-15100356D02*
X10702771Y-15100356D01*
X10702771Y-15100356D02*
X10721819Y-15109879D01*
X10721819Y-15109879D02*
X10731342Y-15128927D01*
X10731342Y-15128927D02*
X10731342Y-15233689D01*
X10826580Y-15233689D02*
X10826580Y-15100356D01*
X10826580Y-15119403D02*
X10836104Y-15109879D01*
X10836104Y-15109879D02*
X10855152Y-15100356D01*
X10855152Y-15100356D02*
X10883723Y-15100356D01*
X10883723Y-15100356D02*
X10902771Y-15109879D01*
X10902771Y-15109879D02*
X10912295Y-15128927D01*
X10912295Y-15128927D02*
X10912295Y-15233689D01*
X10912295Y-15128927D02*
X10921819Y-15109879D01*
X10921819Y-15109879D02*
X10940866Y-15100356D01*
X10940866Y-15100356D02*
X10969438Y-15100356D01*
X10969438Y-15100356D02*
X10988485Y-15109879D01*
X10988485Y-15109879D02*
X10998009Y-15128927D01*
X10998009Y-15128927D02*
X10998009Y-15233689D01*
X11388485Y-15024165D02*
X11217057Y-15281308D01*
X11645628Y-15033689D02*
X11664676Y-15033689D01*
X11664676Y-15033689D02*
X11683723Y-15043213D01*
X11683723Y-15043213D02*
X11693247Y-15052737D01*
X11693247Y-15052737D02*
X11702771Y-15071784D01*
X11702771Y-15071784D02*
X11712295Y-15109879D01*
X11712295Y-15109879D02*
X11712295Y-15157498D01*
X11712295Y-15157498D02*
X11702771Y-15195594D01*
X11702771Y-15195594D02*
X11693247Y-15214641D01*
X11693247Y-15214641D02*
X11683723Y-15224165D01*
X11683723Y-15224165D02*
X11664676Y-15233689D01*
X11664676Y-15233689D02*
X11645628Y-15233689D01*
X11645628Y-15233689D02*
X11626580Y-15224165D01*
X11626580Y-15224165D02*
X11617057Y-15214641D01*
X11617057Y-15214641D02*
X11607533Y-15195594D01*
X11607533Y-15195594D02*
X11598009Y-15157498D01*
X11598009Y-15157498D02*
X11598009Y-15109879D01*
X11598009Y-15109879D02*
X11607533Y-15071784D01*
X11607533Y-15071784D02*
X11617057Y-15052737D01*
X11617057Y-15052737D02*
X11626580Y-15043213D01*
X11626580Y-15043213D02*
X11645628Y-15033689D01*
X11798009Y-15214641D02*
X11807533Y-15224165D01*
X11807533Y-15224165D02*
X11798009Y-15233689D01*
X11798009Y-15233689D02*
X11788485Y-15224165D01*
X11788485Y-15224165D02*
X11798009Y-15214641D01*
X11798009Y-15214641D02*
X11798009Y-15233689D01*
X11931342Y-15033689D02*
X11950390Y-15033689D01*
X11950390Y-15033689D02*
X11969438Y-15043213D01*
X11969438Y-15043213D02*
X11978961Y-15052737D01*
X11978961Y-15052737D02*
X11988485Y-15071784D01*
X11988485Y-15071784D02*
X11998009Y-15109879D01*
X11998009Y-15109879D02*
X11998009Y-15157498D01*
X11998009Y-15157498D02*
X11988485Y-15195594D01*
X11988485Y-15195594D02*
X11978961Y-15214641D01*
X11978961Y-15214641D02*
X11969438Y-15224165D01*
X11969438Y-15224165D02*
X11950390Y-15233689D01*
X11950390Y-15233689D02*
X11931342Y-15233689D01*
X11931342Y-15233689D02*
X11912295Y-15224165D01*
X11912295Y-15224165D02*
X11902771Y-15214641D01*
X11902771Y-15214641D02*
X11893247Y-15195594D01*
X11893247Y-15195594D02*
X11883723Y-15157498D01*
X11883723Y-15157498D02*
X11883723Y-15109879D01*
X11883723Y-15109879D02*
X11893247Y-15071784D01*
X11893247Y-15071784D02*
X11902771Y-15052737D01*
X11902771Y-15052737D02*
X11912295Y-15043213D01*
X11912295Y-15043213D02*
X11931342Y-15033689D01*
X12188485Y-15233689D02*
X12074200Y-15233689D01*
X12131342Y-15233689D02*
X12131342Y-15033689D01*
X12131342Y-15033689D02*
X12112295Y-15062260D01*
X12112295Y-15062260D02*
X12093247Y-15081308D01*
X12093247Y-15081308D02*
X12074200Y-15090832D01*
X12283723Y-15233689D02*
X12321819Y-15233689D01*
X12321819Y-15233689D02*
X12340866Y-15224165D01*
X12340866Y-15224165D02*
X12350390Y-15214641D01*
X12350390Y-15214641D02*
X12369438Y-15186070D01*
X12369438Y-15186070D02*
X12378961Y-15147975D01*
X12378961Y-15147975D02*
X12378961Y-15071784D01*
X12378961Y-15071784D02*
X12369438Y-15052737D01*
X12369438Y-15052737D02*
X12359914Y-15043213D01*
X12359914Y-15043213D02*
X12340866Y-15033689D01*
X12340866Y-15033689D02*
X12302771Y-15033689D01*
X12302771Y-15033689D02*
X12283723Y-15043213D01*
X12283723Y-15043213D02*
X12274200Y-15052737D01*
X12274200Y-15052737D02*
X12264676Y-15071784D01*
X12264676Y-15071784D02*
X12264676Y-15119403D01*
X12264676Y-15119403D02*
X12274200Y-15138451D01*
X12274200Y-15138451D02*
X12283723Y-15147975D01*
X12283723Y-15147975D02*
X12302771Y-15157498D01*
X12302771Y-15157498D02*
X12340866Y-15157498D01*
X12340866Y-15157498D02*
X12359914Y-15147975D01*
X12359914Y-15147975D02*
X12369438Y-15138451D01*
X12369438Y-15138451D02*
X12378961Y-15119403D01*
X12445628Y-15033689D02*
X12578961Y-15033689D01*
X12578961Y-15033689D02*
X12493247Y-15233689D01*
X12645628Y-15033689D02*
X12645628Y-15071784D01*
X12721819Y-15033689D02*
X12721819Y-15071784D01*
X13017057Y-15309879D02*
X13007533Y-15300356D01*
X13007533Y-15300356D02*
X12988485Y-15271784D01*
X12988485Y-15271784D02*
X12978962Y-15252737D01*
X12978962Y-15252737D02*
X12969438Y-15224165D01*
X12969438Y-15224165D02*
X12959914Y-15176546D01*
X12959914Y-15176546D02*
X12959914Y-15138451D01*
X12959914Y-15138451D02*
X12969438Y-15090832D01*
X12969438Y-15090832D02*
X12978962Y-15062260D01*
X12978962Y-15062260D02*
X12988485Y-15043213D01*
X12988485Y-15043213D02*
X13007533Y-15014641D01*
X13007533Y-15014641D02*
X13017057Y-15005117D01*
X13083723Y-15052737D02*
X13093247Y-15043213D01*
X13093247Y-15043213D02*
X13112295Y-15033689D01*
X13112295Y-15033689D02*
X13159914Y-15033689D01*
X13159914Y-15033689D02*
X13178962Y-15043213D01*
X13178962Y-15043213D02*
X13188485Y-15052737D01*
X13188485Y-15052737D02*
X13198009Y-15071784D01*
X13198009Y-15071784D02*
X13198009Y-15090832D01*
X13198009Y-15090832D02*
X13188485Y-15119403D01*
X13188485Y-15119403D02*
X13074200Y-15233689D01*
X13074200Y-15233689D02*
X13198009Y-15233689D01*
X13436104Y-15233689D02*
X13436104Y-15033689D01*
X13521819Y-15233689D02*
X13521819Y-15128927D01*
X13521819Y-15128927D02*
X13512295Y-15109879D01*
X13512295Y-15109879D02*
X13493247Y-15100356D01*
X13493247Y-15100356D02*
X13464676Y-15100356D01*
X13464676Y-15100356D02*
X13445628Y-15109879D01*
X13445628Y-15109879D02*
X13436104Y-15119403D01*
X13645628Y-15233689D02*
X13626581Y-15224165D01*
X13626581Y-15224165D02*
X13617057Y-15214641D01*
X13617057Y-15214641D02*
X13607533Y-15195594D01*
X13607533Y-15195594D02*
X13607533Y-15138451D01*
X13607533Y-15138451D02*
X13617057Y-15119403D01*
X13617057Y-15119403D02*
X13626581Y-15109879D01*
X13626581Y-15109879D02*
X13645628Y-15100356D01*
X13645628Y-15100356D02*
X13674200Y-15100356D01*
X13674200Y-15100356D02*
X13693247Y-15109879D01*
X13693247Y-15109879D02*
X13702771Y-15119403D01*
X13702771Y-15119403D02*
X13712295Y-15138451D01*
X13712295Y-15138451D02*
X13712295Y-15195594D01*
X13712295Y-15195594D02*
X13702771Y-15214641D01*
X13702771Y-15214641D02*
X13693247Y-15224165D01*
X13693247Y-15224165D02*
X13674200Y-15233689D01*
X13674200Y-15233689D02*
X13645628Y-15233689D01*
X13826581Y-15233689D02*
X13807533Y-15224165D01*
X13807533Y-15224165D02*
X13798009Y-15205117D01*
X13798009Y-15205117D02*
X13798009Y-15033689D01*
X13978962Y-15224165D02*
X13959914Y-15233689D01*
X13959914Y-15233689D02*
X13921819Y-15233689D01*
X13921819Y-15233689D02*
X13902771Y-15224165D01*
X13902771Y-15224165D02*
X13893247Y-15205117D01*
X13893247Y-15205117D02*
X13893247Y-15128927D01*
X13893247Y-15128927D02*
X13902771Y-15109879D01*
X13902771Y-15109879D02*
X13921819Y-15100356D01*
X13921819Y-15100356D02*
X13959914Y-15100356D01*
X13959914Y-15100356D02*
X13978962Y-15109879D01*
X13978962Y-15109879D02*
X13988485Y-15128927D01*
X13988485Y-15128927D02*
X13988485Y-15147975D01*
X13988485Y-15147975D02*
X13893247Y-15167022D01*
X14064676Y-15224165D02*
X14083724Y-15233689D01*
X14083724Y-15233689D02*
X14121819Y-15233689D01*
X14121819Y-15233689D02*
X14140866Y-15224165D01*
X14140866Y-15224165D02*
X14150390Y-15205117D01*
X14150390Y-15205117D02*
X14150390Y-15195594D01*
X14150390Y-15195594D02*
X14140866Y-15176546D01*
X14140866Y-15176546D02*
X14121819Y-15167022D01*
X14121819Y-15167022D02*
X14093247Y-15167022D01*
X14093247Y-15167022D02*
X14074200Y-15157498D01*
X14074200Y-15157498D02*
X14064676Y-15138451D01*
X14064676Y-15138451D02*
X14064676Y-15128927D01*
X14064676Y-15128927D02*
X14074200Y-15109879D01*
X14074200Y-15109879D02*
X14093247Y-15100356D01*
X14093247Y-15100356D02*
X14121819Y-15100356D01*
X14121819Y-15100356D02*
X14140866Y-15109879D01*
X14217057Y-15309879D02*
X14226581Y-15300356D01*
X14226581Y-15300356D02*
X14245628Y-15271784D01*
X14245628Y-15271784D02*
X14255152Y-15252737D01*
X14255152Y-15252737D02*
X14264676Y-15224165D01*
X14264676Y-15224165D02*
X14274200Y-15176546D01*
X14274200Y-15176546D02*
X14274200Y-15138451D01*
X14274200Y-15138451D02*
X14264676Y-15090832D01*
X14264676Y-15090832D02*
X14255152Y-15062260D01*
X14255152Y-15062260D02*
X14245628Y-15043213D01*
X14245628Y-15043213D02*
X14226581Y-15014641D01*
X14226581Y-15014641D02*
X14217057Y-15005117D01*
D12*
X9403894Y-15368105D02*
X9403894Y-15444305D01*
X9365794Y-15406205D02*
X9441994Y-15406205D01*
D11*
X9740866Y-15297689D02*
X9759914Y-15297689D01*
X9759914Y-15297689D02*
X9778961Y-15307213D01*
X9778961Y-15307213D02*
X9788485Y-15316737D01*
X9788485Y-15316737D02*
X9798009Y-15335784D01*
X9798009Y-15335784D02*
X9807533Y-15373879D01*
X9807533Y-15373879D02*
X9807533Y-15421498D01*
X9807533Y-15421498D02*
X9798009Y-15459594D01*
X9798009Y-15459594D02*
X9788485Y-15478641D01*
X9788485Y-15478641D02*
X9778961Y-15488165D01*
X9778961Y-15488165D02*
X9759914Y-15497689D01*
X9759914Y-15497689D02*
X9740866Y-15497689D01*
X9740866Y-15497689D02*
X9721818Y-15488165D01*
X9721818Y-15488165D02*
X9712295Y-15478641D01*
X9712295Y-15478641D02*
X9702771Y-15459594D01*
X9702771Y-15459594D02*
X9693247Y-15421498D01*
X9693247Y-15421498D02*
X9693247Y-15373879D01*
X9693247Y-15373879D02*
X9702771Y-15335784D01*
X9702771Y-15335784D02*
X9712295Y-15316737D01*
X9712295Y-15316737D02*
X9721818Y-15307213D01*
X9721818Y-15307213D02*
X9740866Y-15297689D01*
X9893247Y-15478641D02*
X9902771Y-15488165D01*
X9902771Y-15488165D02*
X9893247Y-15497689D01*
X9893247Y-15497689D02*
X9883723Y-15488165D01*
X9883723Y-15488165D02*
X9893247Y-15478641D01*
X9893247Y-15478641D02*
X9893247Y-15497689D01*
X9969438Y-15297689D02*
X10102771Y-15297689D01*
X10102771Y-15297689D02*
X10017057Y-15497689D01*
X10264676Y-15297689D02*
X10226580Y-15297689D01*
X10226580Y-15297689D02*
X10207533Y-15307213D01*
X10207533Y-15307213D02*
X10198009Y-15316737D01*
X10198009Y-15316737D02*
X10178961Y-15345308D01*
X10178961Y-15345308D02*
X10169438Y-15383403D01*
X10169438Y-15383403D02*
X10169438Y-15459594D01*
X10169438Y-15459594D02*
X10178961Y-15478641D01*
X10178961Y-15478641D02*
X10188485Y-15488165D01*
X10188485Y-15488165D02*
X10207533Y-15497689D01*
X10207533Y-15497689D02*
X10245628Y-15497689D01*
X10245628Y-15497689D02*
X10264676Y-15488165D01*
X10264676Y-15488165D02*
X10274199Y-15478641D01*
X10274199Y-15478641D02*
X10283723Y-15459594D01*
X10283723Y-15459594D02*
X10283723Y-15411975D01*
X10283723Y-15411975D02*
X10274199Y-15392927D01*
X10274199Y-15392927D02*
X10264676Y-15383403D01*
X10264676Y-15383403D02*
X10245628Y-15373879D01*
X10245628Y-15373879D02*
X10207533Y-15373879D01*
X10207533Y-15373879D02*
X10188485Y-15383403D01*
X10188485Y-15383403D02*
X10178961Y-15392927D01*
X10178961Y-15392927D02*
X10169438Y-15411975D01*
X10359914Y-15316737D02*
X10369438Y-15307213D01*
X10369438Y-15307213D02*
X10388485Y-15297689D01*
X10388485Y-15297689D02*
X10436104Y-15297689D01*
X10436104Y-15297689D02*
X10455152Y-15307213D01*
X10455152Y-15307213D02*
X10464676Y-15316737D01*
X10464676Y-15316737D02*
X10474199Y-15335784D01*
X10474199Y-15335784D02*
X10474199Y-15354832D01*
X10474199Y-15354832D02*
X10464676Y-15383403D01*
X10464676Y-15383403D02*
X10350390Y-15497689D01*
X10350390Y-15497689D02*
X10474199Y-15497689D01*
X10559914Y-15497689D02*
X10559914Y-15364356D01*
X10559914Y-15383403D02*
X10569438Y-15373879D01*
X10569438Y-15373879D02*
X10588485Y-15364356D01*
X10588485Y-15364356D02*
X10617057Y-15364356D01*
X10617057Y-15364356D02*
X10636104Y-15373879D01*
X10636104Y-15373879D02*
X10645628Y-15392927D01*
X10645628Y-15392927D02*
X10645628Y-15497689D01*
X10645628Y-15392927D02*
X10655152Y-15373879D01*
X10655152Y-15373879D02*
X10674199Y-15364356D01*
X10674199Y-15364356D02*
X10702771Y-15364356D01*
X10702771Y-15364356D02*
X10721819Y-15373879D01*
X10721819Y-15373879D02*
X10731342Y-15392927D01*
X10731342Y-15392927D02*
X10731342Y-15497689D01*
X10826580Y-15497689D02*
X10826580Y-15364356D01*
X10826580Y-15383403D02*
X10836104Y-15373879D01*
X10836104Y-15373879D02*
X10855152Y-15364356D01*
X10855152Y-15364356D02*
X10883723Y-15364356D01*
X10883723Y-15364356D02*
X10902771Y-15373879D01*
X10902771Y-15373879D02*
X10912295Y-15392927D01*
X10912295Y-15392927D02*
X10912295Y-15497689D01*
X10912295Y-15392927D02*
X10921819Y-15373879D01*
X10921819Y-15373879D02*
X10940866Y-15364356D01*
X10940866Y-15364356D02*
X10969438Y-15364356D01*
X10969438Y-15364356D02*
X10988485Y-15373879D01*
X10988485Y-15373879D02*
X10998009Y-15392927D01*
X10998009Y-15392927D02*
X10998009Y-15497689D01*
X11388485Y-15288165D02*
X11217057Y-15545308D01*
X11645628Y-15297689D02*
X11664676Y-15297689D01*
X11664676Y-15297689D02*
X11683723Y-15307213D01*
X11683723Y-15307213D02*
X11693247Y-15316737D01*
X11693247Y-15316737D02*
X11702771Y-15335784D01*
X11702771Y-15335784D02*
X11712295Y-15373879D01*
X11712295Y-15373879D02*
X11712295Y-15421498D01*
X11712295Y-15421498D02*
X11702771Y-15459594D01*
X11702771Y-15459594D02*
X11693247Y-15478641D01*
X11693247Y-15478641D02*
X11683723Y-15488165D01*
X11683723Y-15488165D02*
X11664676Y-15497689D01*
X11664676Y-15497689D02*
X11645628Y-15497689D01*
X11645628Y-15497689D02*
X11626580Y-15488165D01*
X11626580Y-15488165D02*
X11617057Y-15478641D01*
X11617057Y-15478641D02*
X11607533Y-15459594D01*
X11607533Y-15459594D02*
X11598009Y-15421498D01*
X11598009Y-15421498D02*
X11598009Y-15373879D01*
X11598009Y-15373879D02*
X11607533Y-15335784D01*
X11607533Y-15335784D02*
X11617057Y-15316737D01*
X11617057Y-15316737D02*
X11626580Y-15307213D01*
X11626580Y-15307213D02*
X11645628Y-15297689D01*
X11798009Y-15478641D02*
X11807533Y-15488165D01*
X11807533Y-15488165D02*
X11798009Y-15497689D01*
X11798009Y-15497689D02*
X11788485Y-15488165D01*
X11788485Y-15488165D02*
X11798009Y-15478641D01*
X11798009Y-15478641D02*
X11798009Y-15497689D01*
X11931342Y-15297689D02*
X11950390Y-15297689D01*
X11950390Y-15297689D02*
X11969438Y-15307213D01*
X11969438Y-15307213D02*
X11978961Y-15316737D01*
X11978961Y-15316737D02*
X11988485Y-15335784D01*
X11988485Y-15335784D02*
X11998009Y-15373879D01*
X11998009Y-15373879D02*
X11998009Y-15421498D01*
X11998009Y-15421498D02*
X11988485Y-15459594D01*
X11988485Y-15459594D02*
X11978961Y-15478641D01*
X11978961Y-15478641D02*
X11969438Y-15488165D01*
X11969438Y-15488165D02*
X11950390Y-15497689D01*
X11950390Y-15497689D02*
X11931342Y-15497689D01*
X11931342Y-15497689D02*
X11912295Y-15488165D01*
X11912295Y-15488165D02*
X11902771Y-15478641D01*
X11902771Y-15478641D02*
X11893247Y-15459594D01*
X11893247Y-15459594D02*
X11883723Y-15421498D01*
X11883723Y-15421498D02*
X11883723Y-15373879D01*
X11883723Y-15373879D02*
X11893247Y-15335784D01*
X11893247Y-15335784D02*
X11902771Y-15316737D01*
X11902771Y-15316737D02*
X11912295Y-15307213D01*
X11912295Y-15307213D02*
X11931342Y-15297689D01*
X12064676Y-15297689D02*
X12188485Y-15297689D01*
X12188485Y-15297689D02*
X12121819Y-15373879D01*
X12121819Y-15373879D02*
X12150390Y-15373879D01*
X12150390Y-15373879D02*
X12169438Y-15383403D01*
X12169438Y-15383403D02*
X12178961Y-15392927D01*
X12178961Y-15392927D02*
X12188485Y-15411975D01*
X12188485Y-15411975D02*
X12188485Y-15459594D01*
X12188485Y-15459594D02*
X12178961Y-15478641D01*
X12178961Y-15478641D02*
X12169438Y-15488165D01*
X12169438Y-15488165D02*
X12150390Y-15497689D01*
X12150390Y-15497689D02*
X12093247Y-15497689D01*
X12093247Y-15497689D02*
X12074200Y-15488165D01*
X12074200Y-15488165D02*
X12064676Y-15478641D01*
X12312295Y-15297689D02*
X12331342Y-15297689D01*
X12331342Y-15297689D02*
X12350390Y-15307213D01*
X12350390Y-15307213D02*
X12359914Y-15316737D01*
X12359914Y-15316737D02*
X12369438Y-15335784D01*
X12369438Y-15335784D02*
X12378961Y-15373879D01*
X12378961Y-15373879D02*
X12378961Y-15421498D01*
X12378961Y-15421498D02*
X12369438Y-15459594D01*
X12369438Y-15459594D02*
X12359914Y-15478641D01*
X12359914Y-15478641D02*
X12350390Y-15488165D01*
X12350390Y-15488165D02*
X12331342Y-15497689D01*
X12331342Y-15497689D02*
X12312295Y-15497689D01*
X12312295Y-15497689D02*
X12293247Y-15488165D01*
X12293247Y-15488165D02*
X12283723Y-15478641D01*
X12283723Y-15478641D02*
X12274200Y-15459594D01*
X12274200Y-15459594D02*
X12264676Y-15421498D01*
X12264676Y-15421498D02*
X12264676Y-15373879D01*
X12264676Y-15373879D02*
X12274200Y-15335784D01*
X12274200Y-15335784D02*
X12283723Y-15316737D01*
X12283723Y-15316737D02*
X12293247Y-15307213D01*
X12293247Y-15307213D02*
X12312295Y-15297689D01*
X12502771Y-15297689D02*
X12521819Y-15297689D01*
X12521819Y-15297689D02*
X12540866Y-15307213D01*
X12540866Y-15307213D02*
X12550390Y-15316737D01*
X12550390Y-15316737D02*
X12559914Y-15335784D01*
X12559914Y-15335784D02*
X12569438Y-15373879D01*
X12569438Y-15373879D02*
X12569438Y-15421498D01*
X12569438Y-15421498D02*
X12559914Y-15459594D01*
X12559914Y-15459594D02*
X12550390Y-15478641D01*
X12550390Y-15478641D02*
X12540866Y-15488165D01*
X12540866Y-15488165D02*
X12521819Y-15497689D01*
X12521819Y-15497689D02*
X12502771Y-15497689D01*
X12502771Y-15497689D02*
X12483723Y-15488165D01*
X12483723Y-15488165D02*
X12474200Y-15478641D01*
X12474200Y-15478641D02*
X12464676Y-15459594D01*
X12464676Y-15459594D02*
X12455152Y-15421498D01*
X12455152Y-15421498D02*
X12455152Y-15373879D01*
X12455152Y-15373879D02*
X12464676Y-15335784D01*
X12464676Y-15335784D02*
X12474200Y-15316737D01*
X12474200Y-15316737D02*
X12483723Y-15307213D01*
X12483723Y-15307213D02*
X12502771Y-15297689D01*
X12645628Y-15297689D02*
X12645628Y-15335784D01*
X12721819Y-15297689D02*
X12721819Y-15335784D01*
X13017057Y-15573879D02*
X13007533Y-15564356D01*
X13007533Y-15564356D02*
X12988485Y-15535784D01*
X12988485Y-15535784D02*
X12978962Y-15516737D01*
X12978962Y-15516737D02*
X12969438Y-15488165D01*
X12969438Y-15488165D02*
X12959914Y-15440546D01*
X12959914Y-15440546D02*
X12959914Y-15402451D01*
X12959914Y-15402451D02*
X12969438Y-15354832D01*
X12969438Y-15354832D02*
X12978962Y-15326260D01*
X12978962Y-15326260D02*
X12988485Y-15307213D01*
X12988485Y-15307213D02*
X13007533Y-15278641D01*
X13007533Y-15278641D02*
X13017057Y-15269117D01*
X13083723Y-15316737D02*
X13093247Y-15307213D01*
X13093247Y-15307213D02*
X13112295Y-15297689D01*
X13112295Y-15297689D02*
X13159914Y-15297689D01*
X13159914Y-15297689D02*
X13178962Y-15307213D01*
X13178962Y-15307213D02*
X13188485Y-15316737D01*
X13188485Y-15316737D02*
X13198009Y-15335784D01*
X13198009Y-15335784D02*
X13198009Y-15354832D01*
X13198009Y-15354832D02*
X13188485Y-15383403D01*
X13188485Y-15383403D02*
X13074200Y-15497689D01*
X13074200Y-15497689D02*
X13198009Y-15497689D01*
X13436104Y-15497689D02*
X13436104Y-15297689D01*
X13521819Y-15497689D02*
X13521819Y-15392927D01*
X13521819Y-15392927D02*
X13512295Y-15373879D01*
X13512295Y-15373879D02*
X13493247Y-15364356D01*
X13493247Y-15364356D02*
X13464676Y-15364356D01*
X13464676Y-15364356D02*
X13445628Y-15373879D01*
X13445628Y-15373879D02*
X13436104Y-15383403D01*
X13645628Y-15497689D02*
X13626581Y-15488165D01*
X13626581Y-15488165D02*
X13617057Y-15478641D01*
X13617057Y-15478641D02*
X13607533Y-15459594D01*
X13607533Y-15459594D02*
X13607533Y-15402451D01*
X13607533Y-15402451D02*
X13617057Y-15383403D01*
X13617057Y-15383403D02*
X13626581Y-15373879D01*
X13626581Y-15373879D02*
X13645628Y-15364356D01*
X13645628Y-15364356D02*
X13674200Y-15364356D01*
X13674200Y-15364356D02*
X13693247Y-15373879D01*
X13693247Y-15373879D02*
X13702771Y-15383403D01*
X13702771Y-15383403D02*
X13712295Y-15402451D01*
X13712295Y-15402451D02*
X13712295Y-15459594D01*
X13712295Y-15459594D02*
X13702771Y-15478641D01*
X13702771Y-15478641D02*
X13693247Y-15488165D01*
X13693247Y-15488165D02*
X13674200Y-15497689D01*
X13674200Y-15497689D02*
X13645628Y-15497689D01*
X13826581Y-15497689D02*
X13807533Y-15488165D01*
X13807533Y-15488165D02*
X13798009Y-15469117D01*
X13798009Y-15469117D02*
X13798009Y-15297689D01*
X13978962Y-15488165D02*
X13959914Y-15497689D01*
X13959914Y-15497689D02*
X13921819Y-15497689D01*
X13921819Y-15497689D02*
X13902771Y-15488165D01*
X13902771Y-15488165D02*
X13893247Y-15469117D01*
X13893247Y-15469117D02*
X13893247Y-15392927D01*
X13893247Y-15392927D02*
X13902771Y-15373879D01*
X13902771Y-15373879D02*
X13921819Y-15364356D01*
X13921819Y-15364356D02*
X13959914Y-15364356D01*
X13959914Y-15364356D02*
X13978962Y-15373879D01*
X13978962Y-15373879D02*
X13988485Y-15392927D01*
X13988485Y-15392927D02*
X13988485Y-15411975D01*
X13988485Y-15411975D02*
X13893247Y-15431022D01*
X14064676Y-15488165D02*
X14083724Y-15497689D01*
X14083724Y-15497689D02*
X14121819Y-15497689D01*
X14121819Y-15497689D02*
X14140866Y-15488165D01*
X14140866Y-15488165D02*
X14150390Y-15469117D01*
X14150390Y-15469117D02*
X14150390Y-15459594D01*
X14150390Y-15459594D02*
X14140866Y-15440546D01*
X14140866Y-15440546D02*
X14121819Y-15431022D01*
X14121819Y-15431022D02*
X14093247Y-15431022D01*
X14093247Y-15431022D02*
X14074200Y-15421498D01*
X14074200Y-15421498D02*
X14064676Y-15402451D01*
X14064676Y-15402451D02*
X14064676Y-15392927D01*
X14064676Y-15392927D02*
X14074200Y-15373879D01*
X14074200Y-15373879D02*
X14093247Y-15364356D01*
X14093247Y-15364356D02*
X14121819Y-15364356D01*
X14121819Y-15364356D02*
X14140866Y-15373879D01*
X14217057Y-15573879D02*
X14226581Y-15564356D01*
X14226581Y-15564356D02*
X14245628Y-15535784D01*
X14245628Y-15535784D02*
X14255152Y-15516737D01*
X14255152Y-15516737D02*
X14264676Y-15488165D01*
X14264676Y-15488165D02*
X14274200Y-15440546D01*
X14274200Y-15440546D02*
X14274200Y-15402451D01*
X14274200Y-15402451D02*
X14264676Y-15354832D01*
X14264676Y-15354832D02*
X14255152Y-15326260D01*
X14255152Y-15326260D02*
X14245628Y-15307213D01*
X14245628Y-15307213D02*
X14226581Y-15278641D01*
X14226581Y-15278641D02*
X14217057Y-15269117D01*
M02*
