%TF.GenerationSoftware,KiCad,Pcbnew,8.0.5*%
%TF.CreationDate,2024-10-08T05:15:24+03:00*%
%TF.ProjectId,1_3AS,315f3341-532e-46b6-9963-61645f706362,rev?*%
%TF.SameCoordinates,Original*%
%TF.FileFunction,Drillmap*%
%TF.FilePolarity,Positive*%
%FSLAX45Y45*%
G04 Gerber Fmt 4.5, Leading zero omitted, Abs format (unit mm)*
G04 Created by KiCad (PCBNEW 8.0.5) date 2024-10-08 05:15:24*
%MOMM*%
%LPD*%
G01*
G04 APERTURE LIST*
%ADD10C,0.120000*%
%ADD11C,0.200000*%
%ADD12C,0.100000*%
%ADD13C,0.300000*%
%ADD14C,0.500000*%
%ADD15C,0.570000*%
G04 APERTURE END LIST*
D10*
X21196300Y-5561605D02*
X20780000Y-5561605D01*
X11350000Y-5594098D02*
G75*
G02*
X11450000Y-5494100I100000J-2D01*
G01*
X21196301Y-5561598D02*
G75*
G02*
X21300004Y-5661598I-1J-103772D01*
G01*
X11250000Y-12208385D02*
G75*
G02*
X11150000Y-12300000I-95805J4190D01*
G01*
X11150000Y-12300000D02*
X9550000Y-12300000D01*
X17050805Y-5561893D02*
G75*
G02*
X16949997Y-5490001I-10505J91893D01*
G01*
X17898000Y-13370097D02*
X16060000Y-12874097D01*
X14150000Y-11094099D02*
G75*
G02*
X14250001Y-11194099I0J-100001D01*
G01*
X13250000Y-4991125D02*
G75*
G02*
X13350000Y-4887875I100190J3015D01*
G01*
X21300000Y-5661598D02*
X21300000Y-10998200D01*
X15164850Y-5425889D02*
X16850000Y-5425889D01*
X19520000Y-14201651D02*
G75*
G02*
X19379998Y-14220004I-84530J101651D01*
G01*
X14250000Y-12770000D02*
X14250000Y-11194099D01*
X19380000Y-14220000D02*
X17898000Y-13370097D01*
X16850000Y-5425889D02*
G75*
G02*
X16950002Y-5489999I3620J-104401D01*
G01*
X11450000Y-5494098D02*
X13116350Y-5494748D01*
X17050805Y-5561893D02*
X19320000Y-5561605D01*
X9450397Y-6809098D02*
G75*
G02*
X9550000Y-6709098I100003J-2D01*
G01*
X21196300Y-11315700D02*
X19520000Y-14201651D01*
X11250000Y-11194090D02*
G75*
G02*
X11350000Y-11094090I100010J-10D01*
G01*
X15164850Y-5425889D02*
G75*
G02*
X15050003Y-5351187I-20070J94779D01*
G01*
X9450000Y-12209098D02*
X9450000Y-6809098D01*
X14350000Y-12874071D02*
G75*
G02*
X14249999Y-12770000I40130J138641D01*
G01*
X13350000Y-4887879D02*
X14950000Y-4888169D01*
X11350000Y-6609095D02*
G75*
G02*
X11250000Y-6709090I-99990J-5D01*
G01*
X13250000Y-5400650D02*
X13250000Y-4991126D01*
X11250000Y-12208385D02*
X11250000Y-11194090D01*
X14950000Y-4888169D02*
G75*
G02*
X15050001Y-4988336I-80J-100081D01*
G01*
X9549979Y-12300682D02*
G75*
G02*
X9450000Y-12209098I3248J103909D01*
G01*
X9550000Y-6709098D02*
X11250000Y-6709098D01*
X16060000Y-12874097D02*
X14350000Y-12874071D01*
X13250000Y-5400650D02*
G75*
G02*
X13116350Y-5494748I-121530J30650D01*
G01*
X15050000Y-4988336D02*
X15050000Y-5351188D01*
X14150000Y-11094099D02*
X11350000Y-11094099D01*
X11350000Y-6609095D02*
X11350000Y-5594098D01*
X21300000Y-10998200D02*
G75*
G02*
X21196299Y-11315699I-726000J61440D01*
G01*
X19014400Y-11380600D02*
X19014400Y-8380600D01*
X19114400Y-8280600D02*
X20814400Y-8280600D01*
X20814400Y-11480600D02*
X19114400Y-11480600D01*
X20914400Y-8380600D02*
X20914400Y-11380600D01*
X19014400Y-8380600D02*
G75*
G02*
X19114400Y-8280600I100005J-5D01*
G01*
X19114400Y-11480600D02*
G75*
G02*
X19014400Y-11380600I2J100002D01*
G01*
X20814400Y-8280600D02*
G75*
G02*
X20914400Y-8380600I0J-100000D01*
G01*
X20914400Y-11380600D02*
G75*
G02*
X20814400Y-11480600I-99995J-5D01*
G01*
X19370000Y-5611605D02*
X19370000Y-7591605D01*
X19470000Y-7691605D02*
X20630000Y-7691605D01*
X20730000Y-7591605D02*
X20730000Y-5611605D01*
X19320000Y-5561605D02*
G75*
G02*
X19370000Y-5611605I0J-50000D01*
G01*
X19470000Y-7691605D02*
G75*
G02*
X19370000Y-7591605I0J100000D01*
G01*
X20730000Y-5611605D02*
G75*
G02*
X20780000Y-5561605I50000J0D01*
G01*
X20730000Y-7591605D02*
G75*
G02*
X20630000Y-7691605I-100000J0D01*
G01*
D11*
D12*
X17855000Y-5674097D02*
X17945000Y-5764097D01*
X17945000Y-5674097D02*
X17855000Y-5764097D01*
X18155000Y-5674097D02*
X18245000Y-5764097D01*
X18245000Y-5674097D02*
X18155000Y-5764097D01*
D13*
X10060000Y-8079097D02*
G75*
G02*
X9760000Y-8079097I-150000J0D01*
G01*
X9760000Y-8079097D02*
G75*
G02*
X10060000Y-8079097I150000J0D01*
G01*
X10060000Y-9979097D02*
G75*
G02*
X9760000Y-9979097I-150000J0D01*
G01*
X9760000Y-9979097D02*
G75*
G02*
X10060000Y-9979097I150000J0D01*
G01*
X10060000Y-11879097D02*
G75*
G02*
X9760000Y-11879097I-150000J0D01*
G01*
X9760000Y-11879097D02*
G75*
G02*
X10060000Y-11879097I150000J0D01*
G01*
X10240000Y-8184097D02*
G75*
G02*
X9940000Y-8184097I-150000J0D01*
G01*
X9940000Y-8184097D02*
G75*
G02*
X10240000Y-8184097I150000J0D01*
G01*
X10240000Y-10084097D02*
G75*
G02*
X9940000Y-10084097I-150000J0D01*
G01*
X9940000Y-10084097D02*
G75*
G02*
X10240000Y-10084097I150000J0D01*
G01*
X10240000Y-11984097D02*
G75*
G02*
X9940000Y-11984097I-150000J0D01*
G01*
X9940000Y-11984097D02*
G75*
G02*
X10240000Y-11984097I150000J0D01*
G01*
X10760000Y-8184097D02*
G75*
G02*
X10460000Y-8184097I-150000J0D01*
G01*
X10460000Y-8184097D02*
G75*
G02*
X10760000Y-8184097I150000J0D01*
G01*
X10760000Y-10084097D02*
G75*
G02*
X10460000Y-10084097I-150000J0D01*
G01*
X10460000Y-10084097D02*
G75*
G02*
X10760000Y-10084097I150000J0D01*
G01*
X10760000Y-11984097D02*
G75*
G02*
X10460000Y-11984097I-150000J0D01*
G01*
X10460000Y-11984097D02*
G75*
G02*
X10760000Y-11984097I150000J0D01*
G01*
X10940000Y-8079097D02*
G75*
G02*
X10640000Y-8079097I-150000J0D01*
G01*
X10640000Y-8079097D02*
G75*
G02*
X10940000Y-8079097I150000J0D01*
G01*
X10940000Y-9979097D02*
G75*
G02*
X10640000Y-9979097I-150000J0D01*
G01*
X10640000Y-9979097D02*
G75*
G02*
X10940000Y-9979097I150000J0D01*
G01*
X10940000Y-11879097D02*
G75*
G02*
X10640000Y-11879097I-150000J0D01*
G01*
X10640000Y-11879097D02*
G75*
G02*
X10940000Y-11879097I150000J0D01*
G01*
X11960000Y-6864097D02*
G75*
G02*
X11660000Y-6864097I-150000J0D01*
G01*
X11660000Y-6864097D02*
G75*
G02*
X11960000Y-6864097I150000J0D01*
G01*
X11960000Y-8764097D02*
G75*
G02*
X11660000Y-8764097I-150000J0D01*
G01*
X11660000Y-8764097D02*
G75*
G02*
X11960000Y-8764097I150000J0D01*
G01*
X11960000Y-10664097D02*
G75*
G02*
X11660000Y-10664097I-150000J0D01*
G01*
X11660000Y-10664097D02*
G75*
G02*
X11960000Y-10664097I150000J0D01*
G01*
X12140000Y-6969097D02*
G75*
G02*
X11840000Y-6969097I-150000J0D01*
G01*
X11840000Y-6969097D02*
G75*
G02*
X12140000Y-6969097I150000J0D01*
G01*
X12140000Y-8869097D02*
G75*
G02*
X11840000Y-8869097I-150000J0D01*
G01*
X11840000Y-8869097D02*
G75*
G02*
X12140000Y-8869097I150000J0D01*
G01*
X12140000Y-10769097D02*
G75*
G02*
X11840000Y-10769097I-150000J0D01*
G01*
X11840000Y-10769097D02*
G75*
G02*
X12140000Y-10769097I150000J0D01*
G01*
X12660000Y-6969097D02*
G75*
G02*
X12360000Y-6969097I-150000J0D01*
G01*
X12360000Y-6969097D02*
G75*
G02*
X12660000Y-6969097I150000J0D01*
G01*
X12660000Y-8869097D02*
G75*
G02*
X12360000Y-8869097I-150000J0D01*
G01*
X12360000Y-8869097D02*
G75*
G02*
X12660000Y-8869097I150000J0D01*
G01*
X12660000Y-10769097D02*
G75*
G02*
X12360000Y-10769097I-150000J0D01*
G01*
X12360000Y-10769097D02*
G75*
G02*
X12660000Y-10769097I150000J0D01*
G01*
X12840000Y-6864097D02*
G75*
G02*
X12540000Y-6864097I-150000J0D01*
G01*
X12540000Y-6864097D02*
G75*
G02*
X12840000Y-6864097I150000J0D01*
G01*
X12840000Y-8764097D02*
G75*
G02*
X12540000Y-8764097I-150000J0D01*
G01*
X12540000Y-8764097D02*
G75*
G02*
X12840000Y-8764097I150000J0D01*
G01*
X12840000Y-10664097D02*
G75*
G02*
X12540000Y-10664097I-150000J0D01*
G01*
X12540000Y-10664097D02*
G75*
G02*
X12840000Y-10664097I150000J0D01*
G01*
X13860000Y-6256597D02*
G75*
G02*
X13560000Y-6256597I-150000J0D01*
G01*
X13560000Y-6256597D02*
G75*
G02*
X13860000Y-6256597I150000J0D01*
G01*
X13860000Y-8156597D02*
G75*
G02*
X13560000Y-8156597I-150000J0D01*
G01*
X13560000Y-8156597D02*
G75*
G02*
X13860000Y-8156597I150000J0D01*
G01*
X13860000Y-10056597D02*
G75*
G02*
X13560000Y-10056597I-150000J0D01*
G01*
X13560000Y-10056597D02*
G75*
G02*
X13860000Y-10056597I150000J0D01*
G01*
X14040000Y-6361597D02*
G75*
G02*
X13740000Y-6361597I-150000J0D01*
G01*
X13740000Y-6361597D02*
G75*
G02*
X14040000Y-6361597I150000J0D01*
G01*
X14040000Y-8261597D02*
G75*
G02*
X13740000Y-8261597I-150000J0D01*
G01*
X13740000Y-8261597D02*
G75*
G02*
X14040000Y-8261597I150000J0D01*
G01*
X14040000Y-10161597D02*
G75*
G02*
X13740000Y-10161597I-150000J0D01*
G01*
X13740000Y-10161597D02*
G75*
G02*
X14040000Y-10161597I150000J0D01*
G01*
X14560000Y-6361597D02*
G75*
G02*
X14260000Y-6361597I-150000J0D01*
G01*
X14260000Y-6361597D02*
G75*
G02*
X14560000Y-6361597I150000J0D01*
G01*
X14560000Y-8261597D02*
G75*
G02*
X14260000Y-8261597I-150000J0D01*
G01*
X14260000Y-8261597D02*
G75*
G02*
X14560000Y-8261597I150000J0D01*
G01*
X14560000Y-10161597D02*
G75*
G02*
X14260000Y-10161597I-150000J0D01*
G01*
X14260000Y-10161597D02*
G75*
G02*
X14560000Y-10161597I150000J0D01*
G01*
X14740000Y-6256597D02*
G75*
G02*
X14440000Y-6256597I-150000J0D01*
G01*
X14440000Y-6256597D02*
G75*
G02*
X14740000Y-6256597I150000J0D01*
G01*
X14740000Y-8156597D02*
G75*
G02*
X14440000Y-8156597I-150000J0D01*
G01*
X14440000Y-8156597D02*
G75*
G02*
X14740000Y-8156597I150000J0D01*
G01*
X14740000Y-10056597D02*
G75*
G02*
X14440000Y-10056597I-150000J0D01*
G01*
X14440000Y-10056597D02*
G75*
G02*
X14740000Y-10056597I150000J0D01*
G01*
X14860000Y-12444070D02*
G75*
G02*
X14560000Y-12444070I-150000J0D01*
G01*
X14560000Y-12444070D02*
G75*
G02*
X14860000Y-12444070I150000J0D01*
G01*
X15040000Y-12549070D02*
G75*
G02*
X14740000Y-12549070I-150000J0D01*
G01*
X14740000Y-12549070D02*
G75*
G02*
X15040000Y-12549070I150000J0D01*
G01*
X15560000Y-12549070D02*
G75*
G02*
X15260000Y-12549070I-150000J0D01*
G01*
X15260000Y-12549070D02*
G75*
G02*
X15560000Y-12549070I150000J0D01*
G01*
X15740000Y-12444070D02*
G75*
G02*
X15440000Y-12444070I-150000J0D01*
G01*
X15440000Y-12444070D02*
G75*
G02*
X15740000Y-12444070I150000J0D01*
G01*
X15760000Y-6794097D02*
G75*
G02*
X15460000Y-6794097I-150000J0D01*
G01*
X15460000Y-6794097D02*
G75*
G02*
X15760000Y-6794097I150000J0D01*
G01*
X15760000Y-8694097D02*
G75*
G02*
X15460000Y-8694097I-150000J0D01*
G01*
X15460000Y-8694097D02*
G75*
G02*
X15760000Y-8694097I150000J0D01*
G01*
X15760000Y-10594097D02*
G75*
G02*
X15460000Y-10594097I-150000J0D01*
G01*
X15460000Y-10594097D02*
G75*
G02*
X15760000Y-10594097I150000J0D01*
G01*
X15940000Y-6899097D02*
G75*
G02*
X15640000Y-6899097I-150000J0D01*
G01*
X15640000Y-6899097D02*
G75*
G02*
X15940000Y-6899097I150000J0D01*
G01*
X15940000Y-8799097D02*
G75*
G02*
X15640000Y-8799097I-150000J0D01*
G01*
X15640000Y-8799097D02*
G75*
G02*
X15940000Y-8799097I150000J0D01*
G01*
X15940000Y-10699097D02*
G75*
G02*
X15640000Y-10699097I-150000J0D01*
G01*
X15640000Y-10699097D02*
G75*
G02*
X15940000Y-10699097I150000J0D01*
G01*
X16460000Y-6899097D02*
G75*
G02*
X16160000Y-6899097I-150000J0D01*
G01*
X16160000Y-6899097D02*
G75*
G02*
X16460000Y-6899097I150000J0D01*
G01*
X16460000Y-8799097D02*
G75*
G02*
X16160000Y-8799097I-150000J0D01*
G01*
X16160000Y-8799097D02*
G75*
G02*
X16460000Y-8799097I150000J0D01*
G01*
X16460000Y-10699097D02*
G75*
G02*
X16160000Y-10699097I-150000J0D01*
G01*
X16160000Y-10699097D02*
G75*
G02*
X16460000Y-10699097I150000J0D01*
G01*
X16640000Y-6794097D02*
G75*
G02*
X16340000Y-6794097I-150000J0D01*
G01*
X16340000Y-6794097D02*
G75*
G02*
X16640000Y-6794097I150000J0D01*
G01*
X16640000Y-8694097D02*
G75*
G02*
X16340000Y-8694097I-150000J0D01*
G01*
X16340000Y-8694097D02*
G75*
G02*
X16640000Y-8694097I150000J0D01*
G01*
X16640000Y-10594097D02*
G75*
G02*
X16340000Y-10594097I-150000J0D01*
G01*
X16340000Y-10594097D02*
G75*
G02*
X16640000Y-10594097I150000J0D01*
G01*
X16816855Y-12592423D02*
G75*
G02*
X16516855Y-12592423I-150000J0D01*
G01*
X16516855Y-12592423D02*
G75*
G02*
X16816855Y-12592423I150000J0D01*
G01*
X16963546Y-12740433D02*
G75*
G02*
X16663546Y-12740433I-150000J0D01*
G01*
X16663546Y-12740433D02*
G75*
G02*
X16963546Y-12740433I150000J0D01*
G01*
X17465827Y-12875019D02*
G75*
G02*
X17165827Y-12875019I-150000J0D01*
G01*
X17165827Y-12875019D02*
G75*
G02*
X17465827Y-12875019I150000J0D01*
G01*
X17660000Y-6931597D02*
G75*
G02*
X17360000Y-6931597I-150000J0D01*
G01*
X17360000Y-6931597D02*
G75*
G02*
X17660000Y-6931597I150000J0D01*
G01*
X17660000Y-8831597D02*
G75*
G02*
X17360000Y-8831597I-150000J0D01*
G01*
X17360000Y-8831597D02*
G75*
G02*
X17660000Y-8831597I150000J0D01*
G01*
X17660000Y-10731597D02*
G75*
G02*
X17360000Y-10731597I-150000J0D01*
G01*
X17360000Y-10731597D02*
G75*
G02*
X17660000Y-10731597I150000J0D01*
G01*
X17666870Y-12820184D02*
G75*
G02*
X17366870Y-12820184I-150000J0D01*
G01*
X17366870Y-12820184D02*
G75*
G02*
X17666870Y-12820184I150000J0D01*
G01*
X17840000Y-7036597D02*
G75*
G02*
X17540000Y-7036597I-150000J0D01*
G01*
X17540000Y-7036597D02*
G75*
G02*
X17840000Y-7036597I150000J0D01*
G01*
X17840000Y-8936597D02*
G75*
G02*
X17540000Y-8936597I-150000J0D01*
G01*
X17540000Y-8936597D02*
G75*
G02*
X17840000Y-8936597I150000J0D01*
G01*
X17840000Y-10836597D02*
G75*
G02*
X17540000Y-10836597I-150000J0D01*
G01*
X17540000Y-10836597D02*
G75*
G02*
X17840000Y-10836597I150000J0D01*
G01*
X18360000Y-7036597D02*
G75*
G02*
X18060000Y-7036597I-150000J0D01*
G01*
X18060000Y-7036597D02*
G75*
G02*
X18360000Y-7036597I150000J0D01*
G01*
X18360000Y-8936597D02*
G75*
G02*
X18060000Y-8936597I-150000J0D01*
G01*
X18060000Y-8936597D02*
G75*
G02*
X18360000Y-8936597I150000J0D01*
G01*
X18360000Y-10836597D02*
G75*
G02*
X18060000Y-10836597I-150000J0D01*
G01*
X18060000Y-10836597D02*
G75*
G02*
X18360000Y-10836597I150000J0D01*
G01*
X18540000Y-6931597D02*
G75*
G02*
X18240000Y-6931597I-150000J0D01*
G01*
X18240000Y-6931597D02*
G75*
G02*
X18540000Y-6931597I150000J0D01*
G01*
X18540000Y-8831597D02*
G75*
G02*
X18240000Y-8831597I-150000J0D01*
G01*
X18240000Y-8831597D02*
G75*
G02*
X18540000Y-8831597I150000J0D01*
G01*
X18540000Y-10731597D02*
G75*
G02*
X18240000Y-10731597I-150000J0D01*
G01*
X18240000Y-10731597D02*
G75*
G02*
X18540000Y-10731597I150000J0D01*
G01*
X18681675Y-13228949D02*
G75*
G02*
X18381675Y-13228949I-150000J0D01*
G01*
X18381675Y-13228949D02*
G75*
G02*
X18681675Y-13228949I150000J0D01*
G01*
X18785060Y-13409882D02*
G75*
G02*
X18485060Y-13409882I-150000J0D01*
G01*
X18485060Y-13409882D02*
G75*
G02*
X18785060Y-13409882I150000J0D01*
G01*
X19235393Y-13669882D02*
G75*
G02*
X18935393Y-13669882I-150000J0D01*
G01*
X18935393Y-13669882D02*
G75*
G02*
X19235393Y-13669882I150000J0D01*
G01*
X19443778Y-13668949D02*
G75*
G02*
X19143778Y-13668949I-150000J0D01*
G01*
X19143778Y-13668949D02*
G75*
G02*
X19443778Y-13668949I150000J0D01*
G01*
D14*
X10350000Y-7359097D02*
X10350000Y-7859097D01*
X10100000Y-7609097D02*
X10600000Y-7609097D01*
X10350000Y-9259097D02*
X10350000Y-9759097D01*
X10100000Y-9509097D02*
X10600000Y-9509097D01*
X10350000Y-11159097D02*
X10350000Y-11659097D01*
X10100000Y-11409097D02*
X10600000Y-11409097D01*
X12250000Y-6144097D02*
X12250000Y-6644097D01*
X12000000Y-6394097D02*
X12500000Y-6394097D01*
X12250000Y-8044097D02*
X12250000Y-8544097D01*
X12000000Y-8294097D02*
X12500000Y-8294097D01*
X12250000Y-9944097D02*
X12250000Y-10444097D01*
X12000000Y-10194097D02*
X12500000Y-10194097D01*
X14150000Y-5536597D02*
X14150000Y-6036597D01*
X13900000Y-5786597D02*
X14400000Y-5786597D01*
X14150000Y-7436597D02*
X14150000Y-7936597D01*
X13900000Y-7686597D02*
X14400000Y-7686597D01*
X14150000Y-9336597D02*
X14150000Y-9836597D01*
X13900000Y-9586597D02*
X14400000Y-9586597D01*
X15150000Y-11724070D02*
X15150000Y-12224070D01*
X14900000Y-11974070D02*
X15400000Y-11974070D01*
X16050000Y-6074097D02*
X16050000Y-6574097D01*
X15800000Y-6324097D02*
X16300000Y-6324097D01*
X16050000Y-7974097D02*
X16050000Y-8474097D01*
X15800000Y-8224097D02*
X16300000Y-8224097D01*
X16050000Y-9874097D02*
X16050000Y-10374097D01*
X15800000Y-10124097D02*
X16300000Y-10124097D01*
X17213508Y-12002319D02*
X17213508Y-12502319D01*
X16963508Y-12252319D02*
X17463508Y-12252319D01*
X17950000Y-6211597D02*
X17950000Y-6711597D01*
X17700000Y-6461597D02*
X18200000Y-6461597D01*
X17950000Y-8111597D02*
X17950000Y-8611597D01*
X17700000Y-8361597D02*
X18200000Y-8361597D01*
X17950000Y-10011597D02*
X17950000Y-10511597D01*
X17700000Y-10261597D02*
X18200000Y-10261597D01*
X19147726Y-12791917D02*
X19147726Y-13291917D01*
X18897726Y-13041917D02*
X19397726Y-13041917D01*
D15*
X11568027Y-7567527D02*
X11568027Y-7164473D01*
X11164973Y-7164473D01*
X11164973Y-7567527D01*
X11568027Y-7567527D01*
X11572357Y-9449942D02*
X11572357Y-9046887D01*
X11169302Y-9046887D01*
X11169302Y-9449942D01*
X11572357Y-9449942D01*
X17251527Y-7631527D02*
X17251527Y-7228473D01*
X16848473Y-7228473D01*
X16848473Y-7631527D01*
X17251527Y-7631527D01*
X18819743Y-11847841D02*
X18819743Y-11444786D01*
X18416688Y-11444786D01*
X18416688Y-11847841D01*
X18819743Y-11847841D01*
D11*
X9704777Y-14549689D02*
X9704777Y-14349689D01*
X9704777Y-14349689D02*
X9752396Y-14349689D01*
X9752396Y-14349689D02*
X9780967Y-14359213D01*
X9780967Y-14359213D02*
X9800015Y-14378260D01*
X9800015Y-14378260D02*
X9809539Y-14397308D01*
X9809539Y-14397308D02*
X9819063Y-14435403D01*
X9819063Y-14435403D02*
X9819063Y-14463975D01*
X9819063Y-14463975D02*
X9809539Y-14502070D01*
X9809539Y-14502070D02*
X9800015Y-14521117D01*
X9800015Y-14521117D02*
X9780967Y-14540165D01*
X9780967Y-14540165D02*
X9752396Y-14549689D01*
X9752396Y-14549689D02*
X9704777Y-14549689D01*
X9904777Y-14549689D02*
X9904777Y-14416356D01*
X9904777Y-14454451D02*
X9914301Y-14435403D01*
X9914301Y-14435403D02*
X9923824Y-14425879D01*
X9923824Y-14425879D02*
X9942872Y-14416356D01*
X9942872Y-14416356D02*
X9961920Y-14416356D01*
X10028586Y-14549689D02*
X10028586Y-14416356D01*
X10028586Y-14349689D02*
X10019063Y-14359213D01*
X10019063Y-14359213D02*
X10028586Y-14368737D01*
X10028586Y-14368737D02*
X10038110Y-14359213D01*
X10038110Y-14359213D02*
X10028586Y-14349689D01*
X10028586Y-14349689D02*
X10028586Y-14368737D01*
X10152396Y-14549689D02*
X10133348Y-14540165D01*
X10133348Y-14540165D02*
X10123824Y-14521117D01*
X10123824Y-14521117D02*
X10123824Y-14349689D01*
X10257158Y-14549689D02*
X10238110Y-14540165D01*
X10238110Y-14540165D02*
X10228586Y-14521117D01*
X10228586Y-14521117D02*
X10228586Y-14349689D01*
X10485729Y-14549689D02*
X10485729Y-14349689D01*
X10485729Y-14349689D02*
X10552396Y-14492546D01*
X10552396Y-14492546D02*
X10619063Y-14349689D01*
X10619063Y-14349689D02*
X10619063Y-14549689D01*
X10800015Y-14549689D02*
X10800015Y-14444927D01*
X10800015Y-14444927D02*
X10790491Y-14425879D01*
X10790491Y-14425879D02*
X10771444Y-14416356D01*
X10771444Y-14416356D02*
X10733348Y-14416356D01*
X10733348Y-14416356D02*
X10714301Y-14425879D01*
X10800015Y-14540165D02*
X10780967Y-14549689D01*
X10780967Y-14549689D02*
X10733348Y-14549689D01*
X10733348Y-14549689D02*
X10714301Y-14540165D01*
X10714301Y-14540165D02*
X10704777Y-14521117D01*
X10704777Y-14521117D02*
X10704777Y-14502070D01*
X10704777Y-14502070D02*
X10714301Y-14483022D01*
X10714301Y-14483022D02*
X10733348Y-14473498D01*
X10733348Y-14473498D02*
X10780967Y-14473498D01*
X10780967Y-14473498D02*
X10800015Y-14463975D01*
X10895253Y-14416356D02*
X10895253Y-14616356D01*
X10895253Y-14425879D02*
X10914301Y-14416356D01*
X10914301Y-14416356D02*
X10952396Y-14416356D01*
X10952396Y-14416356D02*
X10971444Y-14425879D01*
X10971444Y-14425879D02*
X10980967Y-14435403D01*
X10980967Y-14435403D02*
X10990491Y-14454451D01*
X10990491Y-14454451D02*
X10990491Y-14511594D01*
X10990491Y-14511594D02*
X10980967Y-14530641D01*
X10980967Y-14530641D02*
X10971444Y-14540165D01*
X10971444Y-14540165D02*
X10952396Y-14549689D01*
X10952396Y-14549689D02*
X10914301Y-14549689D01*
X10914301Y-14549689D02*
X10895253Y-14540165D01*
X11076205Y-14530641D02*
X11085729Y-14540165D01*
X11085729Y-14540165D02*
X11076205Y-14549689D01*
X11076205Y-14549689D02*
X11066682Y-14540165D01*
X11066682Y-14540165D02*
X11076205Y-14530641D01*
X11076205Y-14530641D02*
X11076205Y-14549689D01*
X11076205Y-14425879D02*
X11085729Y-14435403D01*
X11085729Y-14435403D02*
X11076205Y-14444927D01*
X11076205Y-14444927D02*
X11066682Y-14435403D01*
X11066682Y-14435403D02*
X11076205Y-14425879D01*
X11076205Y-14425879D02*
X11076205Y-14444927D01*
D12*
X9354000Y-14833205D02*
X9444000Y-14923205D01*
X9444000Y-14833205D02*
X9354000Y-14923205D01*
D11*
X9742872Y-14769689D02*
X9761920Y-14769689D01*
X9761920Y-14769689D02*
X9780967Y-14779213D01*
X9780967Y-14779213D02*
X9790491Y-14788737D01*
X9790491Y-14788737D02*
X9800015Y-14807784D01*
X9800015Y-14807784D02*
X9809539Y-14845879D01*
X9809539Y-14845879D02*
X9809539Y-14893498D01*
X9809539Y-14893498D02*
X9800015Y-14931594D01*
X9800015Y-14931594D02*
X9790491Y-14950641D01*
X9790491Y-14950641D02*
X9780967Y-14960165D01*
X9780967Y-14960165D02*
X9761920Y-14969689D01*
X9761920Y-14969689D02*
X9742872Y-14969689D01*
X9742872Y-14969689D02*
X9723824Y-14960165D01*
X9723824Y-14960165D02*
X9714301Y-14950641D01*
X9714301Y-14950641D02*
X9704777Y-14931594D01*
X9704777Y-14931594D02*
X9695253Y-14893498D01*
X9695253Y-14893498D02*
X9695253Y-14845879D01*
X9695253Y-14845879D02*
X9704777Y-14807784D01*
X9704777Y-14807784D02*
X9714301Y-14788737D01*
X9714301Y-14788737D02*
X9723824Y-14779213D01*
X9723824Y-14779213D02*
X9742872Y-14769689D01*
X9895253Y-14950641D02*
X9904777Y-14960165D01*
X9904777Y-14960165D02*
X9895253Y-14969689D01*
X9895253Y-14969689D02*
X9885729Y-14960165D01*
X9885729Y-14960165D02*
X9895253Y-14950641D01*
X9895253Y-14950641D02*
X9895253Y-14969689D01*
X10000015Y-14969689D02*
X10038110Y-14969689D01*
X10038110Y-14969689D02*
X10057158Y-14960165D01*
X10057158Y-14960165D02*
X10066682Y-14950641D01*
X10066682Y-14950641D02*
X10085729Y-14922070D01*
X10085729Y-14922070D02*
X10095253Y-14883975D01*
X10095253Y-14883975D02*
X10095253Y-14807784D01*
X10095253Y-14807784D02*
X10085729Y-14788737D01*
X10085729Y-14788737D02*
X10076205Y-14779213D01*
X10076205Y-14779213D02*
X10057158Y-14769689D01*
X10057158Y-14769689D02*
X10019063Y-14769689D01*
X10019063Y-14769689D02*
X10000015Y-14779213D01*
X10000015Y-14779213D02*
X9990491Y-14788737D01*
X9990491Y-14788737D02*
X9980967Y-14807784D01*
X9980967Y-14807784D02*
X9980967Y-14855403D01*
X9980967Y-14855403D02*
X9990491Y-14874451D01*
X9990491Y-14874451D02*
X10000015Y-14883975D01*
X10000015Y-14883975D02*
X10019063Y-14893498D01*
X10019063Y-14893498D02*
X10057158Y-14893498D01*
X10057158Y-14893498D02*
X10076205Y-14883975D01*
X10076205Y-14883975D02*
X10085729Y-14874451D01*
X10085729Y-14874451D02*
X10095253Y-14855403D01*
X10219063Y-14769689D02*
X10238110Y-14769689D01*
X10238110Y-14769689D02*
X10257158Y-14779213D01*
X10257158Y-14779213D02*
X10266682Y-14788737D01*
X10266682Y-14788737D02*
X10276205Y-14807784D01*
X10276205Y-14807784D02*
X10285729Y-14845879D01*
X10285729Y-14845879D02*
X10285729Y-14893498D01*
X10285729Y-14893498D02*
X10276205Y-14931594D01*
X10276205Y-14931594D02*
X10266682Y-14950641D01*
X10266682Y-14950641D02*
X10257158Y-14960165D01*
X10257158Y-14960165D02*
X10238110Y-14969689D01*
X10238110Y-14969689D02*
X10219063Y-14969689D01*
X10219063Y-14969689D02*
X10200015Y-14960165D01*
X10200015Y-14960165D02*
X10190491Y-14950641D01*
X10190491Y-14950641D02*
X10180967Y-14931594D01*
X10180967Y-14931594D02*
X10171444Y-14893498D01*
X10171444Y-14893498D02*
X10171444Y-14845879D01*
X10171444Y-14845879D02*
X10180967Y-14807784D01*
X10180967Y-14807784D02*
X10190491Y-14788737D01*
X10190491Y-14788737D02*
X10200015Y-14779213D01*
X10200015Y-14779213D02*
X10219063Y-14769689D01*
X10409539Y-14769689D02*
X10428586Y-14769689D01*
X10428586Y-14769689D02*
X10447634Y-14779213D01*
X10447634Y-14779213D02*
X10457158Y-14788737D01*
X10457158Y-14788737D02*
X10466682Y-14807784D01*
X10466682Y-14807784D02*
X10476205Y-14845879D01*
X10476205Y-14845879D02*
X10476205Y-14893498D01*
X10476205Y-14893498D02*
X10466682Y-14931594D01*
X10466682Y-14931594D02*
X10457158Y-14950641D01*
X10457158Y-14950641D02*
X10447634Y-14960165D01*
X10447634Y-14960165D02*
X10428586Y-14969689D01*
X10428586Y-14969689D02*
X10409539Y-14969689D01*
X10409539Y-14969689D02*
X10390491Y-14960165D01*
X10390491Y-14960165D02*
X10380967Y-14950641D01*
X10380967Y-14950641D02*
X10371444Y-14931594D01*
X10371444Y-14931594D02*
X10361920Y-14893498D01*
X10361920Y-14893498D02*
X10361920Y-14845879D01*
X10361920Y-14845879D02*
X10371444Y-14807784D01*
X10371444Y-14807784D02*
X10380967Y-14788737D01*
X10380967Y-14788737D02*
X10390491Y-14779213D01*
X10390491Y-14779213D02*
X10409539Y-14769689D01*
X10561920Y-14969689D02*
X10561920Y-14836356D01*
X10561920Y-14855403D02*
X10571444Y-14845879D01*
X10571444Y-14845879D02*
X10590491Y-14836356D01*
X10590491Y-14836356D02*
X10619063Y-14836356D01*
X10619063Y-14836356D02*
X10638110Y-14845879D01*
X10638110Y-14845879D02*
X10647634Y-14864927D01*
X10647634Y-14864927D02*
X10647634Y-14969689D01*
X10647634Y-14864927D02*
X10657158Y-14845879D01*
X10657158Y-14845879D02*
X10676205Y-14836356D01*
X10676205Y-14836356D02*
X10704777Y-14836356D01*
X10704777Y-14836356D02*
X10723825Y-14845879D01*
X10723825Y-14845879D02*
X10733348Y-14864927D01*
X10733348Y-14864927D02*
X10733348Y-14969689D01*
X10828586Y-14969689D02*
X10828586Y-14836356D01*
X10828586Y-14855403D02*
X10838110Y-14845879D01*
X10838110Y-14845879D02*
X10857158Y-14836356D01*
X10857158Y-14836356D02*
X10885729Y-14836356D01*
X10885729Y-14836356D02*
X10904777Y-14845879D01*
X10904777Y-14845879D02*
X10914301Y-14864927D01*
X10914301Y-14864927D02*
X10914301Y-14969689D01*
X10914301Y-14864927D02*
X10923825Y-14845879D01*
X10923825Y-14845879D02*
X10942872Y-14836356D01*
X10942872Y-14836356D02*
X10971444Y-14836356D01*
X10971444Y-14836356D02*
X10990491Y-14845879D01*
X10990491Y-14845879D02*
X11000015Y-14864927D01*
X11000015Y-14864927D02*
X11000015Y-14969689D01*
X11390491Y-14760165D02*
X11219063Y-15017308D01*
X11647634Y-14769689D02*
X11666682Y-14769689D01*
X11666682Y-14769689D02*
X11685729Y-14779213D01*
X11685729Y-14779213D02*
X11695253Y-14788737D01*
X11695253Y-14788737D02*
X11704777Y-14807784D01*
X11704777Y-14807784D02*
X11714301Y-14845879D01*
X11714301Y-14845879D02*
X11714301Y-14893498D01*
X11714301Y-14893498D02*
X11704777Y-14931594D01*
X11704777Y-14931594D02*
X11695253Y-14950641D01*
X11695253Y-14950641D02*
X11685729Y-14960165D01*
X11685729Y-14960165D02*
X11666682Y-14969689D01*
X11666682Y-14969689D02*
X11647634Y-14969689D01*
X11647634Y-14969689D02*
X11628586Y-14960165D01*
X11628586Y-14960165D02*
X11619063Y-14950641D01*
X11619063Y-14950641D02*
X11609539Y-14931594D01*
X11609539Y-14931594D02*
X11600015Y-14893498D01*
X11600015Y-14893498D02*
X11600015Y-14845879D01*
X11600015Y-14845879D02*
X11609539Y-14807784D01*
X11609539Y-14807784D02*
X11619063Y-14788737D01*
X11619063Y-14788737D02*
X11628586Y-14779213D01*
X11628586Y-14779213D02*
X11647634Y-14769689D01*
X11800015Y-14950641D02*
X11809539Y-14960165D01*
X11809539Y-14960165D02*
X11800015Y-14969689D01*
X11800015Y-14969689D02*
X11790491Y-14960165D01*
X11790491Y-14960165D02*
X11800015Y-14950641D01*
X11800015Y-14950641D02*
X11800015Y-14969689D01*
X11933348Y-14769689D02*
X11952396Y-14769689D01*
X11952396Y-14769689D02*
X11971444Y-14779213D01*
X11971444Y-14779213D02*
X11980967Y-14788737D01*
X11980967Y-14788737D02*
X11990491Y-14807784D01*
X11990491Y-14807784D02*
X12000015Y-14845879D01*
X12000015Y-14845879D02*
X12000015Y-14893498D01*
X12000015Y-14893498D02*
X11990491Y-14931594D01*
X11990491Y-14931594D02*
X11980967Y-14950641D01*
X11980967Y-14950641D02*
X11971444Y-14960165D01*
X11971444Y-14960165D02*
X11952396Y-14969689D01*
X11952396Y-14969689D02*
X11933348Y-14969689D01*
X11933348Y-14969689D02*
X11914301Y-14960165D01*
X11914301Y-14960165D02*
X11904777Y-14950641D01*
X11904777Y-14950641D02*
X11895253Y-14931594D01*
X11895253Y-14931594D02*
X11885729Y-14893498D01*
X11885729Y-14893498D02*
X11885729Y-14845879D01*
X11885729Y-14845879D02*
X11895253Y-14807784D01*
X11895253Y-14807784D02*
X11904777Y-14788737D01*
X11904777Y-14788737D02*
X11914301Y-14779213D01*
X11914301Y-14779213D02*
X11933348Y-14769689D01*
X12066682Y-14769689D02*
X12190491Y-14769689D01*
X12190491Y-14769689D02*
X12123825Y-14845879D01*
X12123825Y-14845879D02*
X12152396Y-14845879D01*
X12152396Y-14845879D02*
X12171444Y-14855403D01*
X12171444Y-14855403D02*
X12180967Y-14864927D01*
X12180967Y-14864927D02*
X12190491Y-14883975D01*
X12190491Y-14883975D02*
X12190491Y-14931594D01*
X12190491Y-14931594D02*
X12180967Y-14950641D01*
X12180967Y-14950641D02*
X12171444Y-14960165D01*
X12171444Y-14960165D02*
X12152396Y-14969689D01*
X12152396Y-14969689D02*
X12095253Y-14969689D01*
X12095253Y-14969689D02*
X12076206Y-14960165D01*
X12076206Y-14960165D02*
X12066682Y-14950641D01*
X12371444Y-14769689D02*
X12276206Y-14769689D01*
X12276206Y-14769689D02*
X12266682Y-14864927D01*
X12266682Y-14864927D02*
X12276206Y-14855403D01*
X12276206Y-14855403D02*
X12295253Y-14845879D01*
X12295253Y-14845879D02*
X12342872Y-14845879D01*
X12342872Y-14845879D02*
X12361920Y-14855403D01*
X12361920Y-14855403D02*
X12371444Y-14864927D01*
X12371444Y-14864927D02*
X12380967Y-14883975D01*
X12380967Y-14883975D02*
X12380967Y-14931594D01*
X12380967Y-14931594D02*
X12371444Y-14950641D01*
X12371444Y-14950641D02*
X12361920Y-14960165D01*
X12361920Y-14960165D02*
X12342872Y-14969689D01*
X12342872Y-14969689D02*
X12295253Y-14969689D01*
X12295253Y-14969689D02*
X12276206Y-14960165D01*
X12276206Y-14960165D02*
X12266682Y-14950641D01*
X12552396Y-14836356D02*
X12552396Y-14969689D01*
X12504777Y-14760165D02*
X12457158Y-14903022D01*
X12457158Y-14903022D02*
X12580967Y-14903022D01*
X12647634Y-14769689D02*
X12647634Y-14807784D01*
X12723825Y-14769689D02*
X12723825Y-14807784D01*
X13019063Y-15045879D02*
X13009539Y-15036356D01*
X13009539Y-15036356D02*
X12990491Y-15007784D01*
X12990491Y-15007784D02*
X12980968Y-14988737D01*
X12980968Y-14988737D02*
X12971444Y-14960165D01*
X12971444Y-14960165D02*
X12961920Y-14912546D01*
X12961920Y-14912546D02*
X12961920Y-14874451D01*
X12961920Y-14874451D02*
X12971444Y-14826832D01*
X12971444Y-14826832D02*
X12980968Y-14798260D01*
X12980968Y-14798260D02*
X12990491Y-14779213D01*
X12990491Y-14779213D02*
X13009539Y-14750641D01*
X13009539Y-14750641D02*
X13019063Y-14741117D01*
X13085729Y-14788737D02*
X13095253Y-14779213D01*
X13095253Y-14779213D02*
X13114301Y-14769689D01*
X13114301Y-14769689D02*
X13161920Y-14769689D01*
X13161920Y-14769689D02*
X13180968Y-14779213D01*
X13180968Y-14779213D02*
X13190491Y-14788737D01*
X13190491Y-14788737D02*
X13200015Y-14807784D01*
X13200015Y-14807784D02*
X13200015Y-14826832D01*
X13200015Y-14826832D02*
X13190491Y-14855403D01*
X13190491Y-14855403D02*
X13076206Y-14969689D01*
X13076206Y-14969689D02*
X13200015Y-14969689D01*
X13438110Y-14969689D02*
X13438110Y-14769689D01*
X13523825Y-14969689D02*
X13523825Y-14864927D01*
X13523825Y-14864927D02*
X13514301Y-14845879D01*
X13514301Y-14845879D02*
X13495253Y-14836356D01*
X13495253Y-14836356D02*
X13466682Y-14836356D01*
X13466682Y-14836356D02*
X13447634Y-14845879D01*
X13447634Y-14845879D02*
X13438110Y-14855403D01*
X13647634Y-14969689D02*
X13628587Y-14960165D01*
X13628587Y-14960165D02*
X13619063Y-14950641D01*
X13619063Y-14950641D02*
X13609539Y-14931594D01*
X13609539Y-14931594D02*
X13609539Y-14874451D01*
X13609539Y-14874451D02*
X13619063Y-14855403D01*
X13619063Y-14855403D02*
X13628587Y-14845879D01*
X13628587Y-14845879D02*
X13647634Y-14836356D01*
X13647634Y-14836356D02*
X13676206Y-14836356D01*
X13676206Y-14836356D02*
X13695253Y-14845879D01*
X13695253Y-14845879D02*
X13704777Y-14855403D01*
X13704777Y-14855403D02*
X13714301Y-14874451D01*
X13714301Y-14874451D02*
X13714301Y-14931594D01*
X13714301Y-14931594D02*
X13704777Y-14950641D01*
X13704777Y-14950641D02*
X13695253Y-14960165D01*
X13695253Y-14960165D02*
X13676206Y-14969689D01*
X13676206Y-14969689D02*
X13647634Y-14969689D01*
X13828587Y-14969689D02*
X13809539Y-14960165D01*
X13809539Y-14960165D02*
X13800015Y-14941117D01*
X13800015Y-14941117D02*
X13800015Y-14769689D01*
X13980968Y-14960165D02*
X13961920Y-14969689D01*
X13961920Y-14969689D02*
X13923825Y-14969689D01*
X13923825Y-14969689D02*
X13904777Y-14960165D01*
X13904777Y-14960165D02*
X13895253Y-14941117D01*
X13895253Y-14941117D02*
X13895253Y-14864927D01*
X13895253Y-14864927D02*
X13904777Y-14845879D01*
X13904777Y-14845879D02*
X13923825Y-14836356D01*
X13923825Y-14836356D02*
X13961920Y-14836356D01*
X13961920Y-14836356D02*
X13980968Y-14845879D01*
X13980968Y-14845879D02*
X13990491Y-14864927D01*
X13990491Y-14864927D02*
X13990491Y-14883975D01*
X13990491Y-14883975D02*
X13895253Y-14903022D01*
X14066682Y-14960165D02*
X14085730Y-14969689D01*
X14085730Y-14969689D02*
X14123825Y-14969689D01*
X14123825Y-14969689D02*
X14142872Y-14960165D01*
X14142872Y-14960165D02*
X14152396Y-14941117D01*
X14152396Y-14941117D02*
X14152396Y-14931594D01*
X14152396Y-14931594D02*
X14142872Y-14912546D01*
X14142872Y-14912546D02*
X14123825Y-14903022D01*
X14123825Y-14903022D02*
X14095253Y-14903022D01*
X14095253Y-14903022D02*
X14076206Y-14893498D01*
X14076206Y-14893498D02*
X14066682Y-14874451D01*
X14066682Y-14874451D02*
X14066682Y-14864927D01*
X14066682Y-14864927D02*
X14076206Y-14845879D01*
X14076206Y-14845879D02*
X14095253Y-14836356D01*
X14095253Y-14836356D02*
X14123825Y-14836356D01*
X14123825Y-14836356D02*
X14142872Y-14845879D01*
X14219063Y-15045879D02*
X14228587Y-15036356D01*
X14228587Y-15036356D02*
X14247634Y-15007784D01*
X14247634Y-15007784D02*
X14257158Y-14988737D01*
X14257158Y-14988737D02*
X14266682Y-14960165D01*
X14266682Y-14960165D02*
X14276206Y-14912546D01*
X14276206Y-14912546D02*
X14276206Y-14874451D01*
X14276206Y-14874451D02*
X14266682Y-14826832D01*
X14266682Y-14826832D02*
X14257158Y-14798260D01*
X14257158Y-14798260D02*
X14247634Y-14779213D01*
X14247634Y-14779213D02*
X14228587Y-14750641D01*
X14228587Y-14750641D02*
X14219063Y-14741117D01*
X14580968Y-15045879D02*
X14571444Y-15036356D01*
X14571444Y-15036356D02*
X14552396Y-15007784D01*
X14552396Y-15007784D02*
X14542872Y-14988737D01*
X14542872Y-14988737D02*
X14533349Y-14960165D01*
X14533349Y-14960165D02*
X14523825Y-14912546D01*
X14523825Y-14912546D02*
X14523825Y-14874451D01*
X14523825Y-14874451D02*
X14533349Y-14826832D01*
X14533349Y-14826832D02*
X14542872Y-14798260D01*
X14542872Y-14798260D02*
X14552396Y-14779213D01*
X14552396Y-14779213D02*
X14571444Y-14750641D01*
X14571444Y-14750641D02*
X14580968Y-14741117D01*
X14657158Y-14836356D02*
X14657158Y-14969689D01*
X14657158Y-14855403D02*
X14666682Y-14845879D01*
X14666682Y-14845879D02*
X14685730Y-14836356D01*
X14685730Y-14836356D02*
X14714301Y-14836356D01*
X14714301Y-14836356D02*
X14733349Y-14845879D01*
X14733349Y-14845879D02*
X14742872Y-14864927D01*
X14742872Y-14864927D02*
X14742872Y-14969689D01*
X14866682Y-14969689D02*
X14847634Y-14960165D01*
X14847634Y-14960165D02*
X14838111Y-14950641D01*
X14838111Y-14950641D02*
X14828587Y-14931594D01*
X14828587Y-14931594D02*
X14828587Y-14874451D01*
X14828587Y-14874451D02*
X14838111Y-14855403D01*
X14838111Y-14855403D02*
X14847634Y-14845879D01*
X14847634Y-14845879D02*
X14866682Y-14836356D01*
X14866682Y-14836356D02*
X14895253Y-14836356D01*
X14895253Y-14836356D02*
X14914301Y-14845879D01*
X14914301Y-14845879D02*
X14923825Y-14855403D01*
X14923825Y-14855403D02*
X14933349Y-14874451D01*
X14933349Y-14874451D02*
X14933349Y-14931594D01*
X14933349Y-14931594D02*
X14923825Y-14950641D01*
X14923825Y-14950641D02*
X14914301Y-14960165D01*
X14914301Y-14960165D02*
X14895253Y-14969689D01*
X14895253Y-14969689D02*
X14866682Y-14969689D01*
X14990492Y-14836356D02*
X15066682Y-14836356D01*
X15019063Y-14769689D02*
X15019063Y-14941117D01*
X15019063Y-14941117D02*
X15028587Y-14960165D01*
X15028587Y-14960165D02*
X15047634Y-14969689D01*
X15047634Y-14969689D02*
X15066682Y-14969689D01*
X15285730Y-14836356D02*
X15285730Y-15036356D01*
X15285730Y-14845879D02*
X15304777Y-14836356D01*
X15304777Y-14836356D02*
X15342873Y-14836356D01*
X15342873Y-14836356D02*
X15361920Y-14845879D01*
X15361920Y-14845879D02*
X15371444Y-14855403D01*
X15371444Y-14855403D02*
X15380968Y-14874451D01*
X15380968Y-14874451D02*
X15380968Y-14931594D01*
X15380968Y-14931594D02*
X15371444Y-14950641D01*
X15371444Y-14950641D02*
X15361920Y-14960165D01*
X15361920Y-14960165D02*
X15342873Y-14969689D01*
X15342873Y-14969689D02*
X15304777Y-14969689D01*
X15304777Y-14969689D02*
X15285730Y-14960165D01*
X15495253Y-14969689D02*
X15476206Y-14960165D01*
X15476206Y-14960165D02*
X15466682Y-14941117D01*
X15466682Y-14941117D02*
X15466682Y-14769689D01*
X15657158Y-14969689D02*
X15657158Y-14864927D01*
X15657158Y-14864927D02*
X15647634Y-14845879D01*
X15647634Y-14845879D02*
X15628587Y-14836356D01*
X15628587Y-14836356D02*
X15590492Y-14836356D01*
X15590492Y-14836356D02*
X15571444Y-14845879D01*
X15657158Y-14960165D02*
X15638111Y-14969689D01*
X15638111Y-14969689D02*
X15590492Y-14969689D01*
X15590492Y-14969689D02*
X15571444Y-14960165D01*
X15571444Y-14960165D02*
X15561920Y-14941117D01*
X15561920Y-14941117D02*
X15561920Y-14922070D01*
X15561920Y-14922070D02*
X15571444Y-14903022D01*
X15571444Y-14903022D02*
X15590492Y-14893498D01*
X15590492Y-14893498D02*
X15638111Y-14893498D01*
X15638111Y-14893498D02*
X15657158Y-14883975D01*
X15723825Y-14836356D02*
X15800015Y-14836356D01*
X15752396Y-14769689D02*
X15752396Y-14941117D01*
X15752396Y-14941117D02*
X15761920Y-14960165D01*
X15761920Y-14960165D02*
X15780968Y-14969689D01*
X15780968Y-14969689D02*
X15800015Y-14969689D01*
X15942873Y-14960165D02*
X15923825Y-14969689D01*
X15923825Y-14969689D02*
X15885730Y-14969689D01*
X15885730Y-14969689D02*
X15866682Y-14960165D01*
X15866682Y-14960165D02*
X15857158Y-14941117D01*
X15857158Y-14941117D02*
X15857158Y-14864927D01*
X15857158Y-14864927D02*
X15866682Y-14845879D01*
X15866682Y-14845879D02*
X15885730Y-14836356D01*
X15885730Y-14836356D02*
X15923825Y-14836356D01*
X15923825Y-14836356D02*
X15942873Y-14845879D01*
X15942873Y-14845879D02*
X15952396Y-14864927D01*
X15952396Y-14864927D02*
X15952396Y-14883975D01*
X15952396Y-14883975D02*
X15857158Y-14903022D01*
X16123825Y-14969689D02*
X16123825Y-14769689D01*
X16123825Y-14960165D02*
X16104777Y-14969689D01*
X16104777Y-14969689D02*
X16066682Y-14969689D01*
X16066682Y-14969689D02*
X16047634Y-14960165D01*
X16047634Y-14960165D02*
X16038111Y-14950641D01*
X16038111Y-14950641D02*
X16028587Y-14931594D01*
X16028587Y-14931594D02*
X16028587Y-14874451D01*
X16028587Y-14874451D02*
X16038111Y-14855403D01*
X16038111Y-14855403D02*
X16047634Y-14845879D01*
X16047634Y-14845879D02*
X16066682Y-14836356D01*
X16066682Y-14836356D02*
X16104777Y-14836356D01*
X16104777Y-14836356D02*
X16123825Y-14845879D01*
X16200015Y-15045879D02*
X16209539Y-15036356D01*
X16209539Y-15036356D02*
X16228587Y-15007784D01*
X16228587Y-15007784D02*
X16238111Y-14988737D01*
X16238111Y-14988737D02*
X16247634Y-14960165D01*
X16247634Y-14960165D02*
X16257158Y-14912546D01*
X16257158Y-14912546D02*
X16257158Y-14874451D01*
X16257158Y-14874451D02*
X16247634Y-14826832D01*
X16247634Y-14826832D02*
X16238111Y-14798260D01*
X16238111Y-14798260D02*
X16228587Y-14779213D01*
X16228587Y-14779213D02*
X16209539Y-14750641D01*
X16209539Y-14750641D02*
X16200015Y-14741117D01*
X9444000Y-15142205D02*
G75*
G02*
X9244000Y-15142205I-100000J0D01*
G01*
X9244000Y-15142205D02*
G75*
G02*
X9444000Y-15142205I100000J0D01*
G01*
X9685729Y-15033689D02*
X9809539Y-15033689D01*
X9809539Y-15033689D02*
X9742872Y-15109879D01*
X9742872Y-15109879D02*
X9771444Y-15109879D01*
X9771444Y-15109879D02*
X9790491Y-15119403D01*
X9790491Y-15119403D02*
X9800015Y-15128927D01*
X9800015Y-15128927D02*
X9809539Y-15147975D01*
X9809539Y-15147975D02*
X9809539Y-15195594D01*
X9809539Y-15195594D02*
X9800015Y-15214641D01*
X9800015Y-15214641D02*
X9790491Y-15224165D01*
X9790491Y-15224165D02*
X9771444Y-15233689D01*
X9771444Y-15233689D02*
X9714301Y-15233689D01*
X9714301Y-15233689D02*
X9695253Y-15224165D01*
X9695253Y-15224165D02*
X9685729Y-15214641D01*
X9895253Y-15214641D02*
X9904777Y-15224165D01*
X9904777Y-15224165D02*
X9895253Y-15233689D01*
X9895253Y-15233689D02*
X9885729Y-15224165D01*
X9885729Y-15224165D02*
X9895253Y-15214641D01*
X9895253Y-15214641D02*
X9895253Y-15233689D01*
X10028586Y-15033689D02*
X10047634Y-15033689D01*
X10047634Y-15033689D02*
X10066682Y-15043213D01*
X10066682Y-15043213D02*
X10076205Y-15052737D01*
X10076205Y-15052737D02*
X10085729Y-15071784D01*
X10085729Y-15071784D02*
X10095253Y-15109879D01*
X10095253Y-15109879D02*
X10095253Y-15157498D01*
X10095253Y-15157498D02*
X10085729Y-15195594D01*
X10085729Y-15195594D02*
X10076205Y-15214641D01*
X10076205Y-15214641D02*
X10066682Y-15224165D01*
X10066682Y-15224165D02*
X10047634Y-15233689D01*
X10047634Y-15233689D02*
X10028586Y-15233689D01*
X10028586Y-15233689D02*
X10009539Y-15224165D01*
X10009539Y-15224165D02*
X10000015Y-15214641D01*
X10000015Y-15214641D02*
X9990491Y-15195594D01*
X9990491Y-15195594D02*
X9980967Y-15157498D01*
X9980967Y-15157498D02*
X9980967Y-15109879D01*
X9980967Y-15109879D02*
X9990491Y-15071784D01*
X9990491Y-15071784D02*
X10000015Y-15052737D01*
X10000015Y-15052737D02*
X10009539Y-15043213D01*
X10009539Y-15043213D02*
X10028586Y-15033689D01*
X10219063Y-15033689D02*
X10238110Y-15033689D01*
X10238110Y-15033689D02*
X10257158Y-15043213D01*
X10257158Y-15043213D02*
X10266682Y-15052737D01*
X10266682Y-15052737D02*
X10276205Y-15071784D01*
X10276205Y-15071784D02*
X10285729Y-15109879D01*
X10285729Y-15109879D02*
X10285729Y-15157498D01*
X10285729Y-15157498D02*
X10276205Y-15195594D01*
X10276205Y-15195594D02*
X10266682Y-15214641D01*
X10266682Y-15214641D02*
X10257158Y-15224165D01*
X10257158Y-15224165D02*
X10238110Y-15233689D01*
X10238110Y-15233689D02*
X10219063Y-15233689D01*
X10219063Y-15233689D02*
X10200015Y-15224165D01*
X10200015Y-15224165D02*
X10190491Y-15214641D01*
X10190491Y-15214641D02*
X10180967Y-15195594D01*
X10180967Y-15195594D02*
X10171444Y-15157498D01*
X10171444Y-15157498D02*
X10171444Y-15109879D01*
X10171444Y-15109879D02*
X10180967Y-15071784D01*
X10180967Y-15071784D02*
X10190491Y-15052737D01*
X10190491Y-15052737D02*
X10200015Y-15043213D01*
X10200015Y-15043213D02*
X10219063Y-15033689D01*
X10409539Y-15033689D02*
X10428586Y-15033689D01*
X10428586Y-15033689D02*
X10447634Y-15043213D01*
X10447634Y-15043213D02*
X10457158Y-15052737D01*
X10457158Y-15052737D02*
X10466682Y-15071784D01*
X10466682Y-15071784D02*
X10476205Y-15109879D01*
X10476205Y-15109879D02*
X10476205Y-15157498D01*
X10476205Y-15157498D02*
X10466682Y-15195594D01*
X10466682Y-15195594D02*
X10457158Y-15214641D01*
X10457158Y-15214641D02*
X10447634Y-15224165D01*
X10447634Y-15224165D02*
X10428586Y-15233689D01*
X10428586Y-15233689D02*
X10409539Y-15233689D01*
X10409539Y-15233689D02*
X10390491Y-15224165D01*
X10390491Y-15224165D02*
X10380967Y-15214641D01*
X10380967Y-15214641D02*
X10371444Y-15195594D01*
X10371444Y-15195594D02*
X10361920Y-15157498D01*
X10361920Y-15157498D02*
X10361920Y-15109879D01*
X10361920Y-15109879D02*
X10371444Y-15071784D01*
X10371444Y-15071784D02*
X10380967Y-15052737D01*
X10380967Y-15052737D02*
X10390491Y-15043213D01*
X10390491Y-15043213D02*
X10409539Y-15033689D01*
X10561920Y-15233689D02*
X10561920Y-15100356D01*
X10561920Y-15119403D02*
X10571444Y-15109879D01*
X10571444Y-15109879D02*
X10590491Y-15100356D01*
X10590491Y-15100356D02*
X10619063Y-15100356D01*
X10619063Y-15100356D02*
X10638110Y-15109879D01*
X10638110Y-15109879D02*
X10647634Y-15128927D01*
X10647634Y-15128927D02*
X10647634Y-15233689D01*
X10647634Y-15128927D02*
X10657158Y-15109879D01*
X10657158Y-15109879D02*
X10676205Y-15100356D01*
X10676205Y-15100356D02*
X10704777Y-15100356D01*
X10704777Y-15100356D02*
X10723825Y-15109879D01*
X10723825Y-15109879D02*
X10733348Y-15128927D01*
X10733348Y-15128927D02*
X10733348Y-15233689D01*
X10828586Y-15233689D02*
X10828586Y-15100356D01*
X10828586Y-15119403D02*
X10838110Y-15109879D01*
X10838110Y-15109879D02*
X10857158Y-15100356D01*
X10857158Y-15100356D02*
X10885729Y-15100356D01*
X10885729Y-15100356D02*
X10904777Y-15109879D01*
X10904777Y-15109879D02*
X10914301Y-15128927D01*
X10914301Y-15128927D02*
X10914301Y-15233689D01*
X10914301Y-15128927D02*
X10923825Y-15109879D01*
X10923825Y-15109879D02*
X10942872Y-15100356D01*
X10942872Y-15100356D02*
X10971444Y-15100356D01*
X10971444Y-15100356D02*
X10990491Y-15109879D01*
X10990491Y-15109879D02*
X11000015Y-15128927D01*
X11000015Y-15128927D02*
X11000015Y-15233689D01*
X11390491Y-15024165D02*
X11219063Y-15281308D01*
X11647634Y-15033689D02*
X11666682Y-15033689D01*
X11666682Y-15033689D02*
X11685729Y-15043213D01*
X11685729Y-15043213D02*
X11695253Y-15052737D01*
X11695253Y-15052737D02*
X11704777Y-15071784D01*
X11704777Y-15071784D02*
X11714301Y-15109879D01*
X11714301Y-15109879D02*
X11714301Y-15157498D01*
X11714301Y-15157498D02*
X11704777Y-15195594D01*
X11704777Y-15195594D02*
X11695253Y-15214641D01*
X11695253Y-15214641D02*
X11685729Y-15224165D01*
X11685729Y-15224165D02*
X11666682Y-15233689D01*
X11666682Y-15233689D02*
X11647634Y-15233689D01*
X11647634Y-15233689D02*
X11628586Y-15224165D01*
X11628586Y-15224165D02*
X11619063Y-15214641D01*
X11619063Y-15214641D02*
X11609539Y-15195594D01*
X11609539Y-15195594D02*
X11600015Y-15157498D01*
X11600015Y-15157498D02*
X11600015Y-15109879D01*
X11600015Y-15109879D02*
X11609539Y-15071784D01*
X11609539Y-15071784D02*
X11619063Y-15052737D01*
X11619063Y-15052737D02*
X11628586Y-15043213D01*
X11628586Y-15043213D02*
X11647634Y-15033689D01*
X11800015Y-15214641D02*
X11809539Y-15224165D01*
X11809539Y-15224165D02*
X11800015Y-15233689D01*
X11800015Y-15233689D02*
X11790491Y-15224165D01*
X11790491Y-15224165D02*
X11800015Y-15214641D01*
X11800015Y-15214641D02*
X11800015Y-15233689D01*
X12000015Y-15233689D02*
X11885729Y-15233689D01*
X11942872Y-15233689D02*
X11942872Y-15033689D01*
X11942872Y-15033689D02*
X11923825Y-15062260D01*
X11923825Y-15062260D02*
X11904777Y-15081308D01*
X11904777Y-15081308D02*
X11885729Y-15090832D01*
X12190491Y-15233689D02*
X12076206Y-15233689D01*
X12133348Y-15233689D02*
X12133348Y-15033689D01*
X12133348Y-15033689D02*
X12114301Y-15062260D01*
X12114301Y-15062260D02*
X12095253Y-15081308D01*
X12095253Y-15081308D02*
X12076206Y-15090832D01*
X12304777Y-15119403D02*
X12285729Y-15109879D01*
X12285729Y-15109879D02*
X12276206Y-15100356D01*
X12276206Y-15100356D02*
X12266682Y-15081308D01*
X12266682Y-15081308D02*
X12266682Y-15071784D01*
X12266682Y-15071784D02*
X12276206Y-15052737D01*
X12276206Y-15052737D02*
X12285729Y-15043213D01*
X12285729Y-15043213D02*
X12304777Y-15033689D01*
X12304777Y-15033689D02*
X12342872Y-15033689D01*
X12342872Y-15033689D02*
X12361920Y-15043213D01*
X12361920Y-15043213D02*
X12371444Y-15052737D01*
X12371444Y-15052737D02*
X12380967Y-15071784D01*
X12380967Y-15071784D02*
X12380967Y-15081308D01*
X12380967Y-15081308D02*
X12371444Y-15100356D01*
X12371444Y-15100356D02*
X12361920Y-15109879D01*
X12361920Y-15109879D02*
X12342872Y-15119403D01*
X12342872Y-15119403D02*
X12304777Y-15119403D01*
X12304777Y-15119403D02*
X12285729Y-15128927D01*
X12285729Y-15128927D02*
X12276206Y-15138451D01*
X12276206Y-15138451D02*
X12266682Y-15157498D01*
X12266682Y-15157498D02*
X12266682Y-15195594D01*
X12266682Y-15195594D02*
X12276206Y-15214641D01*
X12276206Y-15214641D02*
X12285729Y-15224165D01*
X12285729Y-15224165D02*
X12304777Y-15233689D01*
X12304777Y-15233689D02*
X12342872Y-15233689D01*
X12342872Y-15233689D02*
X12361920Y-15224165D01*
X12361920Y-15224165D02*
X12371444Y-15214641D01*
X12371444Y-15214641D02*
X12380967Y-15195594D01*
X12380967Y-15195594D02*
X12380967Y-15157498D01*
X12380967Y-15157498D02*
X12371444Y-15138451D01*
X12371444Y-15138451D02*
X12361920Y-15128927D01*
X12361920Y-15128927D02*
X12342872Y-15119403D01*
X12571444Y-15233689D02*
X12457158Y-15233689D01*
X12514301Y-15233689D02*
X12514301Y-15033689D01*
X12514301Y-15033689D02*
X12495253Y-15062260D01*
X12495253Y-15062260D02*
X12476206Y-15081308D01*
X12476206Y-15081308D02*
X12457158Y-15090832D01*
X12647634Y-15033689D02*
X12647634Y-15071784D01*
X12723825Y-15033689D02*
X12723825Y-15071784D01*
X13019063Y-15309879D02*
X13009539Y-15300356D01*
X13009539Y-15300356D02*
X12990491Y-15271784D01*
X12990491Y-15271784D02*
X12980968Y-15252737D01*
X12980968Y-15252737D02*
X12971444Y-15224165D01*
X12971444Y-15224165D02*
X12961920Y-15176546D01*
X12961920Y-15176546D02*
X12961920Y-15138451D01*
X12961920Y-15138451D02*
X12971444Y-15090832D01*
X12971444Y-15090832D02*
X12980968Y-15062260D01*
X12980968Y-15062260D02*
X12990491Y-15043213D01*
X12990491Y-15043213D02*
X13009539Y-15014641D01*
X13009539Y-15014641D02*
X13019063Y-15005117D01*
X13076206Y-15033689D02*
X13209539Y-15033689D01*
X13209539Y-15033689D02*
X13123825Y-15233689D01*
X13276206Y-15052737D02*
X13285729Y-15043213D01*
X13285729Y-15043213D02*
X13304777Y-15033689D01*
X13304777Y-15033689D02*
X13352396Y-15033689D01*
X13352396Y-15033689D02*
X13371444Y-15043213D01*
X13371444Y-15043213D02*
X13380968Y-15052737D01*
X13380968Y-15052737D02*
X13390491Y-15071784D01*
X13390491Y-15071784D02*
X13390491Y-15090832D01*
X13390491Y-15090832D02*
X13380968Y-15119403D01*
X13380968Y-15119403D02*
X13266682Y-15233689D01*
X13266682Y-15233689D02*
X13390491Y-15233689D01*
X13628587Y-15233689D02*
X13628587Y-15033689D01*
X13714301Y-15233689D02*
X13714301Y-15128927D01*
X13714301Y-15128927D02*
X13704777Y-15109879D01*
X13704777Y-15109879D02*
X13685730Y-15100356D01*
X13685730Y-15100356D02*
X13657158Y-15100356D01*
X13657158Y-15100356D02*
X13638110Y-15109879D01*
X13638110Y-15109879D02*
X13628587Y-15119403D01*
X13838110Y-15233689D02*
X13819063Y-15224165D01*
X13819063Y-15224165D02*
X13809539Y-15214641D01*
X13809539Y-15214641D02*
X13800015Y-15195594D01*
X13800015Y-15195594D02*
X13800015Y-15138451D01*
X13800015Y-15138451D02*
X13809539Y-15119403D01*
X13809539Y-15119403D02*
X13819063Y-15109879D01*
X13819063Y-15109879D02*
X13838110Y-15100356D01*
X13838110Y-15100356D02*
X13866682Y-15100356D01*
X13866682Y-15100356D02*
X13885730Y-15109879D01*
X13885730Y-15109879D02*
X13895253Y-15119403D01*
X13895253Y-15119403D02*
X13904777Y-15138451D01*
X13904777Y-15138451D02*
X13904777Y-15195594D01*
X13904777Y-15195594D02*
X13895253Y-15214641D01*
X13895253Y-15214641D02*
X13885730Y-15224165D01*
X13885730Y-15224165D02*
X13866682Y-15233689D01*
X13866682Y-15233689D02*
X13838110Y-15233689D01*
X14019063Y-15233689D02*
X14000015Y-15224165D01*
X14000015Y-15224165D02*
X13990491Y-15205117D01*
X13990491Y-15205117D02*
X13990491Y-15033689D01*
X14171444Y-15224165D02*
X14152396Y-15233689D01*
X14152396Y-15233689D02*
X14114301Y-15233689D01*
X14114301Y-15233689D02*
X14095253Y-15224165D01*
X14095253Y-15224165D02*
X14085730Y-15205117D01*
X14085730Y-15205117D02*
X14085730Y-15128927D01*
X14085730Y-15128927D02*
X14095253Y-15109879D01*
X14095253Y-15109879D02*
X14114301Y-15100356D01*
X14114301Y-15100356D02*
X14152396Y-15100356D01*
X14152396Y-15100356D02*
X14171444Y-15109879D01*
X14171444Y-15109879D02*
X14180968Y-15128927D01*
X14180968Y-15128927D02*
X14180968Y-15147975D01*
X14180968Y-15147975D02*
X14085730Y-15167022D01*
X14257158Y-15224165D02*
X14276206Y-15233689D01*
X14276206Y-15233689D02*
X14314301Y-15233689D01*
X14314301Y-15233689D02*
X14333349Y-15224165D01*
X14333349Y-15224165D02*
X14342872Y-15205117D01*
X14342872Y-15205117D02*
X14342872Y-15195594D01*
X14342872Y-15195594D02*
X14333349Y-15176546D01*
X14333349Y-15176546D02*
X14314301Y-15167022D01*
X14314301Y-15167022D02*
X14285730Y-15167022D01*
X14285730Y-15167022D02*
X14266682Y-15157498D01*
X14266682Y-15157498D02*
X14257158Y-15138451D01*
X14257158Y-15138451D02*
X14257158Y-15128927D01*
X14257158Y-15128927D02*
X14266682Y-15109879D01*
X14266682Y-15109879D02*
X14285730Y-15100356D01*
X14285730Y-15100356D02*
X14314301Y-15100356D01*
X14314301Y-15100356D02*
X14333349Y-15109879D01*
X14409539Y-15309879D02*
X14419063Y-15300356D01*
X14419063Y-15300356D02*
X14438111Y-15271784D01*
X14438111Y-15271784D02*
X14447634Y-15252737D01*
X14447634Y-15252737D02*
X14457158Y-15224165D01*
X14457158Y-15224165D02*
X14466682Y-15176546D01*
X14466682Y-15176546D02*
X14466682Y-15138451D01*
X14466682Y-15138451D02*
X14457158Y-15090832D01*
X14457158Y-15090832D02*
X14447634Y-15062260D01*
X14447634Y-15062260D02*
X14438111Y-15043213D01*
X14438111Y-15043213D02*
X14419063Y-15014641D01*
X14419063Y-15014641D02*
X14409539Y-15005117D01*
X14771444Y-15309879D02*
X14761920Y-15300356D01*
X14761920Y-15300356D02*
X14742872Y-15271784D01*
X14742872Y-15271784D02*
X14733349Y-15252737D01*
X14733349Y-15252737D02*
X14723825Y-15224165D01*
X14723825Y-15224165D02*
X14714301Y-15176546D01*
X14714301Y-15176546D02*
X14714301Y-15138451D01*
X14714301Y-15138451D02*
X14723825Y-15090832D01*
X14723825Y-15090832D02*
X14733349Y-15062260D01*
X14733349Y-15062260D02*
X14742872Y-15043213D01*
X14742872Y-15043213D02*
X14761920Y-15014641D01*
X14761920Y-15014641D02*
X14771444Y-15005117D01*
X14847634Y-15100356D02*
X14847634Y-15233689D01*
X14847634Y-15119403D02*
X14857158Y-15109879D01*
X14857158Y-15109879D02*
X14876206Y-15100356D01*
X14876206Y-15100356D02*
X14904777Y-15100356D01*
X14904777Y-15100356D02*
X14923825Y-15109879D01*
X14923825Y-15109879D02*
X14933349Y-15128927D01*
X14933349Y-15128927D02*
X14933349Y-15233689D01*
X15057158Y-15233689D02*
X15038111Y-15224165D01*
X15038111Y-15224165D02*
X15028587Y-15214641D01*
X15028587Y-15214641D02*
X15019063Y-15195594D01*
X15019063Y-15195594D02*
X15019063Y-15138451D01*
X15019063Y-15138451D02*
X15028587Y-15119403D01*
X15028587Y-15119403D02*
X15038111Y-15109879D01*
X15038111Y-15109879D02*
X15057158Y-15100356D01*
X15057158Y-15100356D02*
X15085730Y-15100356D01*
X15085730Y-15100356D02*
X15104777Y-15109879D01*
X15104777Y-15109879D02*
X15114301Y-15119403D01*
X15114301Y-15119403D02*
X15123825Y-15138451D01*
X15123825Y-15138451D02*
X15123825Y-15195594D01*
X15123825Y-15195594D02*
X15114301Y-15214641D01*
X15114301Y-15214641D02*
X15104777Y-15224165D01*
X15104777Y-15224165D02*
X15085730Y-15233689D01*
X15085730Y-15233689D02*
X15057158Y-15233689D01*
X15180968Y-15100356D02*
X15257158Y-15100356D01*
X15209539Y-15033689D02*
X15209539Y-15205117D01*
X15209539Y-15205117D02*
X15219063Y-15224165D01*
X15219063Y-15224165D02*
X15238111Y-15233689D01*
X15238111Y-15233689D02*
X15257158Y-15233689D01*
X15476206Y-15100356D02*
X15476206Y-15300356D01*
X15476206Y-15109879D02*
X15495253Y-15100356D01*
X15495253Y-15100356D02*
X15533349Y-15100356D01*
X15533349Y-15100356D02*
X15552396Y-15109879D01*
X15552396Y-15109879D02*
X15561920Y-15119403D01*
X15561920Y-15119403D02*
X15571444Y-15138451D01*
X15571444Y-15138451D02*
X15571444Y-15195594D01*
X15571444Y-15195594D02*
X15561920Y-15214641D01*
X15561920Y-15214641D02*
X15552396Y-15224165D01*
X15552396Y-15224165D02*
X15533349Y-15233689D01*
X15533349Y-15233689D02*
X15495253Y-15233689D01*
X15495253Y-15233689D02*
X15476206Y-15224165D01*
X15685730Y-15233689D02*
X15666682Y-15224165D01*
X15666682Y-15224165D02*
X15657158Y-15205117D01*
X15657158Y-15205117D02*
X15657158Y-15033689D01*
X15847634Y-15233689D02*
X15847634Y-15128927D01*
X15847634Y-15128927D02*
X15838111Y-15109879D01*
X15838111Y-15109879D02*
X15819063Y-15100356D01*
X15819063Y-15100356D02*
X15780968Y-15100356D01*
X15780968Y-15100356D02*
X15761920Y-15109879D01*
X15847634Y-15224165D02*
X15828587Y-15233689D01*
X15828587Y-15233689D02*
X15780968Y-15233689D01*
X15780968Y-15233689D02*
X15761920Y-15224165D01*
X15761920Y-15224165D02*
X15752396Y-15205117D01*
X15752396Y-15205117D02*
X15752396Y-15186070D01*
X15752396Y-15186070D02*
X15761920Y-15167022D01*
X15761920Y-15167022D02*
X15780968Y-15157498D01*
X15780968Y-15157498D02*
X15828587Y-15157498D01*
X15828587Y-15157498D02*
X15847634Y-15147975D01*
X15914301Y-15100356D02*
X15990492Y-15100356D01*
X15942873Y-15033689D02*
X15942873Y-15205117D01*
X15942873Y-15205117D02*
X15952396Y-15224165D01*
X15952396Y-15224165D02*
X15971444Y-15233689D01*
X15971444Y-15233689D02*
X15990492Y-15233689D01*
X16133349Y-15224165D02*
X16114301Y-15233689D01*
X16114301Y-15233689D02*
X16076206Y-15233689D01*
X16076206Y-15233689D02*
X16057158Y-15224165D01*
X16057158Y-15224165D02*
X16047634Y-15205117D01*
X16047634Y-15205117D02*
X16047634Y-15128927D01*
X16047634Y-15128927D02*
X16057158Y-15109879D01*
X16057158Y-15109879D02*
X16076206Y-15100356D01*
X16076206Y-15100356D02*
X16114301Y-15100356D01*
X16114301Y-15100356D02*
X16133349Y-15109879D01*
X16133349Y-15109879D02*
X16142873Y-15128927D01*
X16142873Y-15128927D02*
X16142873Y-15147975D01*
X16142873Y-15147975D02*
X16047634Y-15167022D01*
X16314301Y-15233689D02*
X16314301Y-15033689D01*
X16314301Y-15224165D02*
X16295254Y-15233689D01*
X16295254Y-15233689D02*
X16257158Y-15233689D01*
X16257158Y-15233689D02*
X16238111Y-15224165D01*
X16238111Y-15224165D02*
X16228587Y-15214641D01*
X16228587Y-15214641D02*
X16219063Y-15195594D01*
X16219063Y-15195594D02*
X16219063Y-15138451D01*
X16219063Y-15138451D02*
X16228587Y-15119403D01*
X16228587Y-15119403D02*
X16238111Y-15109879D01*
X16238111Y-15109879D02*
X16257158Y-15100356D01*
X16257158Y-15100356D02*
X16295254Y-15100356D01*
X16295254Y-15100356D02*
X16314301Y-15109879D01*
X16390492Y-15309879D02*
X16400015Y-15300356D01*
X16400015Y-15300356D02*
X16419063Y-15271784D01*
X16419063Y-15271784D02*
X16428587Y-15252737D01*
X16428587Y-15252737D02*
X16438111Y-15224165D01*
X16438111Y-15224165D02*
X16447634Y-15176546D01*
X16447634Y-15176546D02*
X16447634Y-15138451D01*
X16447634Y-15138451D02*
X16438111Y-15090832D01*
X16438111Y-15090832D02*
X16428587Y-15062260D01*
X16428587Y-15062260D02*
X16419063Y-15043213D01*
X16419063Y-15043213D02*
X16400015Y-15014641D01*
X16400015Y-15014641D02*
X16390492Y-15005117D01*
X9344000Y-15362205D02*
X9344000Y-15562205D01*
X9244000Y-15462205D02*
X9444000Y-15462205D01*
X9800015Y-15353689D02*
X9704777Y-15353689D01*
X9704777Y-15353689D02*
X9695253Y-15448927D01*
X9695253Y-15448927D02*
X9704777Y-15439403D01*
X9704777Y-15439403D02*
X9723824Y-15429879D01*
X9723824Y-15429879D02*
X9771444Y-15429879D01*
X9771444Y-15429879D02*
X9790491Y-15439403D01*
X9790491Y-15439403D02*
X9800015Y-15448927D01*
X9800015Y-15448927D02*
X9809539Y-15467975D01*
X9809539Y-15467975D02*
X9809539Y-15515594D01*
X9809539Y-15515594D02*
X9800015Y-15534641D01*
X9800015Y-15534641D02*
X9790491Y-15544165D01*
X9790491Y-15544165D02*
X9771444Y-15553689D01*
X9771444Y-15553689D02*
X9723824Y-15553689D01*
X9723824Y-15553689D02*
X9704777Y-15544165D01*
X9704777Y-15544165D02*
X9695253Y-15534641D01*
X9895253Y-15534641D02*
X9904777Y-15544165D01*
X9904777Y-15544165D02*
X9895253Y-15553689D01*
X9895253Y-15553689D02*
X9885729Y-15544165D01*
X9885729Y-15544165D02*
X9895253Y-15534641D01*
X9895253Y-15534641D02*
X9895253Y-15553689D01*
X10028586Y-15353689D02*
X10047634Y-15353689D01*
X10047634Y-15353689D02*
X10066682Y-15363213D01*
X10066682Y-15363213D02*
X10076205Y-15372737D01*
X10076205Y-15372737D02*
X10085729Y-15391784D01*
X10085729Y-15391784D02*
X10095253Y-15429879D01*
X10095253Y-15429879D02*
X10095253Y-15477498D01*
X10095253Y-15477498D02*
X10085729Y-15515594D01*
X10085729Y-15515594D02*
X10076205Y-15534641D01*
X10076205Y-15534641D02*
X10066682Y-15544165D01*
X10066682Y-15544165D02*
X10047634Y-15553689D01*
X10047634Y-15553689D02*
X10028586Y-15553689D01*
X10028586Y-15553689D02*
X10009539Y-15544165D01*
X10009539Y-15544165D02*
X10000015Y-15534641D01*
X10000015Y-15534641D02*
X9990491Y-15515594D01*
X9990491Y-15515594D02*
X9980967Y-15477498D01*
X9980967Y-15477498D02*
X9980967Y-15429879D01*
X9980967Y-15429879D02*
X9990491Y-15391784D01*
X9990491Y-15391784D02*
X10000015Y-15372737D01*
X10000015Y-15372737D02*
X10009539Y-15363213D01*
X10009539Y-15363213D02*
X10028586Y-15353689D01*
X10219063Y-15353689D02*
X10238110Y-15353689D01*
X10238110Y-15353689D02*
X10257158Y-15363213D01*
X10257158Y-15363213D02*
X10266682Y-15372737D01*
X10266682Y-15372737D02*
X10276205Y-15391784D01*
X10276205Y-15391784D02*
X10285729Y-15429879D01*
X10285729Y-15429879D02*
X10285729Y-15477498D01*
X10285729Y-15477498D02*
X10276205Y-15515594D01*
X10276205Y-15515594D02*
X10266682Y-15534641D01*
X10266682Y-15534641D02*
X10257158Y-15544165D01*
X10257158Y-15544165D02*
X10238110Y-15553689D01*
X10238110Y-15553689D02*
X10219063Y-15553689D01*
X10219063Y-15553689D02*
X10200015Y-15544165D01*
X10200015Y-15544165D02*
X10190491Y-15534641D01*
X10190491Y-15534641D02*
X10180967Y-15515594D01*
X10180967Y-15515594D02*
X10171444Y-15477498D01*
X10171444Y-15477498D02*
X10171444Y-15429879D01*
X10171444Y-15429879D02*
X10180967Y-15391784D01*
X10180967Y-15391784D02*
X10190491Y-15372737D01*
X10190491Y-15372737D02*
X10200015Y-15363213D01*
X10200015Y-15363213D02*
X10219063Y-15353689D01*
X10409539Y-15353689D02*
X10428586Y-15353689D01*
X10428586Y-15353689D02*
X10447634Y-15363213D01*
X10447634Y-15363213D02*
X10457158Y-15372737D01*
X10457158Y-15372737D02*
X10466682Y-15391784D01*
X10466682Y-15391784D02*
X10476205Y-15429879D01*
X10476205Y-15429879D02*
X10476205Y-15477498D01*
X10476205Y-15477498D02*
X10466682Y-15515594D01*
X10466682Y-15515594D02*
X10457158Y-15534641D01*
X10457158Y-15534641D02*
X10447634Y-15544165D01*
X10447634Y-15544165D02*
X10428586Y-15553689D01*
X10428586Y-15553689D02*
X10409539Y-15553689D01*
X10409539Y-15553689D02*
X10390491Y-15544165D01*
X10390491Y-15544165D02*
X10380967Y-15534641D01*
X10380967Y-15534641D02*
X10371444Y-15515594D01*
X10371444Y-15515594D02*
X10361920Y-15477498D01*
X10361920Y-15477498D02*
X10361920Y-15429879D01*
X10361920Y-15429879D02*
X10371444Y-15391784D01*
X10371444Y-15391784D02*
X10380967Y-15372737D01*
X10380967Y-15372737D02*
X10390491Y-15363213D01*
X10390491Y-15363213D02*
X10409539Y-15353689D01*
X10561920Y-15553689D02*
X10561920Y-15420356D01*
X10561920Y-15439403D02*
X10571444Y-15429879D01*
X10571444Y-15429879D02*
X10590491Y-15420356D01*
X10590491Y-15420356D02*
X10619063Y-15420356D01*
X10619063Y-15420356D02*
X10638110Y-15429879D01*
X10638110Y-15429879D02*
X10647634Y-15448927D01*
X10647634Y-15448927D02*
X10647634Y-15553689D01*
X10647634Y-15448927D02*
X10657158Y-15429879D01*
X10657158Y-15429879D02*
X10676205Y-15420356D01*
X10676205Y-15420356D02*
X10704777Y-15420356D01*
X10704777Y-15420356D02*
X10723825Y-15429879D01*
X10723825Y-15429879D02*
X10733348Y-15448927D01*
X10733348Y-15448927D02*
X10733348Y-15553689D01*
X10828586Y-15553689D02*
X10828586Y-15420356D01*
X10828586Y-15439403D02*
X10838110Y-15429879D01*
X10838110Y-15429879D02*
X10857158Y-15420356D01*
X10857158Y-15420356D02*
X10885729Y-15420356D01*
X10885729Y-15420356D02*
X10904777Y-15429879D01*
X10904777Y-15429879D02*
X10914301Y-15448927D01*
X10914301Y-15448927D02*
X10914301Y-15553689D01*
X10914301Y-15448927D02*
X10923825Y-15429879D01*
X10923825Y-15429879D02*
X10942872Y-15420356D01*
X10942872Y-15420356D02*
X10971444Y-15420356D01*
X10971444Y-15420356D02*
X10990491Y-15429879D01*
X10990491Y-15429879D02*
X11000015Y-15448927D01*
X11000015Y-15448927D02*
X11000015Y-15553689D01*
X11390491Y-15344165D02*
X11219063Y-15601308D01*
X11647634Y-15353689D02*
X11666682Y-15353689D01*
X11666682Y-15353689D02*
X11685729Y-15363213D01*
X11685729Y-15363213D02*
X11695253Y-15372737D01*
X11695253Y-15372737D02*
X11704777Y-15391784D01*
X11704777Y-15391784D02*
X11714301Y-15429879D01*
X11714301Y-15429879D02*
X11714301Y-15477498D01*
X11714301Y-15477498D02*
X11704777Y-15515594D01*
X11704777Y-15515594D02*
X11695253Y-15534641D01*
X11695253Y-15534641D02*
X11685729Y-15544165D01*
X11685729Y-15544165D02*
X11666682Y-15553689D01*
X11666682Y-15553689D02*
X11647634Y-15553689D01*
X11647634Y-15553689D02*
X11628586Y-15544165D01*
X11628586Y-15544165D02*
X11619063Y-15534641D01*
X11619063Y-15534641D02*
X11609539Y-15515594D01*
X11609539Y-15515594D02*
X11600015Y-15477498D01*
X11600015Y-15477498D02*
X11600015Y-15429879D01*
X11600015Y-15429879D02*
X11609539Y-15391784D01*
X11609539Y-15391784D02*
X11619063Y-15372737D01*
X11619063Y-15372737D02*
X11628586Y-15363213D01*
X11628586Y-15363213D02*
X11647634Y-15353689D01*
X11800015Y-15534641D02*
X11809539Y-15544165D01*
X11809539Y-15544165D02*
X11800015Y-15553689D01*
X11800015Y-15553689D02*
X11790491Y-15544165D01*
X11790491Y-15544165D02*
X11800015Y-15534641D01*
X11800015Y-15534641D02*
X11800015Y-15553689D01*
X12000015Y-15553689D02*
X11885729Y-15553689D01*
X11942872Y-15553689D02*
X11942872Y-15353689D01*
X11942872Y-15353689D02*
X11923825Y-15382260D01*
X11923825Y-15382260D02*
X11904777Y-15401308D01*
X11904777Y-15401308D02*
X11885729Y-15410832D01*
X12095253Y-15553689D02*
X12133348Y-15553689D01*
X12133348Y-15553689D02*
X12152396Y-15544165D01*
X12152396Y-15544165D02*
X12161920Y-15534641D01*
X12161920Y-15534641D02*
X12180967Y-15506070D01*
X12180967Y-15506070D02*
X12190491Y-15467975D01*
X12190491Y-15467975D02*
X12190491Y-15391784D01*
X12190491Y-15391784D02*
X12180967Y-15372737D01*
X12180967Y-15372737D02*
X12171444Y-15363213D01*
X12171444Y-15363213D02*
X12152396Y-15353689D01*
X12152396Y-15353689D02*
X12114301Y-15353689D01*
X12114301Y-15353689D02*
X12095253Y-15363213D01*
X12095253Y-15363213D02*
X12085729Y-15372737D01*
X12085729Y-15372737D02*
X12076206Y-15391784D01*
X12076206Y-15391784D02*
X12076206Y-15439403D01*
X12076206Y-15439403D02*
X12085729Y-15458451D01*
X12085729Y-15458451D02*
X12095253Y-15467975D01*
X12095253Y-15467975D02*
X12114301Y-15477498D01*
X12114301Y-15477498D02*
X12152396Y-15477498D01*
X12152396Y-15477498D02*
X12171444Y-15467975D01*
X12171444Y-15467975D02*
X12180967Y-15458451D01*
X12180967Y-15458451D02*
X12190491Y-15439403D01*
X12361920Y-15353689D02*
X12323825Y-15353689D01*
X12323825Y-15353689D02*
X12304777Y-15363213D01*
X12304777Y-15363213D02*
X12295253Y-15372737D01*
X12295253Y-15372737D02*
X12276206Y-15401308D01*
X12276206Y-15401308D02*
X12266682Y-15439403D01*
X12266682Y-15439403D02*
X12266682Y-15515594D01*
X12266682Y-15515594D02*
X12276206Y-15534641D01*
X12276206Y-15534641D02*
X12285729Y-15544165D01*
X12285729Y-15544165D02*
X12304777Y-15553689D01*
X12304777Y-15553689D02*
X12342872Y-15553689D01*
X12342872Y-15553689D02*
X12361920Y-15544165D01*
X12361920Y-15544165D02*
X12371444Y-15534641D01*
X12371444Y-15534641D02*
X12380967Y-15515594D01*
X12380967Y-15515594D02*
X12380967Y-15467975D01*
X12380967Y-15467975D02*
X12371444Y-15448927D01*
X12371444Y-15448927D02*
X12361920Y-15439403D01*
X12361920Y-15439403D02*
X12342872Y-15429879D01*
X12342872Y-15429879D02*
X12304777Y-15429879D01*
X12304777Y-15429879D02*
X12285729Y-15439403D01*
X12285729Y-15439403D02*
X12276206Y-15448927D01*
X12276206Y-15448927D02*
X12266682Y-15467975D01*
X12476206Y-15553689D02*
X12514301Y-15553689D01*
X12514301Y-15553689D02*
X12533348Y-15544165D01*
X12533348Y-15544165D02*
X12542872Y-15534641D01*
X12542872Y-15534641D02*
X12561920Y-15506070D01*
X12561920Y-15506070D02*
X12571444Y-15467975D01*
X12571444Y-15467975D02*
X12571444Y-15391784D01*
X12571444Y-15391784D02*
X12561920Y-15372737D01*
X12561920Y-15372737D02*
X12552396Y-15363213D01*
X12552396Y-15363213D02*
X12533348Y-15353689D01*
X12533348Y-15353689D02*
X12495253Y-15353689D01*
X12495253Y-15353689D02*
X12476206Y-15363213D01*
X12476206Y-15363213D02*
X12466682Y-15372737D01*
X12466682Y-15372737D02*
X12457158Y-15391784D01*
X12457158Y-15391784D02*
X12457158Y-15439403D01*
X12457158Y-15439403D02*
X12466682Y-15458451D01*
X12466682Y-15458451D02*
X12476206Y-15467975D01*
X12476206Y-15467975D02*
X12495253Y-15477498D01*
X12495253Y-15477498D02*
X12533348Y-15477498D01*
X12533348Y-15477498D02*
X12552396Y-15467975D01*
X12552396Y-15467975D02*
X12561920Y-15458451D01*
X12561920Y-15458451D02*
X12571444Y-15439403D01*
X12647634Y-15353689D02*
X12647634Y-15391784D01*
X12723825Y-15353689D02*
X12723825Y-15391784D01*
X13019063Y-15629879D02*
X13009539Y-15620356D01*
X13009539Y-15620356D02*
X12990491Y-15591784D01*
X12990491Y-15591784D02*
X12980968Y-15572737D01*
X12980968Y-15572737D02*
X12971444Y-15544165D01*
X12971444Y-15544165D02*
X12961920Y-15496546D01*
X12961920Y-15496546D02*
X12961920Y-15458451D01*
X12961920Y-15458451D02*
X12971444Y-15410832D01*
X12971444Y-15410832D02*
X12980968Y-15382260D01*
X12980968Y-15382260D02*
X12990491Y-15363213D01*
X12990491Y-15363213D02*
X13009539Y-15334641D01*
X13009539Y-15334641D02*
X13019063Y-15325117D01*
X13200015Y-15553689D02*
X13085729Y-15553689D01*
X13142872Y-15553689D02*
X13142872Y-15353689D01*
X13142872Y-15353689D02*
X13123825Y-15382260D01*
X13123825Y-15382260D02*
X13104777Y-15401308D01*
X13104777Y-15401308D02*
X13085729Y-15410832D01*
X13314301Y-15439403D02*
X13295253Y-15429879D01*
X13295253Y-15429879D02*
X13285729Y-15420356D01*
X13285729Y-15420356D02*
X13276206Y-15401308D01*
X13276206Y-15401308D02*
X13276206Y-15391784D01*
X13276206Y-15391784D02*
X13285729Y-15372737D01*
X13285729Y-15372737D02*
X13295253Y-15363213D01*
X13295253Y-15363213D02*
X13314301Y-15353689D01*
X13314301Y-15353689D02*
X13352396Y-15353689D01*
X13352396Y-15353689D02*
X13371444Y-15363213D01*
X13371444Y-15363213D02*
X13380968Y-15372737D01*
X13380968Y-15372737D02*
X13390491Y-15391784D01*
X13390491Y-15391784D02*
X13390491Y-15401308D01*
X13390491Y-15401308D02*
X13380968Y-15420356D01*
X13380968Y-15420356D02*
X13371444Y-15429879D01*
X13371444Y-15429879D02*
X13352396Y-15439403D01*
X13352396Y-15439403D02*
X13314301Y-15439403D01*
X13314301Y-15439403D02*
X13295253Y-15448927D01*
X13295253Y-15448927D02*
X13285729Y-15458451D01*
X13285729Y-15458451D02*
X13276206Y-15477498D01*
X13276206Y-15477498D02*
X13276206Y-15515594D01*
X13276206Y-15515594D02*
X13285729Y-15534641D01*
X13285729Y-15534641D02*
X13295253Y-15544165D01*
X13295253Y-15544165D02*
X13314301Y-15553689D01*
X13314301Y-15553689D02*
X13352396Y-15553689D01*
X13352396Y-15553689D02*
X13371444Y-15544165D01*
X13371444Y-15544165D02*
X13380968Y-15534641D01*
X13380968Y-15534641D02*
X13390491Y-15515594D01*
X13390491Y-15515594D02*
X13390491Y-15477498D01*
X13390491Y-15477498D02*
X13380968Y-15458451D01*
X13380968Y-15458451D02*
X13371444Y-15448927D01*
X13371444Y-15448927D02*
X13352396Y-15439403D01*
X13628587Y-15553689D02*
X13628587Y-15353689D01*
X13714301Y-15553689D02*
X13714301Y-15448927D01*
X13714301Y-15448927D02*
X13704777Y-15429879D01*
X13704777Y-15429879D02*
X13685730Y-15420356D01*
X13685730Y-15420356D02*
X13657158Y-15420356D01*
X13657158Y-15420356D02*
X13638110Y-15429879D01*
X13638110Y-15429879D02*
X13628587Y-15439403D01*
X13838110Y-15553689D02*
X13819063Y-15544165D01*
X13819063Y-15544165D02*
X13809539Y-15534641D01*
X13809539Y-15534641D02*
X13800015Y-15515594D01*
X13800015Y-15515594D02*
X13800015Y-15458451D01*
X13800015Y-15458451D02*
X13809539Y-15439403D01*
X13809539Y-15439403D02*
X13819063Y-15429879D01*
X13819063Y-15429879D02*
X13838110Y-15420356D01*
X13838110Y-15420356D02*
X13866682Y-15420356D01*
X13866682Y-15420356D02*
X13885730Y-15429879D01*
X13885730Y-15429879D02*
X13895253Y-15439403D01*
X13895253Y-15439403D02*
X13904777Y-15458451D01*
X13904777Y-15458451D02*
X13904777Y-15515594D01*
X13904777Y-15515594D02*
X13895253Y-15534641D01*
X13895253Y-15534641D02*
X13885730Y-15544165D01*
X13885730Y-15544165D02*
X13866682Y-15553689D01*
X13866682Y-15553689D02*
X13838110Y-15553689D01*
X14019063Y-15553689D02*
X14000015Y-15544165D01*
X14000015Y-15544165D02*
X13990491Y-15525117D01*
X13990491Y-15525117D02*
X13990491Y-15353689D01*
X14171444Y-15544165D02*
X14152396Y-15553689D01*
X14152396Y-15553689D02*
X14114301Y-15553689D01*
X14114301Y-15553689D02*
X14095253Y-15544165D01*
X14095253Y-15544165D02*
X14085730Y-15525117D01*
X14085730Y-15525117D02*
X14085730Y-15448927D01*
X14085730Y-15448927D02*
X14095253Y-15429879D01*
X14095253Y-15429879D02*
X14114301Y-15420356D01*
X14114301Y-15420356D02*
X14152396Y-15420356D01*
X14152396Y-15420356D02*
X14171444Y-15429879D01*
X14171444Y-15429879D02*
X14180968Y-15448927D01*
X14180968Y-15448927D02*
X14180968Y-15467975D01*
X14180968Y-15467975D02*
X14085730Y-15487022D01*
X14257158Y-15544165D02*
X14276206Y-15553689D01*
X14276206Y-15553689D02*
X14314301Y-15553689D01*
X14314301Y-15553689D02*
X14333349Y-15544165D01*
X14333349Y-15544165D02*
X14342872Y-15525117D01*
X14342872Y-15525117D02*
X14342872Y-15515594D01*
X14342872Y-15515594D02*
X14333349Y-15496546D01*
X14333349Y-15496546D02*
X14314301Y-15487022D01*
X14314301Y-15487022D02*
X14285730Y-15487022D01*
X14285730Y-15487022D02*
X14266682Y-15477498D01*
X14266682Y-15477498D02*
X14257158Y-15458451D01*
X14257158Y-15458451D02*
X14257158Y-15448927D01*
X14257158Y-15448927D02*
X14266682Y-15429879D01*
X14266682Y-15429879D02*
X14285730Y-15420356D01*
X14285730Y-15420356D02*
X14314301Y-15420356D01*
X14314301Y-15420356D02*
X14333349Y-15429879D01*
X14409539Y-15629879D02*
X14419063Y-15620356D01*
X14419063Y-15620356D02*
X14438111Y-15591784D01*
X14438111Y-15591784D02*
X14447634Y-15572737D01*
X14447634Y-15572737D02*
X14457158Y-15544165D01*
X14457158Y-15544165D02*
X14466682Y-15496546D01*
X14466682Y-15496546D02*
X14466682Y-15458451D01*
X14466682Y-15458451D02*
X14457158Y-15410832D01*
X14457158Y-15410832D02*
X14447634Y-15382260D01*
X14447634Y-15382260D02*
X14438111Y-15363213D01*
X14438111Y-15363213D02*
X14419063Y-15334641D01*
X14419063Y-15334641D02*
X14409539Y-15325117D01*
X14771444Y-15629879D02*
X14761920Y-15620356D01*
X14761920Y-15620356D02*
X14742872Y-15591784D01*
X14742872Y-15591784D02*
X14733349Y-15572737D01*
X14733349Y-15572737D02*
X14723825Y-15544165D01*
X14723825Y-15544165D02*
X14714301Y-15496546D01*
X14714301Y-15496546D02*
X14714301Y-15458451D01*
X14714301Y-15458451D02*
X14723825Y-15410832D01*
X14723825Y-15410832D02*
X14733349Y-15382260D01*
X14733349Y-15382260D02*
X14742872Y-15363213D01*
X14742872Y-15363213D02*
X14761920Y-15334641D01*
X14761920Y-15334641D02*
X14771444Y-15325117D01*
X14847634Y-15420356D02*
X14847634Y-15553689D01*
X14847634Y-15439403D02*
X14857158Y-15429879D01*
X14857158Y-15429879D02*
X14876206Y-15420356D01*
X14876206Y-15420356D02*
X14904777Y-15420356D01*
X14904777Y-15420356D02*
X14923825Y-15429879D01*
X14923825Y-15429879D02*
X14933349Y-15448927D01*
X14933349Y-15448927D02*
X14933349Y-15553689D01*
X15057158Y-15553689D02*
X15038111Y-15544165D01*
X15038111Y-15544165D02*
X15028587Y-15534641D01*
X15028587Y-15534641D02*
X15019063Y-15515594D01*
X15019063Y-15515594D02*
X15019063Y-15458451D01*
X15019063Y-15458451D02*
X15028587Y-15439403D01*
X15028587Y-15439403D02*
X15038111Y-15429879D01*
X15038111Y-15429879D02*
X15057158Y-15420356D01*
X15057158Y-15420356D02*
X15085730Y-15420356D01*
X15085730Y-15420356D02*
X15104777Y-15429879D01*
X15104777Y-15429879D02*
X15114301Y-15439403D01*
X15114301Y-15439403D02*
X15123825Y-15458451D01*
X15123825Y-15458451D02*
X15123825Y-15515594D01*
X15123825Y-15515594D02*
X15114301Y-15534641D01*
X15114301Y-15534641D02*
X15104777Y-15544165D01*
X15104777Y-15544165D02*
X15085730Y-15553689D01*
X15085730Y-15553689D02*
X15057158Y-15553689D01*
X15180968Y-15420356D02*
X15257158Y-15420356D01*
X15209539Y-15353689D02*
X15209539Y-15525117D01*
X15209539Y-15525117D02*
X15219063Y-15544165D01*
X15219063Y-15544165D02*
X15238111Y-15553689D01*
X15238111Y-15553689D02*
X15257158Y-15553689D01*
X15476206Y-15420356D02*
X15476206Y-15620356D01*
X15476206Y-15429879D02*
X15495253Y-15420356D01*
X15495253Y-15420356D02*
X15533349Y-15420356D01*
X15533349Y-15420356D02*
X15552396Y-15429879D01*
X15552396Y-15429879D02*
X15561920Y-15439403D01*
X15561920Y-15439403D02*
X15571444Y-15458451D01*
X15571444Y-15458451D02*
X15571444Y-15515594D01*
X15571444Y-15515594D02*
X15561920Y-15534641D01*
X15561920Y-15534641D02*
X15552396Y-15544165D01*
X15552396Y-15544165D02*
X15533349Y-15553689D01*
X15533349Y-15553689D02*
X15495253Y-15553689D01*
X15495253Y-15553689D02*
X15476206Y-15544165D01*
X15685730Y-15553689D02*
X15666682Y-15544165D01*
X15666682Y-15544165D02*
X15657158Y-15525117D01*
X15657158Y-15525117D02*
X15657158Y-15353689D01*
X15847634Y-15553689D02*
X15847634Y-15448927D01*
X15847634Y-15448927D02*
X15838111Y-15429879D01*
X15838111Y-15429879D02*
X15819063Y-15420356D01*
X15819063Y-15420356D02*
X15780968Y-15420356D01*
X15780968Y-15420356D02*
X15761920Y-15429879D01*
X15847634Y-15544165D02*
X15828587Y-15553689D01*
X15828587Y-15553689D02*
X15780968Y-15553689D01*
X15780968Y-15553689D02*
X15761920Y-15544165D01*
X15761920Y-15544165D02*
X15752396Y-15525117D01*
X15752396Y-15525117D02*
X15752396Y-15506070D01*
X15752396Y-15506070D02*
X15761920Y-15487022D01*
X15761920Y-15487022D02*
X15780968Y-15477498D01*
X15780968Y-15477498D02*
X15828587Y-15477498D01*
X15828587Y-15477498D02*
X15847634Y-15467975D01*
X15914301Y-15420356D02*
X15990492Y-15420356D01*
X15942873Y-15353689D02*
X15942873Y-15525117D01*
X15942873Y-15525117D02*
X15952396Y-15544165D01*
X15952396Y-15544165D02*
X15971444Y-15553689D01*
X15971444Y-15553689D02*
X15990492Y-15553689D01*
X16133349Y-15544165D02*
X16114301Y-15553689D01*
X16114301Y-15553689D02*
X16076206Y-15553689D01*
X16076206Y-15553689D02*
X16057158Y-15544165D01*
X16057158Y-15544165D02*
X16047634Y-15525117D01*
X16047634Y-15525117D02*
X16047634Y-15448927D01*
X16047634Y-15448927D02*
X16057158Y-15429879D01*
X16057158Y-15429879D02*
X16076206Y-15420356D01*
X16076206Y-15420356D02*
X16114301Y-15420356D01*
X16114301Y-15420356D02*
X16133349Y-15429879D01*
X16133349Y-15429879D02*
X16142873Y-15448927D01*
X16142873Y-15448927D02*
X16142873Y-15467975D01*
X16142873Y-15467975D02*
X16047634Y-15487022D01*
X16314301Y-15553689D02*
X16314301Y-15353689D01*
X16314301Y-15544165D02*
X16295254Y-15553689D01*
X16295254Y-15553689D02*
X16257158Y-15553689D01*
X16257158Y-15553689D02*
X16238111Y-15544165D01*
X16238111Y-15544165D02*
X16228587Y-15534641D01*
X16228587Y-15534641D02*
X16219063Y-15515594D01*
X16219063Y-15515594D02*
X16219063Y-15458451D01*
X16219063Y-15458451D02*
X16228587Y-15439403D01*
X16228587Y-15439403D02*
X16238111Y-15429879D01*
X16238111Y-15429879D02*
X16257158Y-15420356D01*
X16257158Y-15420356D02*
X16295254Y-15420356D01*
X16295254Y-15420356D02*
X16314301Y-15429879D01*
X16390492Y-15629879D02*
X16400015Y-15620356D01*
X16400015Y-15620356D02*
X16419063Y-15591784D01*
X16419063Y-15591784D02*
X16428587Y-15572737D01*
X16428587Y-15572737D02*
X16438111Y-15544165D01*
X16438111Y-15544165D02*
X16447634Y-15496546D01*
X16447634Y-15496546D02*
X16447634Y-15458451D01*
X16447634Y-15458451D02*
X16438111Y-15410832D01*
X16438111Y-15410832D02*
X16428587Y-15382260D01*
X16428587Y-15382260D02*
X16419063Y-15363213D01*
X16419063Y-15363213D02*
X16400015Y-15334641D01*
X16400015Y-15334641D02*
X16390492Y-15325117D01*
X9414711Y-15852917D02*
X9414711Y-15711494D01*
X9273289Y-15711494D01*
X9273289Y-15852917D01*
X9414711Y-15852917D01*
X9800015Y-15673689D02*
X9704777Y-15673689D01*
X9704777Y-15673689D02*
X9695253Y-15768927D01*
X9695253Y-15768927D02*
X9704777Y-15759403D01*
X9704777Y-15759403D02*
X9723824Y-15749879D01*
X9723824Y-15749879D02*
X9771444Y-15749879D01*
X9771444Y-15749879D02*
X9790491Y-15759403D01*
X9790491Y-15759403D02*
X9800015Y-15768927D01*
X9800015Y-15768927D02*
X9809539Y-15787975D01*
X9809539Y-15787975D02*
X9809539Y-15835594D01*
X9809539Y-15835594D02*
X9800015Y-15854641D01*
X9800015Y-15854641D02*
X9790491Y-15864165D01*
X9790491Y-15864165D02*
X9771444Y-15873689D01*
X9771444Y-15873689D02*
X9723824Y-15873689D01*
X9723824Y-15873689D02*
X9704777Y-15864165D01*
X9704777Y-15864165D02*
X9695253Y-15854641D01*
X9895253Y-15854641D02*
X9904777Y-15864165D01*
X9904777Y-15864165D02*
X9895253Y-15873689D01*
X9895253Y-15873689D02*
X9885729Y-15864165D01*
X9885729Y-15864165D02*
X9895253Y-15854641D01*
X9895253Y-15854641D02*
X9895253Y-15873689D01*
X9971444Y-15673689D02*
X10104777Y-15673689D01*
X10104777Y-15673689D02*
X10019063Y-15873689D01*
X10219063Y-15673689D02*
X10238110Y-15673689D01*
X10238110Y-15673689D02*
X10257158Y-15683213D01*
X10257158Y-15683213D02*
X10266682Y-15692737D01*
X10266682Y-15692737D02*
X10276205Y-15711784D01*
X10276205Y-15711784D02*
X10285729Y-15749879D01*
X10285729Y-15749879D02*
X10285729Y-15797498D01*
X10285729Y-15797498D02*
X10276205Y-15835594D01*
X10276205Y-15835594D02*
X10266682Y-15854641D01*
X10266682Y-15854641D02*
X10257158Y-15864165D01*
X10257158Y-15864165D02*
X10238110Y-15873689D01*
X10238110Y-15873689D02*
X10219063Y-15873689D01*
X10219063Y-15873689D02*
X10200015Y-15864165D01*
X10200015Y-15864165D02*
X10190491Y-15854641D01*
X10190491Y-15854641D02*
X10180967Y-15835594D01*
X10180967Y-15835594D02*
X10171444Y-15797498D01*
X10171444Y-15797498D02*
X10171444Y-15749879D01*
X10171444Y-15749879D02*
X10180967Y-15711784D01*
X10180967Y-15711784D02*
X10190491Y-15692737D01*
X10190491Y-15692737D02*
X10200015Y-15683213D01*
X10200015Y-15683213D02*
X10219063Y-15673689D01*
X10409539Y-15673689D02*
X10428586Y-15673689D01*
X10428586Y-15673689D02*
X10447634Y-15683213D01*
X10447634Y-15683213D02*
X10457158Y-15692737D01*
X10457158Y-15692737D02*
X10466682Y-15711784D01*
X10466682Y-15711784D02*
X10476205Y-15749879D01*
X10476205Y-15749879D02*
X10476205Y-15797498D01*
X10476205Y-15797498D02*
X10466682Y-15835594D01*
X10466682Y-15835594D02*
X10457158Y-15854641D01*
X10457158Y-15854641D02*
X10447634Y-15864165D01*
X10447634Y-15864165D02*
X10428586Y-15873689D01*
X10428586Y-15873689D02*
X10409539Y-15873689D01*
X10409539Y-15873689D02*
X10390491Y-15864165D01*
X10390491Y-15864165D02*
X10380967Y-15854641D01*
X10380967Y-15854641D02*
X10371444Y-15835594D01*
X10371444Y-15835594D02*
X10361920Y-15797498D01*
X10361920Y-15797498D02*
X10361920Y-15749879D01*
X10361920Y-15749879D02*
X10371444Y-15711784D01*
X10371444Y-15711784D02*
X10380967Y-15692737D01*
X10380967Y-15692737D02*
X10390491Y-15683213D01*
X10390491Y-15683213D02*
X10409539Y-15673689D01*
X10561920Y-15873689D02*
X10561920Y-15740356D01*
X10561920Y-15759403D02*
X10571444Y-15749879D01*
X10571444Y-15749879D02*
X10590491Y-15740356D01*
X10590491Y-15740356D02*
X10619063Y-15740356D01*
X10619063Y-15740356D02*
X10638110Y-15749879D01*
X10638110Y-15749879D02*
X10647634Y-15768927D01*
X10647634Y-15768927D02*
X10647634Y-15873689D01*
X10647634Y-15768927D02*
X10657158Y-15749879D01*
X10657158Y-15749879D02*
X10676205Y-15740356D01*
X10676205Y-15740356D02*
X10704777Y-15740356D01*
X10704777Y-15740356D02*
X10723825Y-15749879D01*
X10723825Y-15749879D02*
X10733348Y-15768927D01*
X10733348Y-15768927D02*
X10733348Y-15873689D01*
X10828586Y-15873689D02*
X10828586Y-15740356D01*
X10828586Y-15759403D02*
X10838110Y-15749879D01*
X10838110Y-15749879D02*
X10857158Y-15740356D01*
X10857158Y-15740356D02*
X10885729Y-15740356D01*
X10885729Y-15740356D02*
X10904777Y-15749879D01*
X10904777Y-15749879D02*
X10914301Y-15768927D01*
X10914301Y-15768927D02*
X10914301Y-15873689D01*
X10914301Y-15768927D02*
X10923825Y-15749879D01*
X10923825Y-15749879D02*
X10942872Y-15740356D01*
X10942872Y-15740356D02*
X10971444Y-15740356D01*
X10971444Y-15740356D02*
X10990491Y-15749879D01*
X10990491Y-15749879D02*
X11000015Y-15768927D01*
X11000015Y-15768927D02*
X11000015Y-15873689D01*
X11390491Y-15664165D02*
X11219063Y-15921308D01*
X11647634Y-15673689D02*
X11666682Y-15673689D01*
X11666682Y-15673689D02*
X11685729Y-15683213D01*
X11685729Y-15683213D02*
X11695253Y-15692737D01*
X11695253Y-15692737D02*
X11704777Y-15711784D01*
X11704777Y-15711784D02*
X11714301Y-15749879D01*
X11714301Y-15749879D02*
X11714301Y-15797498D01*
X11714301Y-15797498D02*
X11704777Y-15835594D01*
X11704777Y-15835594D02*
X11695253Y-15854641D01*
X11695253Y-15854641D02*
X11685729Y-15864165D01*
X11685729Y-15864165D02*
X11666682Y-15873689D01*
X11666682Y-15873689D02*
X11647634Y-15873689D01*
X11647634Y-15873689D02*
X11628586Y-15864165D01*
X11628586Y-15864165D02*
X11619063Y-15854641D01*
X11619063Y-15854641D02*
X11609539Y-15835594D01*
X11609539Y-15835594D02*
X11600015Y-15797498D01*
X11600015Y-15797498D02*
X11600015Y-15749879D01*
X11600015Y-15749879D02*
X11609539Y-15711784D01*
X11609539Y-15711784D02*
X11619063Y-15692737D01*
X11619063Y-15692737D02*
X11628586Y-15683213D01*
X11628586Y-15683213D02*
X11647634Y-15673689D01*
X11800015Y-15854641D02*
X11809539Y-15864165D01*
X11809539Y-15864165D02*
X11800015Y-15873689D01*
X11800015Y-15873689D02*
X11790491Y-15864165D01*
X11790491Y-15864165D02*
X11800015Y-15854641D01*
X11800015Y-15854641D02*
X11800015Y-15873689D01*
X11885729Y-15692737D02*
X11895253Y-15683213D01*
X11895253Y-15683213D02*
X11914301Y-15673689D01*
X11914301Y-15673689D02*
X11961920Y-15673689D01*
X11961920Y-15673689D02*
X11980967Y-15683213D01*
X11980967Y-15683213D02*
X11990491Y-15692737D01*
X11990491Y-15692737D02*
X12000015Y-15711784D01*
X12000015Y-15711784D02*
X12000015Y-15730832D01*
X12000015Y-15730832D02*
X11990491Y-15759403D01*
X11990491Y-15759403D02*
X11876206Y-15873689D01*
X11876206Y-15873689D02*
X12000015Y-15873689D01*
X12076206Y-15692737D02*
X12085729Y-15683213D01*
X12085729Y-15683213D02*
X12104777Y-15673689D01*
X12104777Y-15673689D02*
X12152396Y-15673689D01*
X12152396Y-15673689D02*
X12171444Y-15683213D01*
X12171444Y-15683213D02*
X12180967Y-15692737D01*
X12180967Y-15692737D02*
X12190491Y-15711784D01*
X12190491Y-15711784D02*
X12190491Y-15730832D01*
X12190491Y-15730832D02*
X12180967Y-15759403D01*
X12180967Y-15759403D02*
X12066682Y-15873689D01*
X12066682Y-15873689D02*
X12190491Y-15873689D01*
X12361920Y-15740356D02*
X12361920Y-15873689D01*
X12314301Y-15664165D02*
X12266682Y-15807022D01*
X12266682Y-15807022D02*
X12390491Y-15807022D01*
X12552396Y-15740356D02*
X12552396Y-15873689D01*
X12504777Y-15664165D02*
X12457158Y-15807022D01*
X12457158Y-15807022D02*
X12580967Y-15807022D01*
X12647634Y-15673689D02*
X12647634Y-15711784D01*
X12723825Y-15673689D02*
X12723825Y-15711784D01*
X13019063Y-15949879D02*
X13009539Y-15940356D01*
X13009539Y-15940356D02*
X12990491Y-15911784D01*
X12990491Y-15911784D02*
X12980968Y-15892737D01*
X12980968Y-15892737D02*
X12971444Y-15864165D01*
X12971444Y-15864165D02*
X12961920Y-15816546D01*
X12961920Y-15816546D02*
X12961920Y-15778451D01*
X12961920Y-15778451D02*
X12971444Y-15730832D01*
X12971444Y-15730832D02*
X12980968Y-15702260D01*
X12980968Y-15702260D02*
X12990491Y-15683213D01*
X12990491Y-15683213D02*
X13009539Y-15654641D01*
X13009539Y-15654641D02*
X13019063Y-15645117D01*
X13180968Y-15740356D02*
X13180968Y-15873689D01*
X13133348Y-15664165D02*
X13085729Y-15807022D01*
X13085729Y-15807022D02*
X13209539Y-15807022D01*
X13438110Y-15873689D02*
X13438110Y-15673689D01*
X13523825Y-15873689D02*
X13523825Y-15768927D01*
X13523825Y-15768927D02*
X13514301Y-15749879D01*
X13514301Y-15749879D02*
X13495253Y-15740356D01*
X13495253Y-15740356D02*
X13466682Y-15740356D01*
X13466682Y-15740356D02*
X13447634Y-15749879D01*
X13447634Y-15749879D02*
X13438110Y-15759403D01*
X13647634Y-15873689D02*
X13628587Y-15864165D01*
X13628587Y-15864165D02*
X13619063Y-15854641D01*
X13619063Y-15854641D02*
X13609539Y-15835594D01*
X13609539Y-15835594D02*
X13609539Y-15778451D01*
X13609539Y-15778451D02*
X13619063Y-15759403D01*
X13619063Y-15759403D02*
X13628587Y-15749879D01*
X13628587Y-15749879D02*
X13647634Y-15740356D01*
X13647634Y-15740356D02*
X13676206Y-15740356D01*
X13676206Y-15740356D02*
X13695253Y-15749879D01*
X13695253Y-15749879D02*
X13704777Y-15759403D01*
X13704777Y-15759403D02*
X13714301Y-15778451D01*
X13714301Y-15778451D02*
X13714301Y-15835594D01*
X13714301Y-15835594D02*
X13704777Y-15854641D01*
X13704777Y-15854641D02*
X13695253Y-15864165D01*
X13695253Y-15864165D02*
X13676206Y-15873689D01*
X13676206Y-15873689D02*
X13647634Y-15873689D01*
X13828587Y-15873689D02*
X13809539Y-15864165D01*
X13809539Y-15864165D02*
X13800015Y-15845117D01*
X13800015Y-15845117D02*
X13800015Y-15673689D01*
X13980968Y-15864165D02*
X13961920Y-15873689D01*
X13961920Y-15873689D02*
X13923825Y-15873689D01*
X13923825Y-15873689D02*
X13904777Y-15864165D01*
X13904777Y-15864165D02*
X13895253Y-15845117D01*
X13895253Y-15845117D02*
X13895253Y-15768927D01*
X13895253Y-15768927D02*
X13904777Y-15749879D01*
X13904777Y-15749879D02*
X13923825Y-15740356D01*
X13923825Y-15740356D02*
X13961920Y-15740356D01*
X13961920Y-15740356D02*
X13980968Y-15749879D01*
X13980968Y-15749879D02*
X13990491Y-15768927D01*
X13990491Y-15768927D02*
X13990491Y-15787975D01*
X13990491Y-15787975D02*
X13895253Y-15807022D01*
X14066682Y-15864165D02*
X14085730Y-15873689D01*
X14085730Y-15873689D02*
X14123825Y-15873689D01*
X14123825Y-15873689D02*
X14142872Y-15864165D01*
X14142872Y-15864165D02*
X14152396Y-15845117D01*
X14152396Y-15845117D02*
X14152396Y-15835594D01*
X14152396Y-15835594D02*
X14142872Y-15816546D01*
X14142872Y-15816546D02*
X14123825Y-15807022D01*
X14123825Y-15807022D02*
X14095253Y-15807022D01*
X14095253Y-15807022D02*
X14076206Y-15797498D01*
X14076206Y-15797498D02*
X14066682Y-15778451D01*
X14066682Y-15778451D02*
X14066682Y-15768927D01*
X14066682Y-15768927D02*
X14076206Y-15749879D01*
X14076206Y-15749879D02*
X14095253Y-15740356D01*
X14095253Y-15740356D02*
X14123825Y-15740356D01*
X14123825Y-15740356D02*
X14142872Y-15749879D01*
X14219063Y-15949879D02*
X14228587Y-15940356D01*
X14228587Y-15940356D02*
X14247634Y-15911784D01*
X14247634Y-15911784D02*
X14257158Y-15892737D01*
X14257158Y-15892737D02*
X14266682Y-15864165D01*
X14266682Y-15864165D02*
X14276206Y-15816546D01*
X14276206Y-15816546D02*
X14276206Y-15778451D01*
X14276206Y-15778451D02*
X14266682Y-15730832D01*
X14266682Y-15730832D02*
X14257158Y-15702260D01*
X14257158Y-15702260D02*
X14247634Y-15683213D01*
X14247634Y-15683213D02*
X14228587Y-15654641D01*
X14228587Y-15654641D02*
X14219063Y-15645117D01*
X14580968Y-15949879D02*
X14571444Y-15940356D01*
X14571444Y-15940356D02*
X14552396Y-15911784D01*
X14552396Y-15911784D02*
X14542872Y-15892737D01*
X14542872Y-15892737D02*
X14533349Y-15864165D01*
X14533349Y-15864165D02*
X14523825Y-15816546D01*
X14523825Y-15816546D02*
X14523825Y-15778451D01*
X14523825Y-15778451D02*
X14533349Y-15730832D01*
X14533349Y-15730832D02*
X14542872Y-15702260D01*
X14542872Y-15702260D02*
X14552396Y-15683213D01*
X14552396Y-15683213D02*
X14571444Y-15654641D01*
X14571444Y-15654641D02*
X14580968Y-15645117D01*
X14657158Y-15740356D02*
X14657158Y-15873689D01*
X14657158Y-15759403D02*
X14666682Y-15749879D01*
X14666682Y-15749879D02*
X14685730Y-15740356D01*
X14685730Y-15740356D02*
X14714301Y-15740356D01*
X14714301Y-15740356D02*
X14733349Y-15749879D01*
X14733349Y-15749879D02*
X14742872Y-15768927D01*
X14742872Y-15768927D02*
X14742872Y-15873689D01*
X14866682Y-15873689D02*
X14847634Y-15864165D01*
X14847634Y-15864165D02*
X14838111Y-15854641D01*
X14838111Y-15854641D02*
X14828587Y-15835594D01*
X14828587Y-15835594D02*
X14828587Y-15778451D01*
X14828587Y-15778451D02*
X14838111Y-15759403D01*
X14838111Y-15759403D02*
X14847634Y-15749879D01*
X14847634Y-15749879D02*
X14866682Y-15740356D01*
X14866682Y-15740356D02*
X14895253Y-15740356D01*
X14895253Y-15740356D02*
X14914301Y-15749879D01*
X14914301Y-15749879D02*
X14923825Y-15759403D01*
X14923825Y-15759403D02*
X14933349Y-15778451D01*
X14933349Y-15778451D02*
X14933349Y-15835594D01*
X14933349Y-15835594D02*
X14923825Y-15854641D01*
X14923825Y-15854641D02*
X14914301Y-15864165D01*
X14914301Y-15864165D02*
X14895253Y-15873689D01*
X14895253Y-15873689D02*
X14866682Y-15873689D01*
X14990492Y-15740356D02*
X15066682Y-15740356D01*
X15019063Y-15673689D02*
X15019063Y-15845117D01*
X15019063Y-15845117D02*
X15028587Y-15864165D01*
X15028587Y-15864165D02*
X15047634Y-15873689D01*
X15047634Y-15873689D02*
X15066682Y-15873689D01*
X15285730Y-15740356D02*
X15285730Y-15940356D01*
X15285730Y-15749879D02*
X15304777Y-15740356D01*
X15304777Y-15740356D02*
X15342873Y-15740356D01*
X15342873Y-15740356D02*
X15361920Y-15749879D01*
X15361920Y-15749879D02*
X15371444Y-15759403D01*
X15371444Y-15759403D02*
X15380968Y-15778451D01*
X15380968Y-15778451D02*
X15380968Y-15835594D01*
X15380968Y-15835594D02*
X15371444Y-15854641D01*
X15371444Y-15854641D02*
X15361920Y-15864165D01*
X15361920Y-15864165D02*
X15342873Y-15873689D01*
X15342873Y-15873689D02*
X15304777Y-15873689D01*
X15304777Y-15873689D02*
X15285730Y-15864165D01*
X15495253Y-15873689D02*
X15476206Y-15864165D01*
X15476206Y-15864165D02*
X15466682Y-15845117D01*
X15466682Y-15845117D02*
X15466682Y-15673689D01*
X15657158Y-15873689D02*
X15657158Y-15768927D01*
X15657158Y-15768927D02*
X15647634Y-15749879D01*
X15647634Y-15749879D02*
X15628587Y-15740356D01*
X15628587Y-15740356D02*
X15590492Y-15740356D01*
X15590492Y-15740356D02*
X15571444Y-15749879D01*
X15657158Y-15864165D02*
X15638111Y-15873689D01*
X15638111Y-15873689D02*
X15590492Y-15873689D01*
X15590492Y-15873689D02*
X15571444Y-15864165D01*
X15571444Y-15864165D02*
X15561920Y-15845117D01*
X15561920Y-15845117D02*
X15561920Y-15826070D01*
X15561920Y-15826070D02*
X15571444Y-15807022D01*
X15571444Y-15807022D02*
X15590492Y-15797498D01*
X15590492Y-15797498D02*
X15638111Y-15797498D01*
X15638111Y-15797498D02*
X15657158Y-15787975D01*
X15723825Y-15740356D02*
X15800015Y-15740356D01*
X15752396Y-15673689D02*
X15752396Y-15845117D01*
X15752396Y-15845117D02*
X15761920Y-15864165D01*
X15761920Y-15864165D02*
X15780968Y-15873689D01*
X15780968Y-15873689D02*
X15800015Y-15873689D01*
X15942873Y-15864165D02*
X15923825Y-15873689D01*
X15923825Y-15873689D02*
X15885730Y-15873689D01*
X15885730Y-15873689D02*
X15866682Y-15864165D01*
X15866682Y-15864165D02*
X15857158Y-15845117D01*
X15857158Y-15845117D02*
X15857158Y-15768927D01*
X15857158Y-15768927D02*
X15866682Y-15749879D01*
X15866682Y-15749879D02*
X15885730Y-15740356D01*
X15885730Y-15740356D02*
X15923825Y-15740356D01*
X15923825Y-15740356D02*
X15942873Y-15749879D01*
X15942873Y-15749879D02*
X15952396Y-15768927D01*
X15952396Y-15768927D02*
X15952396Y-15787975D01*
X15952396Y-15787975D02*
X15857158Y-15807022D01*
X16123825Y-15873689D02*
X16123825Y-15673689D01*
X16123825Y-15864165D02*
X16104777Y-15873689D01*
X16104777Y-15873689D02*
X16066682Y-15873689D01*
X16066682Y-15873689D02*
X16047634Y-15864165D01*
X16047634Y-15864165D02*
X16038111Y-15854641D01*
X16038111Y-15854641D02*
X16028587Y-15835594D01*
X16028587Y-15835594D02*
X16028587Y-15778451D01*
X16028587Y-15778451D02*
X16038111Y-15759403D01*
X16038111Y-15759403D02*
X16047634Y-15749879D01*
X16047634Y-15749879D02*
X16066682Y-15740356D01*
X16066682Y-15740356D02*
X16104777Y-15740356D01*
X16104777Y-15740356D02*
X16123825Y-15749879D01*
X16200015Y-15949879D02*
X16209539Y-15940356D01*
X16209539Y-15940356D02*
X16228587Y-15911784D01*
X16228587Y-15911784D02*
X16238111Y-15892737D01*
X16238111Y-15892737D02*
X16247634Y-15864165D01*
X16247634Y-15864165D02*
X16257158Y-15816546D01*
X16257158Y-15816546D02*
X16257158Y-15778451D01*
X16257158Y-15778451D02*
X16247634Y-15730832D01*
X16247634Y-15730832D02*
X16238111Y-15702260D01*
X16238111Y-15702260D02*
X16228587Y-15683213D01*
X16228587Y-15683213D02*
X16209539Y-15654641D01*
X16209539Y-15654641D02*
X16200015Y-15645117D01*
M02*
